M48
; DRILL file {KiCad 7.0.10} date Mon Feb 19 01:53:32 2024
; FORMAT={-:-/ absolute / inch / decimal}
; #@! TF.CreationDate,2024-02-19T01:53:32+05:30
; #@! TF.GenerationSoftware,Kicad,Pcbnew,7.0.10
; #@! TF.FileFunction,Plated,1,4,PTH
FMAT,2
INCH
; #@! TA.AperFunction,Plated,PTH,ViaDrill
T1C0.0118
; #@! TA.AperFunction,Plated,PTH,ComponentDrill
T2C0.0197
; #@! TA.AperFunction,Plated,PTH,ComponentDrill
T3C0.0236
; #@! TA.AperFunction,Plated,PTH,ComponentDrill
T4C0.0315
; #@! TA.AperFunction,Plated,PTH,ComponentDrill
T5C0.0354
; #@! TA.AperFunction,Plated,PTH,ComponentDrill
T6C0.0394
; #@! TA.AperFunction,Plated,PTH,ComponentDrill
T7C0.0433
; #@! TA.AperFunction,Plated,PTH,ComponentDrill
T8C0.0472
; #@! TA.AperFunction,Plated,PTH,ComponentDrill
T9C0.0591
; #@! TA.AperFunction,Plated,PTH,ComponentDrill
T10C0.0709
%
G90
G05
T1
X2.6772Y-5.7677
X2.7559Y-5.0591
X2.7953Y-4.7539
X2.8051Y-2.3622
X2.8248Y-3.1004
X2.8248Y-4.4783
X2.8445Y-5.6496
X2.8543Y-3.7795
X2.8888Y-1.7667
X2.9134Y-1.7421
X2.9134Y-4.8917
X2.9331Y-3.1201
X2.9331Y-3.1693
X2.9331Y-3.2185
X2.9331Y-5.0492
X2.9331Y-5.5217
X2.938Y-1.7175
X2.9429Y-4.7441
X2.9528Y-2.1063
X2.9528Y-5.4035
X3.0709Y-4.498
X3.0709Y-5.0492
X3.0807Y-2.3917
X3.1004Y-2.8248
X3.1004Y-3.0512
X3.1299Y-2.9724
X3.1496Y-2.2441
X3.1496Y-5.0
X3.1496Y-5.7185
X3.189Y-1.5453
X3.2087Y-2.313
X3.2087Y-2.4705
X3.2087Y-5.2756
X3.2185Y-1.5157
X3.2185Y-4.3209
X3.2283Y-4.7638
X3.248Y-1.5748
X3.248Y-1.6437
X3.248Y-1.7913
X3.2579Y-2.313
X3.2579Y-2.4705
X3.2677Y-1.6142
X3.2697Y-1.498
X3.2874Y-1.5748
X3.2874Y-1.6437
X3.2874Y-4.8228
X3.2874Y-5.4626
X3.3071Y-2.313
X3.3071Y-2.4705
X3.3268Y-4.9016
X3.3563Y-2.6772
X3.3563Y-2.8248
X3.3661Y-2.4902
X3.4055Y-1.5748
X3.4055Y-1.6437
X3.4071Y-2.8248
X3.4154Y-1.7618
X3.4252Y-1.6142
X3.435Y-2.2736
X3.4449Y-5.2264
X3.4449Y-5.5906
X3.4547Y-4.8622
X3.4646Y-1.7618
X3.4646Y-2.7362
X3.4941Y-1.6142
X3.5138Y-1.7618
X3.5138Y-4.5965
X3.5236Y-1.5846
X3.5531Y-1.6142
X3.5531Y-5.6102
X3.5925Y-1.5846
X3.6122Y-5.2461
X3.622Y-3.8583
X3.6319Y-1.6142
X3.6417Y-3.0512
X3.6417Y-3.622
X3.75Y-4.872
X3.7598Y-4.1732
X3.7992Y-5.4724
X3.8091Y-5.2854
X3.8091Y-5.6594
X3.8386Y-5.1378
X3.8386Y-5.3839
X3.8583Y-3.9961
X3.8583Y-4.8228
X3.8583Y-4.872
X3.8583Y-4.9311
X3.878Y-2.7854
X3.878Y-5.4232
X3.8976Y-2.9429
X3.9173Y-2.2146
X3.9173Y-4.8228
X3.9173Y-4.872
X3.9173Y-4.9311
X3.9272Y-2.9232
X3.9862Y-3.75
X3.9961Y-4.872
X4.0059Y-3.0512
X4.0256Y-4.0846
X4.0354Y-3.0315
X4.0453Y-5.3445
X4.0453Y-5.4134
X4.0551Y-5.2362
X4.0551Y-5.689
X4.065Y-4.8327
X4.0846Y-4.9508
X4.0945Y-3.4252
X4.1043Y-4.4882
X4.1043Y-4.5374
X4.1535Y-1.7913
X4.1732Y-4.9606
X4.2126Y-4.8917
X4.2126Y-5.6398
X4.2224Y-4.2126
X4.2323Y-4.5866
X4.2323Y-4.6358
X4.2323Y-5.3543
X4.2421Y-5.7677
X4.252Y-5.5906
X4.2549Y-5.499
X4.2618Y-5.2559
X4.2717Y-4.5472
X4.2913Y-4.9311
X4.311Y-4.7736
X4.3209Y-5.7185
X4.3406Y-5.3445
X4.3799Y-5.4921
X4.4488Y-2.4114
X4.4587Y-5.7283
X4.4685Y-4.4488
X4.5079Y-5.6594
X4.5276Y-5.3543
X4.5669Y-5.7185
X4.6161Y-4.7146
X4.6358Y-5.2067
X4.6358Y-5.3051
X4.7146Y-5.3051
X4.7638Y-3.1299
X4.7736Y-1.5551
X4.7736Y-2.126
X4.7835Y-5.0394
X4.7835Y-5.3839
X4.7835Y-5.4429
X4.7835Y-5.7972
T4
X3.2382Y-2.9724
X3.2382Y-3.0512
X3.2382Y-3.1299
X3.3366Y-3.7008
X3.3366Y-3.7795
X3.3366Y-3.8583
X4.065Y-3.7008
X4.065Y-3.7795
X4.065Y-3.8583
X4.2323Y-2.2441
X4.2323Y-2.3228
X4.2323Y-2.4016
T5
X3.1004Y-5.4134
X3.2004Y-5.4134
T6
X2.7854Y-2.2343
X2.7854Y-2.9626
X2.7854Y-3.6909
X2.7854Y-4.3209
X2.8839Y-2.2343
X2.8839Y-2.9626
X2.8839Y-3.6909
X2.8839Y-4.3209
X2.9823Y-2.2343
X2.9823Y-2.9626
X2.9823Y-3.6909
X2.9823Y-4.3209
X3.6024Y-2.1555
X3.6024Y-3.5236
X3.6024Y-4.6161
X3.7008Y-2.1555
X3.7008Y-3.5236
X3.7008Y-4.6161
X3.7992Y-2.1555
X3.7992Y-3.5236
X3.7992Y-4.6161
X4.2193Y-1.6029
X4.2193Y-1.7029
X4.3193Y-1.6029
X4.3193Y-1.7029
X4.4193Y-1.6029
X4.4193Y-1.7029
X4.4193Y-2.9626
X4.4193Y-3.6909
X4.4193Y-4.3209
X4.5177Y-2.9626
X4.5177Y-3.6909
X4.5177Y-4.3209
X4.5193Y-1.6029
X4.5193Y-1.7029
X4.6161Y-2.9626
X4.6161Y-3.6909
X4.6161Y-4.3209
X4.6193Y-1.6029
X4.6193Y-1.7029
T7
X2.8823Y-4.6063
X2.9823Y-4.6063
X3.0823Y-4.6063
X3.6024Y-2.4902
X3.6024Y-2.687
X3.7992Y-2.4902
X3.7992Y-2.687
X4.3193Y-4.6063
X4.4177Y-1.9587
X4.4193Y-4.6063
X4.5177Y-1.9587
X4.5193Y-4.6063
X4.6177Y-1.9587
T8
X3.5787Y-2.5925
X3.8228Y-2.5886
T9
X3.2382Y-2.8898
X3.2382Y-3.2126
X3.3366Y-3.6181
X3.3366Y-3.9409
X4.065Y-3.6181
X4.065Y-3.9409
X4.2323Y-2.1614
X4.2323Y-2.4843
T2
G00X3.0185Y-5.1181
M15
G01X3.0185Y-5.1575
M16
G05
G00X3.0185Y-5.5807
M15
G01X3.0185Y-5.6201
M16
G05
G00X3.6484Y-5.1181
M15
G01X3.6484Y-5.1575
M16
G05
G00X3.6484Y-5.5807
M15
G01X3.6484Y-5.6201
M16
G05
G00X3.7531Y-5.1575
M15
G01X3.7531Y-5.1181
M16
G05
G00X3.7531Y-5.6201
M15
G01X3.7531Y-5.5807
M16
G05
G00X4.3831Y-5.1575
M15
G01X4.3831Y-5.1181
M16
G05
G00X4.3831Y-5.6201
M15
G01X4.3831Y-5.5807
M16
G05
T3
G00X2.6083Y-5.124
M15
G01X2.6083Y-5.1516
M16
G05
G00X2.6083Y-5.5866
M15
G01X2.6083Y-5.6142
M16
G05
G00X2.6917Y-5.1201
M15
G01X2.6917Y-5.1555
M16
G05
G00X2.6917Y-5.5827
M15
G01X2.6917Y-5.6181
M16
G05
G00X3.2382Y-5.124
M15
G01X3.2382Y-5.1516
M16
G05
G00X3.2382Y-5.5866
M15
G01X3.2382Y-5.6142
M16
G05
G00X3.3217Y-5.1201
M15
G01X3.3217Y-5.1555
M16
G05
G00X3.3217Y-5.5827
M15
G01X3.3217Y-5.6181
M16
G05
G00X4.0799Y-5.1555
M15
G01X4.0799Y-5.1201
M16
G05
G00X4.0799Y-5.6181
M15
G01X4.0799Y-5.5827
M16
G05
G00X4.1634Y-5.1516
M15
G01X4.1634Y-5.124
M16
G05
G00X4.1634Y-5.6142
M15
G01X4.1634Y-5.5866
M16
G05
G00X4.7098Y-5.1555
M15
G01X4.7098Y-5.1201
M16
G05
G00X4.7098Y-5.6181
M15
G01X4.7098Y-5.5827
M16
G05
G00X4.7933Y-5.1516
M15
G01X4.7933Y-5.124
M16
G05
G00X4.7933Y-5.6142
M15
G01X4.7933Y-5.5866
M16
G05
T7
G00X3.5118Y-1.874
M15
G01X3.5118Y-1.8465
M16
G05
G00X3.5118Y-3.2421
M15
G01X3.5118Y-3.2146
M16
G05
G00X3.5118Y-4.3346
M15
G01X3.5118Y-4.3071
M16
G05
G00X3.8898Y-1.874
M15
G01X3.8898Y-1.8465
M16
G05
G00X3.8898Y-3.2421
M15
G01X3.8898Y-3.2146
M16
G05
G00X3.8898Y-4.3346
M15
G01X3.8898Y-4.3071
M16
G05
T10
G00X2.6949Y-1.939
M15
G01X2.6949Y-1.9783
M16
G05
G00X2.6949Y-2.6673
M15
G01X2.6949Y-2.7067
M16
G05
G00X2.6949Y-3.3957
M15
G01X2.6949Y-3.435
M16
G05
G00X2.6949Y-4.0256
M15
G01X2.6949Y-4.065
M16
G05
G00X3.0728Y-1.939
M15
G01X3.0728Y-1.9783
M16
G05
G00X3.0728Y-2.6673
M15
G01X3.0728Y-2.7067
M16
G05
G00X3.0728Y-3.3957
M15
G01X3.0728Y-3.435
M16
G05
G00X3.0728Y-4.0256
M15
G01X3.0728Y-4.065
M16
G05
G00X4.3287Y-2.6673
M15
G01X4.3287Y-2.7067
M16
G05
G00X4.3287Y-3.3957
M15
G01X4.3287Y-3.435
M16
G05
G00X4.3287Y-4.0256
M15
G01X4.3287Y-4.065
M16
G05
G00X4.7067Y-2.6673
M15
G01X4.7067Y-2.7067
M16
G05
G00X4.7067Y-3.3957
M15
G01X4.7067Y-3.435
M16
G05
G00X4.7067Y-4.0256
M15
G01X4.7067Y-4.065
M16
G05
M30
