%TF.GenerationSoftware,KiCad,Pcbnew,7.0.10*%
%TF.CreationDate,2024-02-19T01:53:30+05:30*%
%TF.ProjectId,Echo Cinematic,4563686f-2043-4696-9e65-6d617469632e,rev?*%
%TF.SameCoordinates,Original*%
%TF.FileFunction,Soldermask,Bot*%
%TF.FilePolarity,Negative*%
%FSLAX46Y46*%
G04 Gerber Fmt 4.6, Leading zero omitted, Abs format (unit mm)*
G04 Created by KiCad (PCBNEW 7.0.10) date 2024-02-19 01:53:30*
%MOMM*%
%LPD*%
G01*
G04 APERTURE LIST*
G04 Aperture macros list*
%AMRoundRect*
0 Rectangle with rounded corners*
0 $1 Rounding radius*
0 $2 $3 $4 $5 $6 $7 $8 $9 X,Y pos of 4 corners*
0 Add a 4 corners polygon primitive as box body*
4,1,4,$2,$3,$4,$5,$6,$7,$8,$9,$2,$3,0*
0 Add four circle primitives for the rounded corners*
1,1,$1+$1,$2,$3*
1,1,$1+$1,$4,$5*
1,1,$1+$1,$6,$7*
1,1,$1+$1,$8,$9*
0 Add four rect primitives between the rounded corners*
20,1,$1+$1,$2,$3,$4,$5,0*
20,1,$1+$1,$4,$5,$6,$7,0*
20,1,$1+$1,$6,$7,$8,$9,0*
20,1,$1+$1,$8,$9,$2,$3,0*%
G04 Aperture macros list end*
%ADD10RoundRect,0.200000X0.275000X-0.200000X0.275000X0.200000X-0.275000X0.200000X-0.275000X-0.200000X0*%
%ADD11RoundRect,0.200000X-0.200000X-0.275000X0.200000X-0.275000X0.200000X0.275000X-0.200000X0.275000X0*%
%ADD12O,1.300000X2.200000*%
%ADD13O,1.300000X2.000000*%
%ADD14O,1.200000X2.200000*%
%ADD15C,1.800000*%
%ADD16O,2.500000X3.800000*%
%ADD17C,2.000000*%
%ADD18O,2.720000X3.240000*%
%ADD19R,1.800000X1.800000*%
%ADD20O,2.500000X1.500000*%
%ADD21R,2.500000X1.500000*%
%ADD22O,3.500000X2.200000*%
%ADD23RoundRect,0.250000X0.475000X-0.250000X0.475000X0.250000X-0.475000X0.250000X-0.475000X-0.250000X0*%
%ADD24RoundRect,0.225000X0.250000X-0.225000X0.250000X0.225000X-0.250000X0.225000X-0.250000X-0.225000X0*%
%ADD25RoundRect,0.225000X-0.250000X0.225000X-0.250000X-0.225000X0.250000X-0.225000X0.250000X0.225000X0*%
%ADD26RoundRect,0.225000X-0.225000X-0.250000X0.225000X-0.250000X0.225000X0.250000X-0.225000X0.250000X0*%
%ADD27RoundRect,0.225000X0.225000X0.250000X-0.225000X0.250000X-0.225000X-0.250000X0.225000X-0.250000X0*%
%ADD28RoundRect,0.225000X-0.225000X-0.375000X0.225000X-0.375000X0.225000X0.375000X-0.225000X0.375000X0*%
%ADD29RoundRect,0.225000X0.225000X0.375000X-0.225000X0.375000X-0.225000X-0.375000X0.225000X-0.375000X0*%
%ADD30C,1.700000*%
%ADD31RoundRect,0.250000X0.600000X-0.600000X0.600000X0.600000X-0.600000X0.600000X-0.600000X-0.600000X0*%
%ADD32RoundRect,0.250000X0.262500X0.450000X-0.262500X0.450000X-0.262500X-0.450000X0.262500X-0.450000X0*%
%ADD33RoundRect,0.200000X0.200000X0.275000X-0.200000X0.275000X-0.200000X-0.275000X0.200000X-0.275000X0*%
%ADD34RoundRect,0.200000X-0.275000X0.200000X-0.275000X-0.200000X0.275000X-0.200000X0.275000X0.200000X0*%
%ADD35RoundRect,0.150000X0.150000X-0.825000X0.150000X0.825000X-0.150000X0.825000X-0.150000X-0.825000X0*%
%ADD36RoundRect,0.150000X0.150000X-0.587500X0.150000X0.587500X-0.150000X0.587500X-0.150000X-0.587500X0*%
%ADD37RoundRect,0.150000X-0.150000X0.587500X-0.150000X-0.587500X0.150000X-0.587500X0.150000X0.587500X0*%
%ADD38RoundRect,0.250000X-0.450000X0.262500X-0.450000X-0.262500X0.450000X-0.262500X0.450000X0.262500X0*%
%ADD39RoundRect,0.250000X0.425000X-0.450000X0.425000X0.450000X-0.425000X0.450000X-0.425000X-0.450000X0*%
%ADD40RoundRect,0.150000X-0.150000X0.725000X-0.150000X-0.725000X0.150000X-0.725000X0.150000X0.725000X0*%
%ADD41R,2.100000X0.750000*%
%ADD42R,0.750000X2.100000*%
%ADD43RoundRect,0.150000X0.725000X0.150000X-0.725000X0.150000X-0.725000X-0.150000X0.725000X-0.150000X0*%
%ADD44RoundRect,0.150000X0.150000X0.200000X-0.150000X0.200000X-0.150000X-0.200000X0.150000X-0.200000X0*%
%ADD45RoundRect,0.150000X-0.200000X0.150000X-0.200000X-0.150000X0.200000X-0.150000X0.200000X0.150000X0*%
G04 APERTURE END LIST*
D10*
%TO.C,R28*%
X120250000Y-144425000D03*
X120250000Y-146075000D03*
%TD*%
D11*
%TO.C,R27*%
X106075000Y-144500000D03*
X104425000Y-144500000D03*
%TD*%
D10*
%TO.C,R19*%
X111250000Y-144425000D03*
X111250000Y-146075000D03*
%TD*%
%TO.C,R18*%
X107250000Y-126675000D03*
X107250000Y-128325000D03*
%TD*%
D12*
%TO.C,J9*%
X103630000Y-142250000D03*
D13*
X105750000Y-142250000D03*
D14*
X95330000Y-142250000D03*
%TD*%
%TO.C,J7*%
X95330000Y-130500000D03*
D13*
X105750000Y-130500000D03*
D12*
X103630000Y-130500000D03*
%TD*%
%TO.C,J2*%
X84370000Y-130500000D03*
D14*
X92670000Y-130500000D03*
D13*
X82250000Y-130500000D03*
%TD*%
D12*
%TO.C,J5*%
X119630000Y-130500000D03*
D14*
X111330000Y-130500000D03*
D13*
X121750000Y-130500000D03*
%TD*%
%TO.C,J6*%
X121750000Y-142250000D03*
D14*
X111330000Y-142250000D03*
D12*
X119630000Y-142250000D03*
%TD*%
D15*
%TO.C,RV4*%
X117250000Y-93750000D03*
X114750000Y-93750000D03*
D16*
X119550000Y-86750000D03*
D15*
X112250000Y-93750000D03*
D16*
X109950000Y-86750000D03*
%TD*%
D15*
%TO.C,RV2*%
X117250000Y-75250000D03*
X114750000Y-75250000D03*
D16*
X119550000Y-68250000D03*
D15*
X112250000Y-75250000D03*
D16*
X109950000Y-68250000D03*
%TD*%
D15*
%TO.C,RV5*%
X75750000Y-109750000D03*
X73250000Y-109750000D03*
D16*
X78050000Y-102750000D03*
D15*
X70750000Y-109750000D03*
D16*
X68450000Y-102750000D03*
%TD*%
D15*
%TO.C,RV6*%
X75750000Y-75250000D03*
X73250000Y-75250000D03*
D16*
X78050000Y-68250000D03*
D15*
X70750000Y-75250000D03*
D16*
X68450000Y-68250000D03*
%TD*%
D15*
%TO.C,RV7*%
X75750000Y-93750000D03*
X73250000Y-93750000D03*
D16*
X78050000Y-86750000D03*
D15*
X70750000Y-93750000D03*
D16*
X68450000Y-86750000D03*
%TD*%
D15*
%TO.C,RV8*%
X117250000Y-109750000D03*
X114750000Y-109750000D03*
D16*
X119550000Y-102750000D03*
D15*
X112250000Y-109750000D03*
D16*
X109950000Y-102750000D03*
%TD*%
D17*
%TO.C,SW1*%
X109710000Y-117000000D03*
X112250000Y-117000000D03*
X114790000Y-117000000D03*
%TD*%
%TO.C,SW2*%
X73210000Y-117000000D03*
X75750000Y-117000000D03*
X78290000Y-117000000D03*
%TD*%
D15*
%TO.C,RV3*%
X96500000Y-89500000D03*
X94000000Y-89500000D03*
D18*
X98800000Y-82000000D03*
X89200000Y-82000000D03*
D19*
X91500000Y-89500000D03*
%TD*%
D15*
%TO.C,RV1*%
X75750000Y-56750000D03*
X73250000Y-56750000D03*
D16*
X78050000Y-49750000D03*
D15*
X70750000Y-56750000D03*
D16*
X68450000Y-49750000D03*
%TD*%
D12*
%TO.C,J8*%
X68370000Y-130500000D03*
D14*
X76670000Y-130500000D03*
D13*
X66250000Y-130500000D03*
%TD*%
D17*
%TO.C,SW3*%
X91500000Y-63250000D03*
X96500000Y-63250000D03*
X90900000Y-65850000D03*
X97100000Y-65750000D03*
X91500000Y-68250000D03*
X96500000Y-68250000D03*
%TD*%
D15*
%TO.C,RV9*%
X96500000Y-54750000D03*
X94000000Y-54750000D03*
D18*
X98800000Y-47250000D03*
X89200000Y-47250000D03*
D19*
X91500000Y-54750000D03*
%TD*%
D15*
%TO.C,RV10*%
X96500000Y-117250000D03*
X94000000Y-117250000D03*
D18*
X98800000Y-109750000D03*
X89200000Y-109750000D03*
D19*
X91500000Y-117250000D03*
%TD*%
D12*
%TO.C,J4*%
X84370000Y-142250000D03*
D14*
X92670000Y-142250000D03*
D13*
X82250000Y-142250000D03*
%TD*%
D20*
%TO.C,SW9*%
X107500000Y-57000000D03*
X107500000Y-59000000D03*
D21*
X107500000Y-61000000D03*
D22*
X107500000Y-54900000D03*
X107500000Y-63100000D03*
%TD*%
D12*
%TO.C,J16*%
X68370000Y-142250000D03*
D14*
X76670000Y-142250000D03*
D13*
X66250000Y-142250000D03*
%TD*%
D20*
%TO.C,SW8*%
X82250000Y-75500000D03*
X82250000Y-77500000D03*
D21*
X82250000Y-79500000D03*
D22*
X82250000Y-73400000D03*
X82250000Y-81600000D03*
%TD*%
D15*
%TO.C,D3*%
X81290000Y-137500000D03*
D19*
X78750000Y-137500000D03*
%TD*%
D20*
%TO.C,SW6*%
X103250000Y-94000000D03*
X103250000Y-96000000D03*
D21*
X103250000Y-98000000D03*
D22*
X103250000Y-91900000D03*
X103250000Y-100100000D03*
%TD*%
D20*
%TO.C,SW7*%
X84750000Y-94000000D03*
X84750000Y-96000000D03*
D21*
X84750000Y-98000000D03*
D22*
X84750000Y-91900000D03*
X84750000Y-100100000D03*
%TD*%
D17*
%TO.C,SW10*%
X112210000Y-49750000D03*
X114750000Y-49750000D03*
X117290000Y-49750000D03*
%TD*%
D23*
%TO.C,C1*%
X85000000Y-41550000D03*
X85000000Y-43450000D03*
%TD*%
%TO.C,C2*%
X85000000Y-38050000D03*
X85000000Y-39950000D03*
%TD*%
D24*
%TO.C,C3*%
X87750000Y-41725000D03*
X87750000Y-43275000D03*
%TD*%
%TO.C,C5*%
X116000000Y-129225000D03*
X116000000Y-130775000D03*
%TD*%
D25*
%TO.C,C6*%
X120500000Y-134525000D03*
X120500000Y-132975000D03*
%TD*%
D24*
%TO.C,C8*%
X117500000Y-140725000D03*
X117500000Y-142275000D03*
%TD*%
D26*
%TO.C,C9*%
X120525000Y-136750000D03*
X118975000Y-136750000D03*
%TD*%
D27*
%TO.C,C10*%
X100225000Y-143000000D03*
X101775000Y-143000000D03*
%TD*%
%TO.C,C11*%
X100225000Y-130500000D03*
X101775000Y-130500000D03*
%TD*%
D25*
%TO.C,C12*%
X103500000Y-135747000D03*
X103500000Y-134197000D03*
%TD*%
%TO.C,C13*%
X69500000Y-127525000D03*
X69500000Y-125975000D03*
%TD*%
D26*
%TO.C,C14*%
X108025000Y-137044000D03*
X106475000Y-137044000D03*
%TD*%
D24*
%TO.C,C17*%
X113000000Y-140725000D03*
X113000000Y-142275000D03*
%TD*%
D28*
%TO.C,D1*%
X92900000Y-42750000D03*
X89600000Y-42750000D03*
%TD*%
D29*
%TO.C,D2*%
X89600000Y-38750000D03*
X92900000Y-38750000D03*
%TD*%
D30*
%TO.C,J1*%
X107170000Y-40712500D03*
X107170000Y-43252500D03*
X109710000Y-40712500D03*
X109710000Y-43252500D03*
X112250000Y-40712500D03*
X112250000Y-43252500D03*
X114790000Y-40712500D03*
X114790000Y-43252500D03*
X117330000Y-40712500D03*
D31*
X117330000Y-43252500D03*
%TD*%
D32*
%TO.C,L1*%
X94837500Y-42750000D03*
X96662500Y-42750000D03*
%TD*%
%TO.C,L2*%
X94837500Y-38750000D03*
X96662500Y-38750000D03*
%TD*%
D33*
%TO.C,R1*%
X112675000Y-125250000D03*
X114325000Y-125250000D03*
%TD*%
%TO.C,R2*%
X116175000Y-125250000D03*
X117825000Y-125250000D03*
%TD*%
D10*
%TO.C,R3*%
X114500000Y-129175000D03*
X114500000Y-130825000D03*
%TD*%
%TO.C,R4*%
X117500000Y-129175000D03*
X117500000Y-130825000D03*
%TD*%
D11*
%TO.C,R5*%
X90825000Y-129500000D03*
X89175000Y-129500000D03*
%TD*%
D10*
%TO.C,R7*%
X87500000Y-133675000D03*
X87500000Y-135325000D03*
%TD*%
%TO.C,R8*%
X86000000Y-133675000D03*
X86000000Y-135325000D03*
%TD*%
D33*
%TO.C,R20*%
X100175000Y-141500000D03*
X101825000Y-141500000D03*
%TD*%
D11*
%TO.C,R21*%
X101825000Y-144500000D03*
X100175000Y-144500000D03*
%TD*%
D33*
%TO.C,R22*%
X96925000Y-141500000D03*
X98575000Y-141500000D03*
%TD*%
%TO.C,R23*%
X100175000Y-132000000D03*
X101825000Y-132000000D03*
%TD*%
D11*
%TO.C,R24*%
X101825000Y-129000000D03*
X100175000Y-129000000D03*
%TD*%
D33*
%TO.C,R25*%
X106425000Y-138750000D03*
X108075000Y-138750000D03*
%TD*%
%TO.C,R26*%
X96925000Y-132000000D03*
X98575000Y-132000000D03*
%TD*%
D34*
%TO.C,R29*%
X67750000Y-127575000D03*
X67750000Y-125925000D03*
%TD*%
D11*
%TO.C,R31*%
X120825000Y-128500000D03*
X119175000Y-128500000D03*
%TD*%
D34*
%TO.C,R33*%
X113000000Y-130825000D03*
X113000000Y-129175000D03*
%TD*%
%TO.C,R35*%
X109750000Y-130825000D03*
X109750000Y-129175000D03*
%TD*%
D33*
%TO.C,R37*%
X112675000Y-146250000D03*
X114325000Y-146250000D03*
%TD*%
D10*
%TO.C,R41*%
X120500000Y-138175000D03*
X120500000Y-139825000D03*
%TD*%
D34*
%TO.C,R43*%
X116000000Y-142325000D03*
X116000000Y-140675000D03*
%TD*%
%TO.C,R45*%
X119000000Y-139825000D03*
X119000000Y-138175000D03*
%TD*%
D10*
%TO.C,R47*%
X114500000Y-140675000D03*
X114500000Y-142325000D03*
%TD*%
%TO.C,R49*%
X109750000Y-140675000D03*
X109750000Y-142325000D03*
%TD*%
D35*
%TO.C,U3*%
X101405000Y-134275000D03*
X100135000Y-134275000D03*
X98865000Y-134275000D03*
X97595000Y-134275000D03*
X97595000Y-139225000D03*
X98865000Y-139225000D03*
X100135000Y-139225000D03*
X101405000Y-139225000D03*
%TD*%
D36*
%TO.C,U5*%
X107250000Y-133312500D03*
X106300000Y-135187500D03*
X108200000Y-135187500D03*
%TD*%
D34*
%TO.C,R32*%
X102250000Y-63575000D03*
X102250000Y-61925000D03*
%TD*%
D10*
%TO.C,R34*%
X114750000Y-89925000D03*
X114750000Y-91575000D03*
%TD*%
%TO.C,R36*%
X114750000Y-67175000D03*
X114750000Y-68825000D03*
%TD*%
%TO.C,R38*%
X94000000Y-85925000D03*
X94000000Y-87575000D03*
%TD*%
%TO.C,R40*%
X73250000Y-105925000D03*
X73250000Y-107575000D03*
%TD*%
D34*
%TO.C,R42*%
X104000000Y-63575000D03*
X104000000Y-61925000D03*
%TD*%
%TO.C,R44*%
X100500000Y-63575000D03*
X100500000Y-61925000D03*
%TD*%
D10*
%TO.C,R46*%
X73250000Y-89925000D03*
X73250000Y-91575000D03*
%TD*%
%TO.C,R48*%
X114750000Y-105925000D03*
X114750000Y-107575000D03*
%TD*%
D25*
%TO.C,C16*%
X118750000Y-134525000D03*
X118750000Y-132975000D03*
%TD*%
%TO.C,C18*%
X111250000Y-138525000D03*
X111250000Y-136975000D03*
%TD*%
D24*
%TO.C,C7*%
X111250000Y-132975000D03*
X111250000Y-134525000D03*
%TD*%
D33*
%TO.C,R6*%
X89175000Y-131250000D03*
X90825000Y-131250000D03*
%TD*%
D37*
%TO.C,Q1*%
X90000000Y-135187500D03*
X90950000Y-133312500D03*
X89050000Y-133312500D03*
%TD*%
D24*
%TO.C,C4*%
X87750000Y-38225000D03*
X87750000Y-39775000D03*
%TD*%
D33*
%TO.C,R39*%
X116175000Y-146250000D03*
X117825000Y-146250000D03*
%TD*%
D10*
%TO.C,R15*%
X94000000Y-66675000D03*
X94000000Y-68325000D03*
%TD*%
D38*
%TO.C,R16*%
X101750000Y-122412500D03*
X101750000Y-120587500D03*
%TD*%
D34*
%TO.C,R66*%
X103750000Y-128325000D03*
X103750000Y-126675000D03*
%TD*%
D10*
%TO.C,R12*%
X87500000Y-142925000D03*
X87500000Y-144575000D03*
%TD*%
D39*
%TO.C,C21*%
X79500000Y-129650000D03*
X79500000Y-132350000D03*
%TD*%
D40*
%TO.C,U8*%
X113095000Y-138325000D03*
X114365000Y-138325000D03*
X115635000Y-138325000D03*
X116905000Y-138325000D03*
X116905000Y-133175000D03*
X115635000Y-133175000D03*
X114365000Y-133175000D03*
X113095000Y-133175000D03*
%TD*%
D41*
%TO.C,U1*%
X82200000Y-117790000D03*
X82200000Y-116520000D03*
X82200000Y-115250000D03*
X82200000Y-113980000D03*
X82200000Y-112710000D03*
X85800000Y-112710000D03*
X85800000Y-113980000D03*
X85800000Y-115250000D03*
X85800000Y-116520000D03*
X85800000Y-117790000D03*
D42*
X81460000Y-66450000D03*
X82730000Y-66450000D03*
X84000000Y-66450000D03*
X85270000Y-66450000D03*
X86540000Y-66450000D03*
X86540000Y-70050000D03*
X85270000Y-70050000D03*
X84000000Y-70050000D03*
X82730000Y-70050000D03*
X81460000Y-70050000D03*
X101460000Y-66450000D03*
X102730000Y-66450000D03*
X104000000Y-66450000D03*
X105270000Y-66450000D03*
X106540000Y-66450000D03*
X106540000Y-70050000D03*
X105270000Y-70050000D03*
X104000000Y-70050000D03*
X102730000Y-70050000D03*
X101460000Y-70050000D03*
D41*
X102200000Y-110790000D03*
X102200000Y-109520000D03*
X102200000Y-108250000D03*
X102200000Y-106980000D03*
X102200000Y-105710000D03*
X105800000Y-105710000D03*
X105800000Y-106980000D03*
X105800000Y-108250000D03*
X105800000Y-109520000D03*
X105800000Y-110790000D03*
X102200000Y-117790000D03*
X102200000Y-116520000D03*
X102200000Y-115250000D03*
X102200000Y-113980000D03*
X102200000Y-112710000D03*
X105800000Y-112710000D03*
X105800000Y-113980000D03*
X105800000Y-115250000D03*
X105800000Y-116520000D03*
X105800000Y-117790000D03*
%TD*%
D34*
%TO.C,R64*%
X81000000Y-127575000D03*
X81000000Y-125925000D03*
%TD*%
D43*
%TO.C,U2*%
X71925000Y-122595000D03*
X71925000Y-123865000D03*
X71925000Y-125135000D03*
X71925000Y-126405000D03*
X77075000Y-126405000D03*
X77075000Y-125135000D03*
X77075000Y-123865000D03*
X77075000Y-122595000D03*
%TD*%
D33*
%TO.C,R11*%
X89175000Y-140500000D03*
X90825000Y-140500000D03*
%TD*%
D34*
%TO.C,R58*%
X83750000Y-135325000D03*
X83750000Y-133675000D03*
%TD*%
%TO.C,R17*%
X69500000Y-119075000D03*
X69500000Y-117425000D03*
%TD*%
%TO.C,R67*%
X67750000Y-124325000D03*
X67750000Y-122675000D03*
%TD*%
D25*
%TO.C,C31*%
X79250000Y-127525000D03*
X79250000Y-125975000D03*
%TD*%
D11*
%TO.C,R10*%
X90825000Y-138750000D03*
X89175000Y-138750000D03*
%TD*%
D10*
%TO.C,R9*%
X94000000Y-112675000D03*
X94000000Y-114325000D03*
%TD*%
D27*
%TO.C,C29*%
X75475000Y-128250000D03*
X77025000Y-128250000D03*
%TD*%
D24*
%TO.C,C26*%
X79250000Y-122725000D03*
X79250000Y-124275000D03*
%TD*%
D34*
%TO.C,R70*%
X67750000Y-119075000D03*
X67750000Y-117425000D03*
%TD*%
%TO.C,R65*%
X103500000Y-139325000D03*
X103500000Y-137675000D03*
%TD*%
%TO.C,R14*%
X81000000Y-124325000D03*
X81000000Y-122675000D03*
%TD*%
D44*
%TO.C,D4*%
X105950000Y-146000000D03*
X104550000Y-146000000D03*
%TD*%
D37*
%TO.C,Q2*%
X90000000Y-144437500D03*
X90950000Y-142562500D03*
X89050000Y-142562500D03*
%TD*%
D10*
%TO.C,R13*%
X86000000Y-142925000D03*
X86000000Y-144575000D03*
%TD*%
D27*
%TO.C,C28*%
X71975000Y-120750000D03*
X73525000Y-120750000D03*
%TD*%
D24*
%TO.C,C32*%
X69500000Y-122725000D03*
X69500000Y-124275000D03*
%TD*%
D45*
%TO.C,D5*%
X105500000Y-126800000D03*
X105500000Y-128200000D03*
%TD*%
D39*
%TO.C,C30*%
X71500000Y-129650000D03*
X71500000Y-132350000D03*
%TD*%
M02*
