%TF.GenerationSoftware,KiCad,Pcbnew,7.0.10*%
%TF.CreationDate,2024-03-26T03:22:52+05:30*%
%TF.ProjectId,Echo Cinematic,4563686f-2043-4696-9e65-6d617469632e,rev?*%
%TF.SameCoordinates,Original*%
%TF.FileFunction,Legend,Top*%
%TF.FilePolarity,Positive*%
%FSLAX46Y46*%
G04 Gerber Fmt 4.6, Leading zero omitted, Abs format (unit mm)*
G04 Created by KiCad (PCBNEW 7.0.10) date 2024-03-26 03:22:52*
%MOMM*%
%LPD*%
G01*
G04 APERTURE LIST*
G04 Aperture macros list*
%AMRoundRect*
0 Rectangle with rounded corners*
0 $1 Rounding radius*
0 $2 $3 $4 $5 $6 $7 $8 $9 X,Y pos of 4 corners*
0 Add a 4 corners polygon primitive as box body*
4,1,4,$2,$3,$4,$5,$6,$7,$8,$9,$2,$3,0*
0 Add four circle primitives for the rounded corners*
1,1,$1+$1,$2,$3*
1,1,$1+$1,$4,$5*
1,1,$1+$1,$6,$7*
1,1,$1+$1,$8,$9*
0 Add four rect primitives between the rounded corners*
20,1,$1+$1,$2,$3,$4,$5,0*
20,1,$1+$1,$4,$5,$6,$7,0*
20,1,$1+$1,$6,$7,$8,$9,0*
20,1,$1+$1,$8,$9,$2,$3,0*%
G04 Aperture macros list end*
%ADD10C,0.300000*%
%ADD11C,0.150000*%
%ADD12C,0.120000*%
%ADD13O,1.300000X2.000000*%
%ADD14O,1.200000X2.200000*%
%ADD15O,1.300000X2.200000*%
%ADD16O,2.500000X3.800000*%
%ADD17C,1.800000*%
%ADD18C,2.000000*%
%ADD19R,1.800000X1.800000*%
%ADD20O,2.720000X3.240000*%
%ADD21O,3.500000X2.200000*%
%ADD22R,2.500000X1.500000*%
%ADD23O,2.500000X1.500000*%
%ADD24RoundRect,0.250000X0.600000X-0.600000X0.600000X0.600000X-0.600000X0.600000X-0.600000X-0.600000X0*%
%ADD25C,1.700000*%
G04 APERTURE END LIST*
D10*
X68547618Y-39862019D02*
X69214285Y-39862019D01*
X69499999Y-40909638D02*
X68547618Y-40909638D01*
X68547618Y-40909638D02*
X68547618Y-38909638D01*
X68547618Y-38909638D02*
X69499999Y-38909638D01*
X71499999Y-40719161D02*
X71404761Y-40814400D01*
X71404761Y-40814400D02*
X71119047Y-40909638D01*
X71119047Y-40909638D02*
X70928571Y-40909638D01*
X70928571Y-40909638D02*
X70642856Y-40814400D01*
X70642856Y-40814400D02*
X70452380Y-40623923D01*
X70452380Y-40623923D02*
X70357142Y-40433447D01*
X70357142Y-40433447D02*
X70261904Y-40052495D01*
X70261904Y-40052495D02*
X70261904Y-39766780D01*
X70261904Y-39766780D02*
X70357142Y-39385828D01*
X70357142Y-39385828D02*
X70452380Y-39195352D01*
X70452380Y-39195352D02*
X70642856Y-39004876D01*
X70642856Y-39004876D02*
X70928571Y-38909638D01*
X70928571Y-38909638D02*
X71119047Y-38909638D01*
X71119047Y-38909638D02*
X71404761Y-39004876D01*
X71404761Y-39004876D02*
X71499999Y-39100114D01*
X72357142Y-40909638D02*
X72357142Y-38909638D01*
X72357142Y-39862019D02*
X73499999Y-39862019D01*
X73499999Y-40909638D02*
X73499999Y-38909638D01*
X74833332Y-38909638D02*
X75214285Y-38909638D01*
X75214285Y-38909638D02*
X75404761Y-39004876D01*
X75404761Y-39004876D02*
X75595237Y-39195352D01*
X75595237Y-39195352D02*
X75690475Y-39576304D01*
X75690475Y-39576304D02*
X75690475Y-40242971D01*
X75690475Y-40242971D02*
X75595237Y-40623923D01*
X75595237Y-40623923D02*
X75404761Y-40814400D01*
X75404761Y-40814400D02*
X75214285Y-40909638D01*
X75214285Y-40909638D02*
X74833332Y-40909638D01*
X74833332Y-40909638D02*
X74642856Y-40814400D01*
X74642856Y-40814400D02*
X74452380Y-40623923D01*
X74452380Y-40623923D02*
X74357142Y-40242971D01*
X74357142Y-40242971D02*
X74357142Y-39576304D01*
X74357142Y-39576304D02*
X74452380Y-39195352D01*
X74452380Y-39195352D02*
X74642856Y-39004876D01*
X74642856Y-39004876D02*
X74833332Y-38909638D01*
X79214285Y-40719161D02*
X79119047Y-40814400D01*
X79119047Y-40814400D02*
X78833333Y-40909638D01*
X78833333Y-40909638D02*
X78642857Y-40909638D01*
X78642857Y-40909638D02*
X78357142Y-40814400D01*
X78357142Y-40814400D02*
X78166666Y-40623923D01*
X78166666Y-40623923D02*
X78071428Y-40433447D01*
X78071428Y-40433447D02*
X77976190Y-40052495D01*
X77976190Y-40052495D02*
X77976190Y-39766780D01*
X77976190Y-39766780D02*
X78071428Y-39385828D01*
X78071428Y-39385828D02*
X78166666Y-39195352D01*
X78166666Y-39195352D02*
X78357142Y-39004876D01*
X78357142Y-39004876D02*
X78642857Y-38909638D01*
X78642857Y-38909638D02*
X78833333Y-38909638D01*
X78833333Y-38909638D02*
X79119047Y-39004876D01*
X79119047Y-39004876D02*
X79214285Y-39100114D01*
X80071428Y-40909638D02*
X80071428Y-38909638D01*
X81023809Y-40909638D02*
X81023809Y-38909638D01*
X81023809Y-38909638D02*
X82166666Y-40909638D01*
X82166666Y-40909638D02*
X82166666Y-38909638D01*
X83119047Y-39862019D02*
X83785714Y-39862019D01*
X84071428Y-40909638D02*
X83119047Y-40909638D01*
X83119047Y-40909638D02*
X83119047Y-38909638D01*
X83119047Y-38909638D02*
X84071428Y-38909638D01*
X84928571Y-40909638D02*
X84928571Y-38909638D01*
X84928571Y-38909638D02*
X85595238Y-40338209D01*
X85595238Y-40338209D02*
X86261904Y-38909638D01*
X86261904Y-38909638D02*
X86261904Y-40909638D01*
X87119047Y-40338209D02*
X88071428Y-40338209D01*
X86928571Y-40909638D02*
X87595237Y-38909638D01*
X87595237Y-38909638D02*
X88261904Y-40909638D01*
X88642857Y-38909638D02*
X89785714Y-38909638D01*
X89214285Y-40909638D02*
X89214285Y-38909638D01*
X90452381Y-40909638D02*
X90452381Y-38909638D01*
X92547619Y-40719161D02*
X92452381Y-40814400D01*
X92452381Y-40814400D02*
X92166667Y-40909638D01*
X92166667Y-40909638D02*
X91976191Y-40909638D01*
X91976191Y-40909638D02*
X91690476Y-40814400D01*
X91690476Y-40814400D02*
X91500000Y-40623923D01*
X91500000Y-40623923D02*
X91404762Y-40433447D01*
X91404762Y-40433447D02*
X91309524Y-40052495D01*
X91309524Y-40052495D02*
X91309524Y-39766780D01*
X91309524Y-39766780D02*
X91404762Y-39385828D01*
X91404762Y-39385828D02*
X91500000Y-39195352D01*
X91500000Y-39195352D02*
X91690476Y-39004876D01*
X91690476Y-39004876D02*
X91976191Y-38909638D01*
X91976191Y-38909638D02*
X92166667Y-38909638D01*
X92166667Y-38909638D02*
X92452381Y-39004876D01*
X92452381Y-39004876D02*
X92547619Y-39100114D01*
D11*
X92078295Y-133924666D02*
X92649723Y-133924666D01*
X92649723Y-133924666D02*
X92764009Y-133962761D01*
X92764009Y-133962761D02*
X92840200Y-134038952D01*
X92840200Y-134038952D02*
X92878295Y-134153237D01*
X92878295Y-134153237D02*
X92878295Y-134229428D01*
X92154485Y-133581809D02*
X92116390Y-133543713D01*
X92116390Y-133543713D02*
X92078295Y-133467523D01*
X92078295Y-133467523D02*
X92078295Y-133277047D01*
X92078295Y-133277047D02*
X92116390Y-133200856D01*
X92116390Y-133200856D02*
X92154485Y-133162761D01*
X92154485Y-133162761D02*
X92230676Y-133124666D01*
X92230676Y-133124666D02*
X92306866Y-133124666D01*
X92306866Y-133124666D02*
X92421152Y-133162761D01*
X92421152Y-133162761D02*
X92878295Y-133619904D01*
X92878295Y-133619904D02*
X92878295Y-133124666D01*
X83654761Y-125204819D02*
X83654761Y-124204819D01*
X83654761Y-124204819D02*
X84035713Y-124204819D01*
X84035713Y-124204819D02*
X84130951Y-124252438D01*
X84130951Y-124252438D02*
X84178570Y-124300057D01*
X84178570Y-124300057D02*
X84226189Y-124395295D01*
X84226189Y-124395295D02*
X84226189Y-124538152D01*
X84226189Y-124538152D02*
X84178570Y-124633390D01*
X84178570Y-124633390D02*
X84130951Y-124681009D01*
X84130951Y-124681009D02*
X84035713Y-124728628D01*
X84035713Y-124728628D02*
X83654761Y-124728628D01*
X84797618Y-125204819D02*
X84702380Y-125157200D01*
X84702380Y-125157200D02*
X84654761Y-125061961D01*
X84654761Y-125061961D02*
X84654761Y-124204819D01*
X85607142Y-125204819D02*
X85607142Y-124681009D01*
X85607142Y-124681009D02*
X85559523Y-124585771D01*
X85559523Y-124585771D02*
X85464285Y-124538152D01*
X85464285Y-124538152D02*
X85273809Y-124538152D01*
X85273809Y-124538152D02*
X85178571Y-124585771D01*
X85607142Y-125157200D02*
X85511904Y-125204819D01*
X85511904Y-125204819D02*
X85273809Y-125204819D01*
X85273809Y-125204819D02*
X85178571Y-125157200D01*
X85178571Y-125157200D02*
X85130952Y-125061961D01*
X85130952Y-125061961D02*
X85130952Y-124966723D01*
X85130952Y-124966723D02*
X85178571Y-124871485D01*
X85178571Y-124871485D02*
X85273809Y-124823866D01*
X85273809Y-124823866D02*
X85511904Y-124823866D01*
X85511904Y-124823866D02*
X85607142Y-124776247D01*
X85988095Y-124538152D02*
X86226190Y-125204819D01*
X86464285Y-124538152D02*
X86226190Y-125204819D01*
X86226190Y-125204819D02*
X86130952Y-125442914D01*
X86130952Y-125442914D02*
X86083333Y-125490533D01*
X86083333Y-125490533D02*
X85988095Y-125538152D01*
X87892857Y-124728628D02*
X87892857Y-124919104D01*
X87940476Y-124919104D02*
X87940476Y-124728628D01*
X87988095Y-124681009D02*
X87988095Y-124966723D01*
X88035714Y-124919104D02*
X88035714Y-124728628D01*
X88083333Y-124728628D02*
X88083333Y-124919104D01*
X87892857Y-124871485D02*
X87988095Y-124966723D01*
X87988095Y-124966723D02*
X88083333Y-124871485D01*
X87892857Y-124776247D02*
X87988095Y-124681009D01*
X87988095Y-124681009D02*
X88083333Y-124776247D01*
X87892857Y-124728628D02*
X87988095Y-124681009D01*
X87988095Y-124681009D02*
X88083333Y-124728628D01*
X88083333Y-124728628D02*
X88130952Y-124823866D01*
X88130952Y-124823866D02*
X88083333Y-124919104D01*
X88083333Y-124919104D02*
X87988095Y-124966723D01*
X87988095Y-124966723D02*
X87892857Y-124919104D01*
X87892857Y-124919104D02*
X87845238Y-124823866D01*
X87845238Y-124823866D02*
X87892857Y-124728628D01*
X90178571Y-125204819D02*
X89845238Y-124728628D01*
X89607143Y-125204819D02*
X89607143Y-124204819D01*
X89607143Y-124204819D02*
X89988095Y-124204819D01*
X89988095Y-124204819D02*
X90083333Y-124252438D01*
X90083333Y-124252438D02*
X90130952Y-124300057D01*
X90130952Y-124300057D02*
X90178571Y-124395295D01*
X90178571Y-124395295D02*
X90178571Y-124538152D01*
X90178571Y-124538152D02*
X90130952Y-124633390D01*
X90130952Y-124633390D02*
X90083333Y-124681009D01*
X90083333Y-124681009D02*
X89988095Y-124728628D01*
X89988095Y-124728628D02*
X89607143Y-124728628D01*
X90988095Y-125157200D02*
X90892857Y-125204819D01*
X90892857Y-125204819D02*
X90702381Y-125204819D01*
X90702381Y-125204819D02*
X90607143Y-125157200D01*
X90607143Y-125157200D02*
X90559524Y-125061961D01*
X90559524Y-125061961D02*
X90559524Y-124681009D01*
X90559524Y-124681009D02*
X90607143Y-124585771D01*
X90607143Y-124585771D02*
X90702381Y-124538152D01*
X90702381Y-124538152D02*
X90892857Y-124538152D01*
X90892857Y-124538152D02*
X90988095Y-124585771D01*
X90988095Y-124585771D02*
X91035714Y-124681009D01*
X91035714Y-124681009D02*
X91035714Y-124776247D01*
X91035714Y-124776247D02*
X90559524Y-124871485D01*
X91892857Y-125157200D02*
X91797619Y-125204819D01*
X91797619Y-125204819D02*
X91607143Y-125204819D01*
X91607143Y-125204819D02*
X91511905Y-125157200D01*
X91511905Y-125157200D02*
X91464286Y-125109580D01*
X91464286Y-125109580D02*
X91416667Y-125014342D01*
X91416667Y-125014342D02*
X91416667Y-124728628D01*
X91416667Y-124728628D02*
X91464286Y-124633390D01*
X91464286Y-124633390D02*
X91511905Y-124585771D01*
X91511905Y-124585771D02*
X91607143Y-124538152D01*
X91607143Y-124538152D02*
X91797619Y-124538152D01*
X91797619Y-124538152D02*
X91892857Y-124585771D01*
X119114295Y-134068666D02*
X119685723Y-134068666D01*
X119685723Y-134068666D02*
X119800009Y-134106761D01*
X119800009Y-134106761D02*
X119876200Y-134182952D01*
X119876200Y-134182952D02*
X119914295Y-134297237D01*
X119914295Y-134297237D02*
X119914295Y-134373428D01*
X119114295Y-133306761D02*
X119114295Y-133687713D01*
X119114295Y-133687713D02*
X119495247Y-133725809D01*
X119495247Y-133725809D02*
X119457152Y-133687713D01*
X119457152Y-133687713D02*
X119419057Y-133611523D01*
X119419057Y-133611523D02*
X119419057Y-133421047D01*
X119419057Y-133421047D02*
X119457152Y-133344856D01*
X119457152Y-133344856D02*
X119495247Y-133306761D01*
X119495247Y-133306761D02*
X119571438Y-133268666D01*
X119571438Y-133268666D02*
X119761914Y-133268666D01*
X119761914Y-133268666D02*
X119838104Y-133306761D01*
X119838104Y-133306761D02*
X119876200Y-133344856D01*
X119876200Y-133344856D02*
X119914295Y-133421047D01*
X119914295Y-133421047D02*
X119914295Y-133611523D01*
X119914295Y-133611523D02*
X119876200Y-133687713D01*
X119876200Y-133687713D02*
X119838104Y-133725809D01*
X111630952Y-125169104D02*
X112107142Y-125169104D01*
X111535714Y-125454819D02*
X111869047Y-124454819D01*
X111869047Y-124454819D02*
X112202380Y-125454819D01*
X112535714Y-124454819D02*
X112535714Y-125264342D01*
X112535714Y-125264342D02*
X112583333Y-125359580D01*
X112583333Y-125359580D02*
X112630952Y-125407200D01*
X112630952Y-125407200D02*
X112726190Y-125454819D01*
X112726190Y-125454819D02*
X112916666Y-125454819D01*
X112916666Y-125454819D02*
X113011904Y-125407200D01*
X113011904Y-125407200D02*
X113059523Y-125359580D01*
X113059523Y-125359580D02*
X113107142Y-125264342D01*
X113107142Y-125264342D02*
X113107142Y-124454819D01*
X113583333Y-125454819D02*
X113583333Y-124454819D01*
X113583333Y-124454819D02*
X113821428Y-124454819D01*
X113821428Y-124454819D02*
X113964285Y-124502438D01*
X113964285Y-124502438D02*
X114059523Y-124597676D01*
X114059523Y-124597676D02*
X114107142Y-124692914D01*
X114107142Y-124692914D02*
X114154761Y-124883390D01*
X114154761Y-124883390D02*
X114154761Y-125026247D01*
X114154761Y-125026247D02*
X114107142Y-125216723D01*
X114107142Y-125216723D02*
X114059523Y-125311961D01*
X114059523Y-125311961D02*
X113964285Y-125407200D01*
X113964285Y-125407200D02*
X113821428Y-125454819D01*
X113821428Y-125454819D02*
X113583333Y-125454819D01*
X114583333Y-125454819D02*
X114583333Y-124454819D01*
X115249999Y-124454819D02*
X115440475Y-124454819D01*
X115440475Y-124454819D02*
X115535713Y-124502438D01*
X115535713Y-124502438D02*
X115630951Y-124597676D01*
X115630951Y-124597676D02*
X115678570Y-124788152D01*
X115678570Y-124788152D02*
X115678570Y-125121485D01*
X115678570Y-125121485D02*
X115630951Y-125311961D01*
X115630951Y-125311961D02*
X115535713Y-125407200D01*
X115535713Y-125407200D02*
X115440475Y-125454819D01*
X115440475Y-125454819D02*
X115249999Y-125454819D01*
X115249999Y-125454819D02*
X115154761Y-125407200D01*
X115154761Y-125407200D02*
X115059523Y-125311961D01*
X115059523Y-125311961D02*
X115011904Y-125121485D01*
X115011904Y-125121485D02*
X115011904Y-124788152D01*
X115011904Y-124788152D02*
X115059523Y-124597676D01*
X115059523Y-124597676D02*
X115154761Y-124502438D01*
X115154761Y-124502438D02*
X115249999Y-124454819D01*
X117059523Y-124454819D02*
X117249999Y-124454819D01*
X117249999Y-124454819D02*
X117345237Y-124502438D01*
X117345237Y-124502438D02*
X117440475Y-124597676D01*
X117440475Y-124597676D02*
X117488094Y-124788152D01*
X117488094Y-124788152D02*
X117488094Y-125121485D01*
X117488094Y-125121485D02*
X117440475Y-125311961D01*
X117440475Y-125311961D02*
X117345237Y-125407200D01*
X117345237Y-125407200D02*
X117249999Y-125454819D01*
X117249999Y-125454819D02*
X117059523Y-125454819D01*
X117059523Y-125454819D02*
X116964285Y-125407200D01*
X116964285Y-125407200D02*
X116869047Y-125311961D01*
X116869047Y-125311961D02*
X116821428Y-125121485D01*
X116821428Y-125121485D02*
X116821428Y-124788152D01*
X116821428Y-124788152D02*
X116869047Y-124597676D01*
X116869047Y-124597676D02*
X116964285Y-124502438D01*
X116964285Y-124502438D02*
X117059523Y-124454819D01*
X117916666Y-124454819D02*
X117916666Y-125264342D01*
X117916666Y-125264342D02*
X117964285Y-125359580D01*
X117964285Y-125359580D02*
X118011904Y-125407200D01*
X118011904Y-125407200D02*
X118107142Y-125454819D01*
X118107142Y-125454819D02*
X118297618Y-125454819D01*
X118297618Y-125454819D02*
X118392856Y-125407200D01*
X118392856Y-125407200D02*
X118440475Y-125359580D01*
X118440475Y-125359580D02*
X118488094Y-125264342D01*
X118488094Y-125264342D02*
X118488094Y-124454819D01*
X118821428Y-124454819D02*
X119392856Y-124454819D01*
X119107142Y-125454819D02*
X119107142Y-124454819D01*
X120964285Y-125454819D02*
X120488095Y-125454819D01*
X120488095Y-125454819D02*
X120488095Y-124454819D01*
X110986295Y-145766666D02*
X111557723Y-145766666D01*
X111557723Y-145766666D02*
X111672009Y-145804761D01*
X111672009Y-145804761D02*
X111748200Y-145880952D01*
X111748200Y-145880952D02*
X111786295Y-145995237D01*
X111786295Y-145995237D02*
X111786295Y-146071428D01*
X110986295Y-145042856D02*
X110986295Y-145195237D01*
X110986295Y-145195237D02*
X111024390Y-145271428D01*
X111024390Y-145271428D02*
X111062485Y-145309523D01*
X111062485Y-145309523D02*
X111176771Y-145385713D01*
X111176771Y-145385713D02*
X111329152Y-145423809D01*
X111329152Y-145423809D02*
X111633914Y-145423809D01*
X111633914Y-145423809D02*
X111710104Y-145385713D01*
X111710104Y-145385713D02*
X111748200Y-145347618D01*
X111748200Y-145347618D02*
X111786295Y-145271428D01*
X111786295Y-145271428D02*
X111786295Y-145119047D01*
X111786295Y-145119047D02*
X111748200Y-145042856D01*
X111748200Y-145042856D02*
X111710104Y-145004761D01*
X111710104Y-145004761D02*
X111633914Y-144966666D01*
X111633914Y-144966666D02*
X111443438Y-144966666D01*
X111443438Y-144966666D02*
X111367247Y-145004761D01*
X111367247Y-145004761D02*
X111329152Y-145042856D01*
X111329152Y-145042856D02*
X111291057Y-145119047D01*
X111291057Y-145119047D02*
X111291057Y-145271428D01*
X111291057Y-145271428D02*
X111329152Y-145347618D01*
X111329152Y-145347618D02*
X111367247Y-145385713D01*
X111367247Y-145385713D02*
X111443438Y-145423809D01*
X111535714Y-136856504D02*
X112011904Y-136856504D01*
X111440476Y-137142219D02*
X111773809Y-136142219D01*
X111773809Y-136142219D02*
X112107142Y-137142219D01*
X112440476Y-136142219D02*
X112440476Y-136951742D01*
X112440476Y-136951742D02*
X112488095Y-137046980D01*
X112488095Y-137046980D02*
X112535714Y-137094600D01*
X112535714Y-137094600D02*
X112630952Y-137142219D01*
X112630952Y-137142219D02*
X112821428Y-137142219D01*
X112821428Y-137142219D02*
X112916666Y-137094600D01*
X112916666Y-137094600D02*
X112964285Y-137046980D01*
X112964285Y-137046980D02*
X113011904Y-136951742D01*
X113011904Y-136951742D02*
X113011904Y-136142219D01*
X113488095Y-137142219D02*
X113488095Y-136142219D01*
X113488095Y-136142219D02*
X113726190Y-136142219D01*
X113726190Y-136142219D02*
X113869047Y-136189838D01*
X113869047Y-136189838D02*
X113964285Y-136285076D01*
X113964285Y-136285076D02*
X114011904Y-136380314D01*
X114011904Y-136380314D02*
X114059523Y-136570790D01*
X114059523Y-136570790D02*
X114059523Y-136713647D01*
X114059523Y-136713647D02*
X114011904Y-136904123D01*
X114011904Y-136904123D02*
X113964285Y-136999361D01*
X113964285Y-136999361D02*
X113869047Y-137094600D01*
X113869047Y-137094600D02*
X113726190Y-137142219D01*
X113726190Y-137142219D02*
X113488095Y-137142219D01*
X114488095Y-137142219D02*
X114488095Y-136142219D01*
X115154761Y-136142219D02*
X115345237Y-136142219D01*
X115345237Y-136142219D02*
X115440475Y-136189838D01*
X115440475Y-136189838D02*
X115535713Y-136285076D01*
X115535713Y-136285076D02*
X115583332Y-136475552D01*
X115583332Y-136475552D02*
X115583332Y-136808885D01*
X115583332Y-136808885D02*
X115535713Y-136999361D01*
X115535713Y-136999361D02*
X115440475Y-137094600D01*
X115440475Y-137094600D02*
X115345237Y-137142219D01*
X115345237Y-137142219D02*
X115154761Y-137142219D01*
X115154761Y-137142219D02*
X115059523Y-137094600D01*
X115059523Y-137094600D02*
X114964285Y-136999361D01*
X114964285Y-136999361D02*
X114916666Y-136808885D01*
X114916666Y-136808885D02*
X114916666Y-136475552D01*
X114916666Y-136475552D02*
X114964285Y-136285076D01*
X114964285Y-136285076D02*
X115059523Y-136189838D01*
X115059523Y-136189838D02*
X115154761Y-136142219D01*
X116964285Y-136142219D02*
X117154761Y-136142219D01*
X117154761Y-136142219D02*
X117249999Y-136189838D01*
X117249999Y-136189838D02*
X117345237Y-136285076D01*
X117345237Y-136285076D02*
X117392856Y-136475552D01*
X117392856Y-136475552D02*
X117392856Y-136808885D01*
X117392856Y-136808885D02*
X117345237Y-136999361D01*
X117345237Y-136999361D02*
X117249999Y-137094600D01*
X117249999Y-137094600D02*
X117154761Y-137142219D01*
X117154761Y-137142219D02*
X116964285Y-137142219D01*
X116964285Y-137142219D02*
X116869047Y-137094600D01*
X116869047Y-137094600D02*
X116773809Y-136999361D01*
X116773809Y-136999361D02*
X116726190Y-136808885D01*
X116726190Y-136808885D02*
X116726190Y-136475552D01*
X116726190Y-136475552D02*
X116773809Y-136285076D01*
X116773809Y-136285076D02*
X116869047Y-136189838D01*
X116869047Y-136189838D02*
X116964285Y-136142219D01*
X117821428Y-136142219D02*
X117821428Y-136951742D01*
X117821428Y-136951742D02*
X117869047Y-137046980D01*
X117869047Y-137046980D02*
X117916666Y-137094600D01*
X117916666Y-137094600D02*
X118011904Y-137142219D01*
X118011904Y-137142219D02*
X118202380Y-137142219D01*
X118202380Y-137142219D02*
X118297618Y-137094600D01*
X118297618Y-137094600D02*
X118345237Y-137046980D01*
X118345237Y-137046980D02*
X118392856Y-136951742D01*
X118392856Y-136951742D02*
X118392856Y-136142219D01*
X118726190Y-136142219D02*
X119297618Y-136142219D01*
X119011904Y-137142219D02*
X119011904Y-136142219D01*
X120964285Y-137142219D02*
X120630952Y-136666028D01*
X120392857Y-137142219D02*
X120392857Y-136142219D01*
X120392857Y-136142219D02*
X120773809Y-136142219D01*
X120773809Y-136142219D02*
X120869047Y-136189838D01*
X120869047Y-136189838D02*
X120916666Y-136237457D01*
X120916666Y-136237457D02*
X120964285Y-136332695D01*
X120964285Y-136332695D02*
X120964285Y-136475552D01*
X120964285Y-136475552D02*
X120916666Y-136570790D01*
X120916666Y-136570790D02*
X120869047Y-136618409D01*
X120869047Y-136618409D02*
X120773809Y-136666028D01*
X120773809Y-136666028D02*
X120392857Y-136666028D01*
X110463810Y-80896295D02*
X110197143Y-80515342D01*
X110006667Y-80896295D02*
X110006667Y-80096295D01*
X110006667Y-80096295D02*
X110311429Y-80096295D01*
X110311429Y-80096295D02*
X110387619Y-80134390D01*
X110387619Y-80134390D02*
X110425714Y-80172485D01*
X110425714Y-80172485D02*
X110463810Y-80248676D01*
X110463810Y-80248676D02*
X110463810Y-80362961D01*
X110463810Y-80362961D02*
X110425714Y-80439152D01*
X110425714Y-80439152D02*
X110387619Y-80477247D01*
X110387619Y-80477247D02*
X110311429Y-80515342D01*
X110311429Y-80515342D02*
X110006667Y-80515342D01*
X110692381Y-80096295D02*
X110959048Y-80896295D01*
X110959048Y-80896295D02*
X111225714Y-80096295D01*
X111835238Y-80362961D02*
X111835238Y-80896295D01*
X111644762Y-80058200D02*
X111454285Y-80629628D01*
X111454285Y-80629628D02*
X111949524Y-80629628D01*
X109524295Y-74060189D02*
X109143342Y-74326856D01*
X109524295Y-74517332D02*
X108724295Y-74517332D01*
X108724295Y-74517332D02*
X108724295Y-74212570D01*
X108724295Y-74212570D02*
X108762390Y-74136380D01*
X108762390Y-74136380D02*
X108800485Y-74098285D01*
X108800485Y-74098285D02*
X108876676Y-74060189D01*
X108876676Y-74060189D02*
X108990961Y-74060189D01*
X108990961Y-74060189D02*
X109067152Y-74098285D01*
X109067152Y-74098285D02*
X109105247Y-74136380D01*
X109105247Y-74136380D02*
X109143342Y-74212570D01*
X109143342Y-74212570D02*
X109143342Y-74517332D01*
X108724295Y-73831618D02*
X109524295Y-73564951D01*
X109524295Y-73564951D02*
X108724295Y-73298285D01*
X108800485Y-73069714D02*
X108762390Y-73031618D01*
X108762390Y-73031618D02*
X108724295Y-72955428D01*
X108724295Y-72955428D02*
X108724295Y-72764952D01*
X108724295Y-72764952D02*
X108762390Y-72688761D01*
X108762390Y-72688761D02*
X108800485Y-72650666D01*
X108800485Y-72650666D02*
X108876676Y-72612571D01*
X108876676Y-72612571D02*
X108952866Y-72612571D01*
X108952866Y-72612571D02*
X109067152Y-72650666D01*
X109067152Y-72650666D02*
X109524295Y-73107809D01*
X109524295Y-73107809D02*
X109524295Y-72612571D01*
X72773810Y-96762295D02*
X72507143Y-96381342D01*
X72316667Y-96762295D02*
X72316667Y-95962295D01*
X72316667Y-95962295D02*
X72621429Y-95962295D01*
X72621429Y-95962295D02*
X72697619Y-96000390D01*
X72697619Y-96000390D02*
X72735714Y-96038485D01*
X72735714Y-96038485D02*
X72773810Y-96114676D01*
X72773810Y-96114676D02*
X72773810Y-96228961D01*
X72773810Y-96228961D02*
X72735714Y-96305152D01*
X72735714Y-96305152D02*
X72697619Y-96343247D01*
X72697619Y-96343247D02*
X72621429Y-96381342D01*
X72621429Y-96381342D02*
X72316667Y-96381342D01*
X73002381Y-95962295D02*
X73269048Y-96762295D01*
X73269048Y-96762295D02*
X73535714Y-95962295D01*
X74183333Y-95962295D02*
X73802381Y-95962295D01*
X73802381Y-95962295D02*
X73764285Y-96343247D01*
X73764285Y-96343247D02*
X73802381Y-96305152D01*
X73802381Y-96305152D02*
X73878571Y-96267057D01*
X73878571Y-96267057D02*
X74069047Y-96267057D01*
X74069047Y-96267057D02*
X74145238Y-96305152D01*
X74145238Y-96305152D02*
X74183333Y-96343247D01*
X74183333Y-96343247D02*
X74221428Y-96419438D01*
X74221428Y-96419438D02*
X74221428Y-96609914D01*
X74221428Y-96609914D02*
X74183333Y-96686104D01*
X74183333Y-96686104D02*
X74145238Y-96724200D01*
X74145238Y-96724200D02*
X74069047Y-96762295D01*
X74069047Y-96762295D02*
X73878571Y-96762295D01*
X73878571Y-96762295D02*
X73802381Y-96724200D01*
X73802381Y-96724200D02*
X73764285Y-96686104D01*
X72823810Y-61812295D02*
X72557143Y-61431342D01*
X72366667Y-61812295D02*
X72366667Y-61012295D01*
X72366667Y-61012295D02*
X72671429Y-61012295D01*
X72671429Y-61012295D02*
X72747619Y-61050390D01*
X72747619Y-61050390D02*
X72785714Y-61088485D01*
X72785714Y-61088485D02*
X72823810Y-61164676D01*
X72823810Y-61164676D02*
X72823810Y-61278961D01*
X72823810Y-61278961D02*
X72785714Y-61355152D01*
X72785714Y-61355152D02*
X72747619Y-61393247D01*
X72747619Y-61393247D02*
X72671429Y-61431342D01*
X72671429Y-61431342D02*
X72366667Y-61431342D01*
X73052381Y-61012295D02*
X73319048Y-61812295D01*
X73319048Y-61812295D02*
X73585714Y-61012295D01*
X74195238Y-61012295D02*
X74042857Y-61012295D01*
X74042857Y-61012295D02*
X73966666Y-61050390D01*
X73966666Y-61050390D02*
X73928571Y-61088485D01*
X73928571Y-61088485D02*
X73852381Y-61202771D01*
X73852381Y-61202771D02*
X73814285Y-61355152D01*
X73814285Y-61355152D02*
X73814285Y-61659914D01*
X73814285Y-61659914D02*
X73852381Y-61736104D01*
X73852381Y-61736104D02*
X73890476Y-61774200D01*
X73890476Y-61774200D02*
X73966666Y-61812295D01*
X73966666Y-61812295D02*
X74119047Y-61812295D01*
X74119047Y-61812295D02*
X74195238Y-61774200D01*
X74195238Y-61774200D02*
X74233333Y-61736104D01*
X74233333Y-61736104D02*
X74271428Y-61659914D01*
X74271428Y-61659914D02*
X74271428Y-61469438D01*
X74271428Y-61469438D02*
X74233333Y-61393247D01*
X74233333Y-61393247D02*
X74195238Y-61355152D01*
X74195238Y-61355152D02*
X74119047Y-61317057D01*
X74119047Y-61317057D02*
X73966666Y-61317057D01*
X73966666Y-61317057D02*
X73890476Y-61355152D01*
X73890476Y-61355152D02*
X73852381Y-61393247D01*
X73852381Y-61393247D02*
X73814285Y-61469438D01*
X72823810Y-80312295D02*
X72557143Y-79931342D01*
X72366667Y-80312295D02*
X72366667Y-79512295D01*
X72366667Y-79512295D02*
X72671429Y-79512295D01*
X72671429Y-79512295D02*
X72747619Y-79550390D01*
X72747619Y-79550390D02*
X72785714Y-79588485D01*
X72785714Y-79588485D02*
X72823810Y-79664676D01*
X72823810Y-79664676D02*
X72823810Y-79778961D01*
X72823810Y-79778961D02*
X72785714Y-79855152D01*
X72785714Y-79855152D02*
X72747619Y-79893247D01*
X72747619Y-79893247D02*
X72671429Y-79931342D01*
X72671429Y-79931342D02*
X72366667Y-79931342D01*
X73052381Y-79512295D02*
X73319048Y-80312295D01*
X73319048Y-80312295D02*
X73585714Y-79512295D01*
X73776190Y-79512295D02*
X74309524Y-79512295D01*
X74309524Y-79512295D02*
X73966666Y-80312295D01*
X114323810Y-96312295D02*
X114057143Y-95931342D01*
X113866667Y-96312295D02*
X113866667Y-95512295D01*
X113866667Y-95512295D02*
X114171429Y-95512295D01*
X114171429Y-95512295D02*
X114247619Y-95550390D01*
X114247619Y-95550390D02*
X114285714Y-95588485D01*
X114285714Y-95588485D02*
X114323810Y-95664676D01*
X114323810Y-95664676D02*
X114323810Y-95778961D01*
X114323810Y-95778961D02*
X114285714Y-95855152D01*
X114285714Y-95855152D02*
X114247619Y-95893247D01*
X114247619Y-95893247D02*
X114171429Y-95931342D01*
X114171429Y-95931342D02*
X113866667Y-95931342D01*
X114552381Y-95512295D02*
X114819048Y-96312295D01*
X114819048Y-96312295D02*
X115085714Y-95512295D01*
X115466666Y-95855152D02*
X115390476Y-95817057D01*
X115390476Y-95817057D02*
X115352381Y-95778961D01*
X115352381Y-95778961D02*
X115314285Y-95702771D01*
X115314285Y-95702771D02*
X115314285Y-95664676D01*
X115314285Y-95664676D02*
X115352381Y-95588485D01*
X115352381Y-95588485D02*
X115390476Y-95550390D01*
X115390476Y-95550390D02*
X115466666Y-95512295D01*
X115466666Y-95512295D02*
X115619047Y-95512295D01*
X115619047Y-95512295D02*
X115695238Y-95550390D01*
X115695238Y-95550390D02*
X115733333Y-95588485D01*
X115733333Y-95588485D02*
X115771428Y-95664676D01*
X115771428Y-95664676D02*
X115771428Y-95702771D01*
X115771428Y-95702771D02*
X115733333Y-95778961D01*
X115733333Y-95778961D02*
X115695238Y-95817057D01*
X115695238Y-95817057D02*
X115619047Y-95855152D01*
X115619047Y-95855152D02*
X115466666Y-95855152D01*
X115466666Y-95855152D02*
X115390476Y-95893247D01*
X115390476Y-95893247D02*
X115352381Y-95931342D01*
X115352381Y-95931342D02*
X115314285Y-96007533D01*
X115314285Y-96007533D02*
X115314285Y-96159914D01*
X115314285Y-96159914D02*
X115352381Y-96236104D01*
X115352381Y-96236104D02*
X115390476Y-96274200D01*
X115390476Y-96274200D02*
X115466666Y-96312295D01*
X115466666Y-96312295D02*
X115619047Y-96312295D01*
X115619047Y-96312295D02*
X115695238Y-96274200D01*
X115695238Y-96274200D02*
X115733333Y-96236104D01*
X115733333Y-96236104D02*
X115771428Y-96159914D01*
X115771428Y-96159914D02*
X115771428Y-96007533D01*
X115771428Y-96007533D02*
X115733333Y-95931342D01*
X115733333Y-95931342D02*
X115695238Y-95893247D01*
X115695238Y-95893247D02*
X115619047Y-95855152D01*
X111203332Y-120714200D02*
X111317618Y-120752295D01*
X111317618Y-120752295D02*
X111508094Y-120752295D01*
X111508094Y-120752295D02*
X111584285Y-120714200D01*
X111584285Y-120714200D02*
X111622380Y-120676104D01*
X111622380Y-120676104D02*
X111660475Y-120599914D01*
X111660475Y-120599914D02*
X111660475Y-120523723D01*
X111660475Y-120523723D02*
X111622380Y-120447533D01*
X111622380Y-120447533D02*
X111584285Y-120409438D01*
X111584285Y-120409438D02*
X111508094Y-120371342D01*
X111508094Y-120371342D02*
X111355713Y-120333247D01*
X111355713Y-120333247D02*
X111279523Y-120295152D01*
X111279523Y-120295152D02*
X111241428Y-120257057D01*
X111241428Y-120257057D02*
X111203332Y-120180866D01*
X111203332Y-120180866D02*
X111203332Y-120104676D01*
X111203332Y-120104676D02*
X111241428Y-120028485D01*
X111241428Y-120028485D02*
X111279523Y-119990390D01*
X111279523Y-119990390D02*
X111355713Y-119952295D01*
X111355713Y-119952295D02*
X111546190Y-119952295D01*
X111546190Y-119952295D02*
X111660475Y-119990390D01*
X111927142Y-119952295D02*
X112117618Y-120752295D01*
X112117618Y-120752295D02*
X112269999Y-120180866D01*
X112269999Y-120180866D02*
X112422380Y-120752295D01*
X112422380Y-120752295D02*
X112612857Y-119952295D01*
X113336666Y-120752295D02*
X112879523Y-120752295D01*
X113108095Y-120752295D02*
X113108095Y-119952295D01*
X113108095Y-119952295D02*
X113031904Y-120066580D01*
X113031904Y-120066580D02*
X112955714Y-120142771D01*
X112955714Y-120142771D02*
X112879523Y-120180866D01*
X74726832Y-120716200D02*
X74841118Y-120754295D01*
X74841118Y-120754295D02*
X75031594Y-120754295D01*
X75031594Y-120754295D02*
X75107785Y-120716200D01*
X75107785Y-120716200D02*
X75145880Y-120678104D01*
X75145880Y-120678104D02*
X75183975Y-120601914D01*
X75183975Y-120601914D02*
X75183975Y-120525723D01*
X75183975Y-120525723D02*
X75145880Y-120449533D01*
X75145880Y-120449533D02*
X75107785Y-120411438D01*
X75107785Y-120411438D02*
X75031594Y-120373342D01*
X75031594Y-120373342D02*
X74879213Y-120335247D01*
X74879213Y-120335247D02*
X74803023Y-120297152D01*
X74803023Y-120297152D02*
X74764928Y-120259057D01*
X74764928Y-120259057D02*
X74726832Y-120182866D01*
X74726832Y-120182866D02*
X74726832Y-120106676D01*
X74726832Y-120106676D02*
X74764928Y-120030485D01*
X74764928Y-120030485D02*
X74803023Y-119992390D01*
X74803023Y-119992390D02*
X74879213Y-119954295D01*
X74879213Y-119954295D02*
X75069690Y-119954295D01*
X75069690Y-119954295D02*
X75183975Y-119992390D01*
X75450642Y-119954295D02*
X75641118Y-120754295D01*
X75641118Y-120754295D02*
X75793499Y-120182866D01*
X75793499Y-120182866D02*
X75945880Y-120754295D01*
X75945880Y-120754295D02*
X76136357Y-119954295D01*
X76403023Y-120030485D02*
X76441119Y-119992390D01*
X76441119Y-119992390D02*
X76517309Y-119954295D01*
X76517309Y-119954295D02*
X76707785Y-119954295D01*
X76707785Y-119954295D02*
X76783976Y-119992390D01*
X76783976Y-119992390D02*
X76822071Y-120030485D01*
X76822071Y-120030485D02*
X76860166Y-120106676D01*
X76860166Y-120106676D02*
X76860166Y-120182866D01*
X76860166Y-120182866D02*
X76822071Y-120297152D01*
X76822071Y-120297152D02*
X76364928Y-120754295D01*
X76364928Y-120754295D02*
X76860166Y-120754295D01*
X88612295Y-78226189D02*
X88231342Y-78492856D01*
X88612295Y-78683332D02*
X87812295Y-78683332D01*
X87812295Y-78683332D02*
X87812295Y-78378570D01*
X87812295Y-78378570D02*
X87850390Y-78302380D01*
X87850390Y-78302380D02*
X87888485Y-78264285D01*
X87888485Y-78264285D02*
X87964676Y-78226189D01*
X87964676Y-78226189D02*
X88078961Y-78226189D01*
X88078961Y-78226189D02*
X88155152Y-78264285D01*
X88155152Y-78264285D02*
X88193247Y-78302380D01*
X88193247Y-78302380D02*
X88231342Y-78378570D01*
X88231342Y-78378570D02*
X88231342Y-78683332D01*
X87812295Y-77997618D02*
X88612295Y-77730951D01*
X88612295Y-77730951D02*
X87812295Y-77464285D01*
X87812295Y-77273809D02*
X87812295Y-76778571D01*
X87812295Y-76778571D02*
X88117057Y-77045237D01*
X88117057Y-77045237D02*
X88117057Y-76930952D01*
X88117057Y-76930952D02*
X88155152Y-76854761D01*
X88155152Y-76854761D02*
X88193247Y-76816666D01*
X88193247Y-76816666D02*
X88269438Y-76778571D01*
X88269438Y-76778571D02*
X88459914Y-76778571D01*
X88459914Y-76778571D02*
X88536104Y-76816666D01*
X88536104Y-76816666D02*
X88574200Y-76854761D01*
X88574200Y-76854761D02*
X88612295Y-76930952D01*
X88612295Y-76930952D02*
X88612295Y-77159523D01*
X88612295Y-77159523D02*
X88574200Y-77235714D01*
X88574200Y-77235714D02*
X88536104Y-77273809D01*
X79406295Y-55428189D02*
X79025342Y-55694856D01*
X79406295Y-55885332D02*
X78606295Y-55885332D01*
X78606295Y-55885332D02*
X78606295Y-55580570D01*
X78606295Y-55580570D02*
X78644390Y-55504380D01*
X78644390Y-55504380D02*
X78682485Y-55466285D01*
X78682485Y-55466285D02*
X78758676Y-55428189D01*
X78758676Y-55428189D02*
X78872961Y-55428189D01*
X78872961Y-55428189D02*
X78949152Y-55466285D01*
X78949152Y-55466285D02*
X78987247Y-55504380D01*
X78987247Y-55504380D02*
X79025342Y-55580570D01*
X79025342Y-55580570D02*
X79025342Y-55885332D01*
X78606295Y-55199618D02*
X79406295Y-54932951D01*
X79406295Y-54932951D02*
X78606295Y-54666285D01*
X79406295Y-53980571D02*
X79406295Y-54437714D01*
X79406295Y-54209142D02*
X78606295Y-54209142D01*
X78606295Y-54209142D02*
X78720580Y-54285333D01*
X78720580Y-54285333D02*
X78796771Y-54361523D01*
X78796771Y-54361523D02*
X78834866Y-54437714D01*
X102983333Y-126312295D02*
X102983333Y-126883723D01*
X102983333Y-126883723D02*
X102945238Y-126998009D01*
X102945238Y-126998009D02*
X102869047Y-127074200D01*
X102869047Y-127074200D02*
X102754762Y-127112295D01*
X102754762Y-127112295D02*
X102678571Y-127112295D01*
X103288095Y-126312295D02*
X103821429Y-126312295D01*
X103821429Y-126312295D02*
X103478571Y-127112295D01*
X99571428Y-125109580D02*
X99523809Y-125157200D01*
X99523809Y-125157200D02*
X99380952Y-125204819D01*
X99380952Y-125204819D02*
X99285714Y-125204819D01*
X99285714Y-125204819D02*
X99142857Y-125157200D01*
X99142857Y-125157200D02*
X99047619Y-125061961D01*
X99047619Y-125061961D02*
X99000000Y-124966723D01*
X99000000Y-124966723D02*
X98952381Y-124776247D01*
X98952381Y-124776247D02*
X98952381Y-124633390D01*
X98952381Y-124633390D02*
X99000000Y-124442914D01*
X99000000Y-124442914D02*
X99047619Y-124347676D01*
X99047619Y-124347676D02*
X99142857Y-124252438D01*
X99142857Y-124252438D02*
X99285714Y-124204819D01*
X99285714Y-124204819D02*
X99380952Y-124204819D01*
X99380952Y-124204819D02*
X99523809Y-124252438D01*
X99523809Y-124252438D02*
X99571428Y-124300057D01*
X99857143Y-124204819D02*
X100190476Y-125204819D01*
X100190476Y-125204819D02*
X100523809Y-124204819D01*
X101571429Y-124919104D02*
X102047619Y-124919104D01*
X101476191Y-125204819D02*
X101809524Y-124204819D01*
X101809524Y-124204819D02*
X102142857Y-125204819D01*
X102983333Y-137812295D02*
X102983333Y-138383723D01*
X102983333Y-138383723D02*
X102945238Y-138498009D01*
X102945238Y-138498009D02*
X102869047Y-138574200D01*
X102869047Y-138574200D02*
X102754762Y-138612295D01*
X102754762Y-138612295D02*
X102678571Y-138612295D01*
X103402381Y-138612295D02*
X103554762Y-138612295D01*
X103554762Y-138612295D02*
X103630952Y-138574200D01*
X103630952Y-138574200D02*
X103669048Y-138536104D01*
X103669048Y-138536104D02*
X103745238Y-138421819D01*
X103745238Y-138421819D02*
X103783333Y-138269438D01*
X103783333Y-138269438D02*
X103783333Y-137964676D01*
X103783333Y-137964676D02*
X103745238Y-137888485D01*
X103745238Y-137888485D02*
X103707143Y-137850390D01*
X103707143Y-137850390D02*
X103630952Y-137812295D01*
X103630952Y-137812295D02*
X103478571Y-137812295D01*
X103478571Y-137812295D02*
X103402381Y-137850390D01*
X103402381Y-137850390D02*
X103364286Y-137888485D01*
X103364286Y-137888485D02*
X103326190Y-137964676D01*
X103326190Y-137964676D02*
X103326190Y-138155152D01*
X103326190Y-138155152D02*
X103364286Y-138231342D01*
X103364286Y-138231342D02*
X103402381Y-138269438D01*
X103402381Y-138269438D02*
X103478571Y-138307533D01*
X103478571Y-138307533D02*
X103630952Y-138307533D01*
X103630952Y-138307533D02*
X103707143Y-138269438D01*
X103707143Y-138269438D02*
X103745238Y-138231342D01*
X103745238Y-138231342D02*
X103783333Y-138155152D01*
X99249999Y-136859580D02*
X99202380Y-136907200D01*
X99202380Y-136907200D02*
X99059523Y-136954819D01*
X99059523Y-136954819D02*
X98964285Y-136954819D01*
X98964285Y-136954819D02*
X98821428Y-136907200D01*
X98821428Y-136907200D02*
X98726190Y-136811961D01*
X98726190Y-136811961D02*
X98678571Y-136716723D01*
X98678571Y-136716723D02*
X98630952Y-136526247D01*
X98630952Y-136526247D02*
X98630952Y-136383390D01*
X98630952Y-136383390D02*
X98678571Y-136192914D01*
X98678571Y-136192914D02*
X98726190Y-136097676D01*
X98726190Y-136097676D02*
X98821428Y-136002438D01*
X98821428Y-136002438D02*
X98964285Y-135954819D01*
X98964285Y-135954819D02*
X99059523Y-135954819D01*
X99059523Y-135954819D02*
X99202380Y-136002438D01*
X99202380Y-136002438D02*
X99249999Y-136050057D01*
X99535714Y-135954819D02*
X99869047Y-136954819D01*
X99869047Y-136954819D02*
X100202380Y-135954819D01*
X101630952Y-136431009D02*
X101773809Y-136478628D01*
X101773809Y-136478628D02*
X101821428Y-136526247D01*
X101821428Y-136526247D02*
X101869047Y-136621485D01*
X101869047Y-136621485D02*
X101869047Y-136764342D01*
X101869047Y-136764342D02*
X101821428Y-136859580D01*
X101821428Y-136859580D02*
X101773809Y-136907200D01*
X101773809Y-136907200D02*
X101678571Y-136954819D01*
X101678571Y-136954819D02*
X101297619Y-136954819D01*
X101297619Y-136954819D02*
X101297619Y-135954819D01*
X101297619Y-135954819D02*
X101630952Y-135954819D01*
X101630952Y-135954819D02*
X101726190Y-136002438D01*
X101726190Y-136002438D02*
X101773809Y-136050057D01*
X101773809Y-136050057D02*
X101821428Y-136145295D01*
X101821428Y-136145295D02*
X101821428Y-136240533D01*
X101821428Y-136240533D02*
X101773809Y-136335771D01*
X101773809Y-136335771D02*
X101726190Y-136383390D01*
X101726190Y-136383390D02*
X101630952Y-136431009D01*
X101630952Y-136431009D02*
X101297619Y-136431009D01*
X76562295Y-134016666D02*
X77133723Y-134016666D01*
X77133723Y-134016666D02*
X77248009Y-134054761D01*
X77248009Y-134054761D02*
X77324200Y-134130952D01*
X77324200Y-134130952D02*
X77362295Y-134245237D01*
X77362295Y-134245237D02*
X77362295Y-134321428D01*
X76905152Y-133521428D02*
X76867057Y-133597618D01*
X76867057Y-133597618D02*
X76828961Y-133635713D01*
X76828961Y-133635713D02*
X76752771Y-133673809D01*
X76752771Y-133673809D02*
X76714676Y-133673809D01*
X76714676Y-133673809D02*
X76638485Y-133635713D01*
X76638485Y-133635713D02*
X76600390Y-133597618D01*
X76600390Y-133597618D02*
X76562295Y-133521428D01*
X76562295Y-133521428D02*
X76562295Y-133369047D01*
X76562295Y-133369047D02*
X76600390Y-133292856D01*
X76600390Y-133292856D02*
X76638485Y-133254761D01*
X76638485Y-133254761D02*
X76714676Y-133216666D01*
X76714676Y-133216666D02*
X76752771Y-133216666D01*
X76752771Y-133216666D02*
X76828961Y-133254761D01*
X76828961Y-133254761D02*
X76867057Y-133292856D01*
X76867057Y-133292856D02*
X76905152Y-133369047D01*
X76905152Y-133369047D02*
X76905152Y-133521428D01*
X76905152Y-133521428D02*
X76943247Y-133597618D01*
X76943247Y-133597618D02*
X76981342Y-133635713D01*
X76981342Y-133635713D02*
X77057533Y-133673809D01*
X77057533Y-133673809D02*
X77209914Y-133673809D01*
X77209914Y-133673809D02*
X77286104Y-133635713D01*
X77286104Y-133635713D02*
X77324200Y-133597618D01*
X77324200Y-133597618D02*
X77362295Y-133521428D01*
X77362295Y-133521428D02*
X77362295Y-133369047D01*
X77362295Y-133369047D02*
X77324200Y-133292856D01*
X77324200Y-133292856D02*
X77286104Y-133254761D01*
X77286104Y-133254761D02*
X77209914Y-133216666D01*
X77209914Y-133216666D02*
X77057533Y-133216666D01*
X77057533Y-133216666D02*
X76981342Y-133254761D01*
X76981342Y-133254761D02*
X76943247Y-133292856D01*
X76943247Y-133292856D02*
X76905152Y-133369047D01*
X69321428Y-125204819D02*
X69321428Y-124204819D01*
X69797618Y-124538152D02*
X69797618Y-125204819D01*
X69797618Y-124633390D02*
X69845237Y-124585771D01*
X69845237Y-124585771D02*
X69940475Y-124538152D01*
X69940475Y-124538152D02*
X70083332Y-124538152D01*
X70083332Y-124538152D02*
X70178570Y-124585771D01*
X70178570Y-124585771D02*
X70226189Y-124681009D01*
X70226189Y-124681009D02*
X70226189Y-125204819D01*
X70702380Y-124538152D02*
X70702380Y-125538152D01*
X70702380Y-124585771D02*
X70797618Y-124538152D01*
X70797618Y-124538152D02*
X70988094Y-124538152D01*
X70988094Y-124538152D02*
X71083332Y-124585771D01*
X71083332Y-124585771D02*
X71130951Y-124633390D01*
X71130951Y-124633390D02*
X71178570Y-124728628D01*
X71178570Y-124728628D02*
X71178570Y-125014342D01*
X71178570Y-125014342D02*
X71130951Y-125109580D01*
X71130951Y-125109580D02*
X71083332Y-125157200D01*
X71083332Y-125157200D02*
X70988094Y-125204819D01*
X70988094Y-125204819D02*
X70797618Y-125204819D01*
X70797618Y-125204819D02*
X70702380Y-125157200D01*
X72035713Y-124538152D02*
X72035713Y-125204819D01*
X71607142Y-124538152D02*
X71607142Y-125061961D01*
X71607142Y-125061961D02*
X71654761Y-125157200D01*
X71654761Y-125157200D02*
X71749999Y-125204819D01*
X71749999Y-125204819D02*
X71892856Y-125204819D01*
X71892856Y-125204819D02*
X71988094Y-125157200D01*
X71988094Y-125157200D02*
X72035713Y-125109580D01*
X72369047Y-124538152D02*
X72749999Y-124538152D01*
X72511904Y-124204819D02*
X72511904Y-125061961D01*
X72511904Y-125061961D02*
X72559523Y-125157200D01*
X72559523Y-125157200D02*
X72654761Y-125204819D01*
X72654761Y-125204819D02*
X72749999Y-125204819D01*
X74321428Y-125204819D02*
X73845238Y-125204819D01*
X73845238Y-125204819D02*
X73845238Y-124204819D01*
X93183332Y-72324200D02*
X93297618Y-72362295D01*
X93297618Y-72362295D02*
X93488094Y-72362295D01*
X93488094Y-72362295D02*
X93564285Y-72324200D01*
X93564285Y-72324200D02*
X93602380Y-72286104D01*
X93602380Y-72286104D02*
X93640475Y-72209914D01*
X93640475Y-72209914D02*
X93640475Y-72133723D01*
X93640475Y-72133723D02*
X93602380Y-72057533D01*
X93602380Y-72057533D02*
X93564285Y-72019438D01*
X93564285Y-72019438D02*
X93488094Y-71981342D01*
X93488094Y-71981342D02*
X93335713Y-71943247D01*
X93335713Y-71943247D02*
X93259523Y-71905152D01*
X93259523Y-71905152D02*
X93221428Y-71867057D01*
X93221428Y-71867057D02*
X93183332Y-71790866D01*
X93183332Y-71790866D02*
X93183332Y-71714676D01*
X93183332Y-71714676D02*
X93221428Y-71638485D01*
X93221428Y-71638485D02*
X93259523Y-71600390D01*
X93259523Y-71600390D02*
X93335713Y-71562295D01*
X93335713Y-71562295D02*
X93526190Y-71562295D01*
X93526190Y-71562295D02*
X93640475Y-71600390D01*
X93907142Y-71562295D02*
X94097618Y-72362295D01*
X94097618Y-72362295D02*
X94249999Y-71790866D01*
X94249999Y-71790866D02*
X94402380Y-72362295D01*
X94402380Y-72362295D02*
X94592857Y-71562295D01*
X94821428Y-71562295D02*
X95316666Y-71562295D01*
X95316666Y-71562295D02*
X95050000Y-71867057D01*
X95050000Y-71867057D02*
X95164285Y-71867057D01*
X95164285Y-71867057D02*
X95240476Y-71905152D01*
X95240476Y-71905152D02*
X95278571Y-71943247D01*
X95278571Y-71943247D02*
X95316666Y-72019438D01*
X95316666Y-72019438D02*
X95316666Y-72209914D01*
X95316666Y-72209914D02*
X95278571Y-72286104D01*
X95278571Y-72286104D02*
X95240476Y-72324200D01*
X95240476Y-72324200D02*
X95164285Y-72362295D01*
X95164285Y-72362295D02*
X94935714Y-72362295D01*
X94935714Y-72362295D02*
X94859523Y-72324200D01*
X94859523Y-72324200D02*
X94821428Y-72286104D01*
X88382295Y-44386189D02*
X88001342Y-44652856D01*
X88382295Y-44843332D02*
X87582295Y-44843332D01*
X87582295Y-44843332D02*
X87582295Y-44538570D01*
X87582295Y-44538570D02*
X87620390Y-44462380D01*
X87620390Y-44462380D02*
X87658485Y-44424285D01*
X87658485Y-44424285D02*
X87734676Y-44386189D01*
X87734676Y-44386189D02*
X87848961Y-44386189D01*
X87848961Y-44386189D02*
X87925152Y-44424285D01*
X87925152Y-44424285D02*
X87963247Y-44462380D01*
X87963247Y-44462380D02*
X88001342Y-44538570D01*
X88001342Y-44538570D02*
X88001342Y-44843332D01*
X87582295Y-44157618D02*
X88382295Y-43890951D01*
X88382295Y-43890951D02*
X87582295Y-43624285D01*
X88382295Y-43319523D02*
X88382295Y-43167142D01*
X88382295Y-43167142D02*
X88344200Y-43090952D01*
X88344200Y-43090952D02*
X88306104Y-43052856D01*
X88306104Y-43052856D02*
X88191819Y-42976666D01*
X88191819Y-42976666D02*
X88039438Y-42938571D01*
X88039438Y-42938571D02*
X87734676Y-42938571D01*
X87734676Y-42938571D02*
X87658485Y-42976666D01*
X87658485Y-42976666D02*
X87620390Y-43014761D01*
X87620390Y-43014761D02*
X87582295Y-43090952D01*
X87582295Y-43090952D02*
X87582295Y-43243333D01*
X87582295Y-43243333D02*
X87620390Y-43319523D01*
X87620390Y-43319523D02*
X87658485Y-43357618D01*
X87658485Y-43357618D02*
X87734676Y-43395714D01*
X87734676Y-43395714D02*
X87925152Y-43395714D01*
X87925152Y-43395714D02*
X88001342Y-43357618D01*
X88001342Y-43357618D02*
X88039438Y-43319523D01*
X88039438Y-43319523D02*
X88077533Y-43243333D01*
X88077533Y-43243333D02*
X88077533Y-43090952D01*
X88077533Y-43090952D02*
X88039438Y-43014761D01*
X88039438Y-43014761D02*
X88001342Y-42976666D01*
X88001342Y-42976666D02*
X87925152Y-42938571D01*
X88612295Y-106357142D02*
X88231342Y-106623809D01*
X88612295Y-106814285D02*
X87812295Y-106814285D01*
X87812295Y-106814285D02*
X87812295Y-106509523D01*
X87812295Y-106509523D02*
X87850390Y-106433333D01*
X87850390Y-106433333D02*
X87888485Y-106395238D01*
X87888485Y-106395238D02*
X87964676Y-106357142D01*
X87964676Y-106357142D02*
X88078961Y-106357142D01*
X88078961Y-106357142D02*
X88155152Y-106395238D01*
X88155152Y-106395238D02*
X88193247Y-106433333D01*
X88193247Y-106433333D02*
X88231342Y-106509523D01*
X88231342Y-106509523D02*
X88231342Y-106814285D01*
X87812295Y-106128571D02*
X88612295Y-105861904D01*
X88612295Y-105861904D02*
X87812295Y-105595238D01*
X88612295Y-104909524D02*
X88612295Y-105366667D01*
X88612295Y-105138095D02*
X87812295Y-105138095D01*
X87812295Y-105138095D02*
X87926580Y-105214286D01*
X87926580Y-105214286D02*
X88002771Y-105290476D01*
X88002771Y-105290476D02*
X88040866Y-105366667D01*
X87812295Y-104414285D02*
X87812295Y-104338095D01*
X87812295Y-104338095D02*
X87850390Y-104261904D01*
X87850390Y-104261904D02*
X87888485Y-104223809D01*
X87888485Y-104223809D02*
X87964676Y-104185714D01*
X87964676Y-104185714D02*
X88117057Y-104147619D01*
X88117057Y-104147619D02*
X88307533Y-104147619D01*
X88307533Y-104147619D02*
X88459914Y-104185714D01*
X88459914Y-104185714D02*
X88536104Y-104223809D01*
X88536104Y-104223809D02*
X88574200Y-104261904D01*
X88574200Y-104261904D02*
X88612295Y-104338095D01*
X88612295Y-104338095D02*
X88612295Y-104414285D01*
X88612295Y-104414285D02*
X88574200Y-104490476D01*
X88574200Y-104490476D02*
X88536104Y-104528571D01*
X88536104Y-104528571D02*
X88459914Y-104566666D01*
X88459914Y-104566666D02*
X88307533Y-104604762D01*
X88307533Y-104604762D02*
X88117057Y-104604762D01*
X88117057Y-104604762D02*
X87964676Y-104566666D01*
X87964676Y-104566666D02*
X87888485Y-104528571D01*
X87888485Y-104528571D02*
X87850390Y-104490476D01*
X87850390Y-104490476D02*
X87812295Y-104414285D01*
X84062295Y-145766666D02*
X84633723Y-145766666D01*
X84633723Y-145766666D02*
X84748009Y-145804761D01*
X84748009Y-145804761D02*
X84824200Y-145880952D01*
X84824200Y-145880952D02*
X84862295Y-145995237D01*
X84862295Y-145995237D02*
X84862295Y-146071428D01*
X84328961Y-145042856D02*
X84862295Y-145042856D01*
X84024200Y-145233332D02*
X84595628Y-145423809D01*
X84595628Y-145423809D02*
X84595628Y-144928570D01*
X83130952Y-136204819D02*
X83702380Y-136204819D01*
X83416666Y-137204819D02*
X83416666Y-136204819D01*
X84464285Y-137204819D02*
X84464285Y-136681009D01*
X84464285Y-136681009D02*
X84416666Y-136585771D01*
X84416666Y-136585771D02*
X84321428Y-136538152D01*
X84321428Y-136538152D02*
X84130952Y-136538152D01*
X84130952Y-136538152D02*
X84035714Y-136585771D01*
X84464285Y-137157200D02*
X84369047Y-137204819D01*
X84369047Y-137204819D02*
X84130952Y-137204819D01*
X84130952Y-137204819D02*
X84035714Y-137157200D01*
X84035714Y-137157200D02*
X83988095Y-137061961D01*
X83988095Y-137061961D02*
X83988095Y-136966723D01*
X83988095Y-136966723D02*
X84035714Y-136871485D01*
X84035714Y-136871485D02*
X84130952Y-136823866D01*
X84130952Y-136823866D02*
X84369047Y-136823866D01*
X84369047Y-136823866D02*
X84464285Y-136776247D01*
X84940476Y-136538152D02*
X84940476Y-137538152D01*
X84940476Y-136585771D02*
X85035714Y-136538152D01*
X85035714Y-136538152D02*
X85226190Y-136538152D01*
X85226190Y-136538152D02*
X85321428Y-136585771D01*
X85321428Y-136585771D02*
X85369047Y-136633390D01*
X85369047Y-136633390D02*
X85416666Y-136728628D01*
X85416666Y-136728628D02*
X85416666Y-137014342D01*
X85416666Y-137014342D02*
X85369047Y-137109580D01*
X85369047Y-137109580D02*
X85321428Y-137157200D01*
X85321428Y-137157200D02*
X85226190Y-137204819D01*
X85226190Y-137204819D02*
X85035714Y-137204819D01*
X85035714Y-137204819D02*
X84940476Y-137157200D01*
X86892857Y-136728628D02*
X86892857Y-136919104D01*
X86940476Y-136919104D02*
X86940476Y-136728628D01*
X86988095Y-136681009D02*
X86988095Y-136966723D01*
X87035714Y-136919104D02*
X87035714Y-136728628D01*
X87083333Y-136728628D02*
X87083333Y-136919104D01*
X86892857Y-136871485D02*
X86988095Y-136966723D01*
X86988095Y-136966723D02*
X87083333Y-136871485D01*
X86892857Y-136776247D02*
X86988095Y-136681009D01*
X86988095Y-136681009D02*
X87083333Y-136776247D01*
X86892857Y-136728628D02*
X86988095Y-136681009D01*
X86988095Y-136681009D02*
X87083333Y-136728628D01*
X87083333Y-136728628D02*
X87130952Y-136823866D01*
X87130952Y-136823866D02*
X87083333Y-136919104D01*
X87083333Y-136919104D02*
X86988095Y-136966723D01*
X86988095Y-136966723D02*
X86892857Y-136919104D01*
X86892857Y-136919104D02*
X86845238Y-136823866D01*
X86845238Y-136823866D02*
X86892857Y-136728628D01*
X89178571Y-137109580D02*
X89130952Y-137157200D01*
X89130952Y-137157200D02*
X88988095Y-137204819D01*
X88988095Y-137204819D02*
X88892857Y-137204819D01*
X88892857Y-137204819D02*
X88750000Y-137157200D01*
X88750000Y-137157200D02*
X88654762Y-137061961D01*
X88654762Y-137061961D02*
X88607143Y-136966723D01*
X88607143Y-136966723D02*
X88559524Y-136776247D01*
X88559524Y-136776247D02*
X88559524Y-136633390D01*
X88559524Y-136633390D02*
X88607143Y-136442914D01*
X88607143Y-136442914D02*
X88654762Y-136347676D01*
X88654762Y-136347676D02*
X88750000Y-136252438D01*
X88750000Y-136252438D02*
X88892857Y-136204819D01*
X88892857Y-136204819D02*
X88988095Y-136204819D01*
X88988095Y-136204819D02*
X89130952Y-136252438D01*
X89130952Y-136252438D02*
X89178571Y-136300057D01*
X89750000Y-137204819D02*
X89654762Y-137157200D01*
X89654762Y-137157200D02*
X89607143Y-137061961D01*
X89607143Y-137061961D02*
X89607143Y-136204819D01*
X90273810Y-137204819D02*
X90178572Y-137157200D01*
X90178572Y-137157200D02*
X90130953Y-137109580D01*
X90130953Y-137109580D02*
X90083334Y-137014342D01*
X90083334Y-137014342D02*
X90083334Y-136728628D01*
X90083334Y-136728628D02*
X90130953Y-136633390D01*
X90130953Y-136633390D02*
X90178572Y-136585771D01*
X90178572Y-136585771D02*
X90273810Y-136538152D01*
X90273810Y-136538152D02*
X90416667Y-136538152D01*
X90416667Y-136538152D02*
X90511905Y-136585771D01*
X90511905Y-136585771D02*
X90559524Y-136633390D01*
X90559524Y-136633390D02*
X90607143Y-136728628D01*
X90607143Y-136728628D02*
X90607143Y-137014342D01*
X90607143Y-137014342D02*
X90559524Y-137109580D01*
X90559524Y-137109580D02*
X90511905Y-137157200D01*
X90511905Y-137157200D02*
X90416667Y-137204819D01*
X90416667Y-137204819D02*
X90273810Y-137204819D01*
X91464286Y-137157200D02*
X91369048Y-137204819D01*
X91369048Y-137204819D02*
X91178572Y-137204819D01*
X91178572Y-137204819D02*
X91083334Y-137157200D01*
X91083334Y-137157200D02*
X91035715Y-137109580D01*
X91035715Y-137109580D02*
X90988096Y-137014342D01*
X90988096Y-137014342D02*
X90988096Y-136728628D01*
X90988096Y-136728628D02*
X91035715Y-136633390D01*
X91035715Y-136633390D02*
X91083334Y-136585771D01*
X91083334Y-136585771D02*
X91178572Y-136538152D01*
X91178572Y-136538152D02*
X91369048Y-136538152D01*
X91369048Y-136538152D02*
X91464286Y-136585771D01*
X91892858Y-137204819D02*
X91892858Y-136204819D01*
X91988096Y-136823866D02*
X92273810Y-137204819D01*
X92273810Y-136538152D02*
X91892858Y-136919104D01*
X104834200Y-58076667D02*
X104872295Y-57962381D01*
X104872295Y-57962381D02*
X104872295Y-57771905D01*
X104872295Y-57771905D02*
X104834200Y-57695714D01*
X104834200Y-57695714D02*
X104796104Y-57657619D01*
X104796104Y-57657619D02*
X104719914Y-57619524D01*
X104719914Y-57619524D02*
X104643723Y-57619524D01*
X104643723Y-57619524D02*
X104567533Y-57657619D01*
X104567533Y-57657619D02*
X104529438Y-57695714D01*
X104529438Y-57695714D02*
X104491342Y-57771905D01*
X104491342Y-57771905D02*
X104453247Y-57924286D01*
X104453247Y-57924286D02*
X104415152Y-58000476D01*
X104415152Y-58000476D02*
X104377057Y-58038571D01*
X104377057Y-58038571D02*
X104300866Y-58076667D01*
X104300866Y-58076667D02*
X104224676Y-58076667D01*
X104224676Y-58076667D02*
X104148485Y-58038571D01*
X104148485Y-58038571D02*
X104110390Y-58000476D01*
X104110390Y-58000476D02*
X104072295Y-57924286D01*
X104072295Y-57924286D02*
X104072295Y-57733809D01*
X104072295Y-57733809D02*
X104110390Y-57619524D01*
X104072295Y-57352857D02*
X104872295Y-57162381D01*
X104872295Y-57162381D02*
X104300866Y-57010000D01*
X104300866Y-57010000D02*
X104872295Y-56857619D01*
X104872295Y-56857619D02*
X104072295Y-56667143D01*
X104872295Y-56324285D02*
X104872295Y-56171904D01*
X104872295Y-56171904D02*
X104834200Y-56095714D01*
X104834200Y-56095714D02*
X104796104Y-56057618D01*
X104796104Y-56057618D02*
X104681819Y-55981428D01*
X104681819Y-55981428D02*
X104529438Y-55943333D01*
X104529438Y-55943333D02*
X104224676Y-55943333D01*
X104224676Y-55943333D02*
X104148485Y-55981428D01*
X104148485Y-55981428D02*
X104110390Y-56019523D01*
X104110390Y-56019523D02*
X104072295Y-56095714D01*
X104072295Y-56095714D02*
X104072295Y-56248095D01*
X104072295Y-56248095D02*
X104110390Y-56324285D01*
X104110390Y-56324285D02*
X104148485Y-56362380D01*
X104148485Y-56362380D02*
X104224676Y-56400476D01*
X104224676Y-56400476D02*
X104415152Y-56400476D01*
X104415152Y-56400476D02*
X104491342Y-56362380D01*
X104491342Y-56362380D02*
X104529438Y-56324285D01*
X104529438Y-56324285D02*
X104567533Y-56248095D01*
X104567533Y-56248095D02*
X104567533Y-56095714D01*
X104567533Y-56095714D02*
X104529438Y-56019523D01*
X104529438Y-56019523D02*
X104491342Y-55981428D01*
X104491342Y-55981428D02*
X104415152Y-55943333D01*
X75812295Y-145897619D02*
X76383723Y-145897619D01*
X76383723Y-145897619D02*
X76498009Y-145935714D01*
X76498009Y-145935714D02*
X76574200Y-146011905D01*
X76574200Y-146011905D02*
X76612295Y-146126190D01*
X76612295Y-146126190D02*
X76612295Y-146202381D01*
X76612295Y-145097619D02*
X76612295Y-145554762D01*
X76612295Y-145326190D02*
X75812295Y-145326190D01*
X75812295Y-145326190D02*
X75926580Y-145402381D01*
X75926580Y-145402381D02*
X76002771Y-145478571D01*
X76002771Y-145478571D02*
X76040866Y-145554762D01*
X75812295Y-144411904D02*
X75812295Y-144564285D01*
X75812295Y-144564285D02*
X75850390Y-144640476D01*
X75850390Y-144640476D02*
X75888485Y-144678571D01*
X75888485Y-144678571D02*
X76002771Y-144754761D01*
X76002771Y-144754761D02*
X76155152Y-144792857D01*
X76155152Y-144792857D02*
X76459914Y-144792857D01*
X76459914Y-144792857D02*
X76536104Y-144754761D01*
X76536104Y-144754761D02*
X76574200Y-144716666D01*
X76574200Y-144716666D02*
X76612295Y-144640476D01*
X76612295Y-144640476D02*
X76612295Y-144488095D01*
X76612295Y-144488095D02*
X76574200Y-144411904D01*
X76574200Y-144411904D02*
X76536104Y-144373809D01*
X76536104Y-144373809D02*
X76459914Y-144335714D01*
X76459914Y-144335714D02*
X76269438Y-144335714D01*
X76269438Y-144335714D02*
X76193247Y-144373809D01*
X76193247Y-144373809D02*
X76155152Y-144411904D01*
X76155152Y-144411904D02*
X76117057Y-144488095D01*
X76117057Y-144488095D02*
X76117057Y-144640476D01*
X76117057Y-144640476D02*
X76155152Y-144716666D01*
X76155152Y-144716666D02*
X76193247Y-144754761D01*
X76193247Y-144754761D02*
X76269438Y-144792857D01*
X69226190Y-137204819D02*
X69226190Y-136204819D01*
X69702380Y-136538152D02*
X69702380Y-137204819D01*
X69702380Y-136633390D02*
X69749999Y-136585771D01*
X69749999Y-136585771D02*
X69845237Y-136538152D01*
X69845237Y-136538152D02*
X69988094Y-136538152D01*
X69988094Y-136538152D02*
X70083332Y-136585771D01*
X70083332Y-136585771D02*
X70130951Y-136681009D01*
X70130951Y-136681009D02*
X70130951Y-137204819D01*
X70607142Y-136538152D02*
X70607142Y-137538152D01*
X70607142Y-136585771D02*
X70702380Y-136538152D01*
X70702380Y-136538152D02*
X70892856Y-136538152D01*
X70892856Y-136538152D02*
X70988094Y-136585771D01*
X70988094Y-136585771D02*
X71035713Y-136633390D01*
X71035713Y-136633390D02*
X71083332Y-136728628D01*
X71083332Y-136728628D02*
X71083332Y-137014342D01*
X71083332Y-137014342D02*
X71035713Y-137109580D01*
X71035713Y-137109580D02*
X70988094Y-137157200D01*
X70988094Y-137157200D02*
X70892856Y-137204819D01*
X70892856Y-137204819D02*
X70702380Y-137204819D01*
X70702380Y-137204819D02*
X70607142Y-137157200D01*
X71940475Y-136538152D02*
X71940475Y-137204819D01*
X71511904Y-136538152D02*
X71511904Y-137061961D01*
X71511904Y-137061961D02*
X71559523Y-137157200D01*
X71559523Y-137157200D02*
X71654761Y-137204819D01*
X71654761Y-137204819D02*
X71797618Y-137204819D01*
X71797618Y-137204819D02*
X71892856Y-137157200D01*
X71892856Y-137157200D02*
X71940475Y-137109580D01*
X72273809Y-136538152D02*
X72654761Y-136538152D01*
X72416666Y-136204819D02*
X72416666Y-137061961D01*
X72416666Y-137061961D02*
X72464285Y-137157200D01*
X72464285Y-137157200D02*
X72559523Y-137204819D01*
X72559523Y-137204819D02*
X72654761Y-137204819D01*
X74321428Y-137204819D02*
X73988095Y-136728628D01*
X73750000Y-137204819D02*
X73750000Y-136204819D01*
X73750000Y-136204819D02*
X74130952Y-136204819D01*
X74130952Y-136204819D02*
X74226190Y-136252438D01*
X74226190Y-136252438D02*
X74273809Y-136300057D01*
X74273809Y-136300057D02*
X74321428Y-136395295D01*
X74321428Y-136395295D02*
X74321428Y-136538152D01*
X74321428Y-136538152D02*
X74273809Y-136633390D01*
X74273809Y-136633390D02*
X74226190Y-136681009D01*
X74226190Y-136681009D02*
X74130952Y-136728628D01*
X74130952Y-136728628D02*
X73750000Y-136728628D01*
X79584200Y-76576667D02*
X79622295Y-76462381D01*
X79622295Y-76462381D02*
X79622295Y-76271905D01*
X79622295Y-76271905D02*
X79584200Y-76195714D01*
X79584200Y-76195714D02*
X79546104Y-76157619D01*
X79546104Y-76157619D02*
X79469914Y-76119524D01*
X79469914Y-76119524D02*
X79393723Y-76119524D01*
X79393723Y-76119524D02*
X79317533Y-76157619D01*
X79317533Y-76157619D02*
X79279438Y-76195714D01*
X79279438Y-76195714D02*
X79241342Y-76271905D01*
X79241342Y-76271905D02*
X79203247Y-76424286D01*
X79203247Y-76424286D02*
X79165152Y-76500476D01*
X79165152Y-76500476D02*
X79127057Y-76538571D01*
X79127057Y-76538571D02*
X79050866Y-76576667D01*
X79050866Y-76576667D02*
X78974676Y-76576667D01*
X78974676Y-76576667D02*
X78898485Y-76538571D01*
X78898485Y-76538571D02*
X78860390Y-76500476D01*
X78860390Y-76500476D02*
X78822295Y-76424286D01*
X78822295Y-76424286D02*
X78822295Y-76233809D01*
X78822295Y-76233809D02*
X78860390Y-76119524D01*
X78822295Y-75852857D02*
X79622295Y-75662381D01*
X79622295Y-75662381D02*
X79050866Y-75510000D01*
X79050866Y-75510000D02*
X79622295Y-75357619D01*
X79622295Y-75357619D02*
X78822295Y-75167143D01*
X79165152Y-74748095D02*
X79127057Y-74824285D01*
X79127057Y-74824285D02*
X79088961Y-74862380D01*
X79088961Y-74862380D02*
X79012771Y-74900476D01*
X79012771Y-74900476D02*
X78974676Y-74900476D01*
X78974676Y-74900476D02*
X78898485Y-74862380D01*
X78898485Y-74862380D02*
X78860390Y-74824285D01*
X78860390Y-74824285D02*
X78822295Y-74748095D01*
X78822295Y-74748095D02*
X78822295Y-74595714D01*
X78822295Y-74595714D02*
X78860390Y-74519523D01*
X78860390Y-74519523D02*
X78898485Y-74481428D01*
X78898485Y-74481428D02*
X78974676Y-74443333D01*
X78974676Y-74443333D02*
X79012771Y-74443333D01*
X79012771Y-74443333D02*
X79088961Y-74481428D01*
X79088961Y-74481428D02*
X79127057Y-74519523D01*
X79127057Y-74519523D02*
X79165152Y-74595714D01*
X79165152Y-74595714D02*
X79165152Y-74748095D01*
X79165152Y-74748095D02*
X79203247Y-74824285D01*
X79203247Y-74824285D02*
X79241342Y-74862380D01*
X79241342Y-74862380D02*
X79317533Y-74900476D01*
X79317533Y-74900476D02*
X79469914Y-74900476D01*
X79469914Y-74900476D02*
X79546104Y-74862380D01*
X79546104Y-74862380D02*
X79584200Y-74824285D01*
X79584200Y-74824285D02*
X79622295Y-74748095D01*
X79622295Y-74748095D02*
X79622295Y-74595714D01*
X79622295Y-74595714D02*
X79584200Y-74519523D01*
X79584200Y-74519523D02*
X79546104Y-74481428D01*
X79546104Y-74481428D02*
X79469914Y-74443333D01*
X79469914Y-74443333D02*
X79317533Y-74443333D01*
X79317533Y-74443333D02*
X79241342Y-74481428D01*
X79241342Y-74481428D02*
X79203247Y-74519523D01*
X79203247Y-74519523D02*
X79165152Y-74595714D01*
X79434524Y-135112295D02*
X79434524Y-134312295D01*
X79434524Y-134312295D02*
X79625000Y-134312295D01*
X79625000Y-134312295D02*
X79739286Y-134350390D01*
X79739286Y-134350390D02*
X79815476Y-134426580D01*
X79815476Y-134426580D02*
X79853571Y-134502771D01*
X79853571Y-134502771D02*
X79891667Y-134655152D01*
X79891667Y-134655152D02*
X79891667Y-134769438D01*
X79891667Y-134769438D02*
X79853571Y-134921819D01*
X79853571Y-134921819D02*
X79815476Y-134998009D01*
X79815476Y-134998009D02*
X79739286Y-135074200D01*
X79739286Y-135074200D02*
X79625000Y-135112295D01*
X79625000Y-135112295D02*
X79434524Y-135112295D01*
X80158333Y-134312295D02*
X80653571Y-134312295D01*
X80653571Y-134312295D02*
X80386905Y-134617057D01*
X80386905Y-134617057D02*
X80501190Y-134617057D01*
X80501190Y-134617057D02*
X80577381Y-134655152D01*
X80577381Y-134655152D02*
X80615476Y-134693247D01*
X80615476Y-134693247D02*
X80653571Y-134769438D01*
X80653571Y-134769438D02*
X80653571Y-134959914D01*
X80653571Y-134959914D02*
X80615476Y-135036104D01*
X80615476Y-135036104D02*
X80577381Y-135074200D01*
X80577381Y-135074200D02*
X80501190Y-135112295D01*
X80501190Y-135112295D02*
X80272619Y-135112295D01*
X80272619Y-135112295D02*
X80196428Y-135074200D01*
X80196428Y-135074200D02*
X80158333Y-135036104D01*
X102313332Y-102464200D02*
X102427618Y-102502295D01*
X102427618Y-102502295D02*
X102618094Y-102502295D01*
X102618094Y-102502295D02*
X102694285Y-102464200D01*
X102694285Y-102464200D02*
X102732380Y-102426104D01*
X102732380Y-102426104D02*
X102770475Y-102349914D01*
X102770475Y-102349914D02*
X102770475Y-102273723D01*
X102770475Y-102273723D02*
X102732380Y-102197533D01*
X102732380Y-102197533D02*
X102694285Y-102159438D01*
X102694285Y-102159438D02*
X102618094Y-102121342D01*
X102618094Y-102121342D02*
X102465713Y-102083247D01*
X102465713Y-102083247D02*
X102389523Y-102045152D01*
X102389523Y-102045152D02*
X102351428Y-102007057D01*
X102351428Y-102007057D02*
X102313332Y-101930866D01*
X102313332Y-101930866D02*
X102313332Y-101854676D01*
X102313332Y-101854676D02*
X102351428Y-101778485D01*
X102351428Y-101778485D02*
X102389523Y-101740390D01*
X102389523Y-101740390D02*
X102465713Y-101702295D01*
X102465713Y-101702295D02*
X102656190Y-101702295D01*
X102656190Y-101702295D02*
X102770475Y-101740390D01*
X103037142Y-101702295D02*
X103227618Y-102502295D01*
X103227618Y-102502295D02*
X103379999Y-101930866D01*
X103379999Y-101930866D02*
X103532380Y-102502295D01*
X103532380Y-102502295D02*
X103722857Y-101702295D01*
X104370476Y-101702295D02*
X104218095Y-101702295D01*
X104218095Y-101702295D02*
X104141904Y-101740390D01*
X104141904Y-101740390D02*
X104103809Y-101778485D01*
X104103809Y-101778485D02*
X104027619Y-101892771D01*
X104027619Y-101892771D02*
X103989523Y-102045152D01*
X103989523Y-102045152D02*
X103989523Y-102349914D01*
X103989523Y-102349914D02*
X104027619Y-102426104D01*
X104027619Y-102426104D02*
X104065714Y-102464200D01*
X104065714Y-102464200D02*
X104141904Y-102502295D01*
X104141904Y-102502295D02*
X104294285Y-102502295D01*
X104294285Y-102502295D02*
X104370476Y-102464200D01*
X104370476Y-102464200D02*
X104408571Y-102426104D01*
X104408571Y-102426104D02*
X104446666Y-102349914D01*
X104446666Y-102349914D02*
X104446666Y-102159438D01*
X104446666Y-102159438D02*
X104408571Y-102083247D01*
X104408571Y-102083247D02*
X104370476Y-102045152D01*
X104370476Y-102045152D02*
X104294285Y-102007057D01*
X104294285Y-102007057D02*
X104141904Y-102007057D01*
X104141904Y-102007057D02*
X104065714Y-102045152D01*
X104065714Y-102045152D02*
X104027619Y-102083247D01*
X104027619Y-102083247D02*
X103989523Y-102159438D01*
X82084200Y-95076667D02*
X82122295Y-94962381D01*
X82122295Y-94962381D02*
X82122295Y-94771905D01*
X82122295Y-94771905D02*
X82084200Y-94695714D01*
X82084200Y-94695714D02*
X82046104Y-94657619D01*
X82046104Y-94657619D02*
X81969914Y-94619524D01*
X81969914Y-94619524D02*
X81893723Y-94619524D01*
X81893723Y-94619524D02*
X81817533Y-94657619D01*
X81817533Y-94657619D02*
X81779438Y-94695714D01*
X81779438Y-94695714D02*
X81741342Y-94771905D01*
X81741342Y-94771905D02*
X81703247Y-94924286D01*
X81703247Y-94924286D02*
X81665152Y-95000476D01*
X81665152Y-95000476D02*
X81627057Y-95038571D01*
X81627057Y-95038571D02*
X81550866Y-95076667D01*
X81550866Y-95076667D02*
X81474676Y-95076667D01*
X81474676Y-95076667D02*
X81398485Y-95038571D01*
X81398485Y-95038571D02*
X81360390Y-95000476D01*
X81360390Y-95000476D02*
X81322295Y-94924286D01*
X81322295Y-94924286D02*
X81322295Y-94733809D01*
X81322295Y-94733809D02*
X81360390Y-94619524D01*
X81322295Y-94352857D02*
X82122295Y-94162381D01*
X82122295Y-94162381D02*
X81550866Y-94010000D01*
X81550866Y-94010000D02*
X82122295Y-93857619D01*
X82122295Y-93857619D02*
X81322295Y-93667143D01*
X81322295Y-93438571D02*
X81322295Y-92905237D01*
X81322295Y-92905237D02*
X82122295Y-93248095D01*
X109706200Y-51247619D02*
X109744295Y-51133333D01*
X109744295Y-51133333D02*
X109744295Y-50942857D01*
X109744295Y-50942857D02*
X109706200Y-50866666D01*
X109706200Y-50866666D02*
X109668104Y-50828571D01*
X109668104Y-50828571D02*
X109591914Y-50790476D01*
X109591914Y-50790476D02*
X109515723Y-50790476D01*
X109515723Y-50790476D02*
X109439533Y-50828571D01*
X109439533Y-50828571D02*
X109401438Y-50866666D01*
X109401438Y-50866666D02*
X109363342Y-50942857D01*
X109363342Y-50942857D02*
X109325247Y-51095238D01*
X109325247Y-51095238D02*
X109287152Y-51171428D01*
X109287152Y-51171428D02*
X109249057Y-51209523D01*
X109249057Y-51209523D02*
X109172866Y-51247619D01*
X109172866Y-51247619D02*
X109096676Y-51247619D01*
X109096676Y-51247619D02*
X109020485Y-51209523D01*
X109020485Y-51209523D02*
X108982390Y-51171428D01*
X108982390Y-51171428D02*
X108944295Y-51095238D01*
X108944295Y-51095238D02*
X108944295Y-50904761D01*
X108944295Y-50904761D02*
X108982390Y-50790476D01*
X108944295Y-50523809D02*
X109744295Y-50333333D01*
X109744295Y-50333333D02*
X109172866Y-50180952D01*
X109172866Y-50180952D02*
X109744295Y-50028571D01*
X109744295Y-50028571D02*
X108944295Y-49838095D01*
X109744295Y-49114285D02*
X109744295Y-49571428D01*
X109744295Y-49342856D02*
X108944295Y-49342856D01*
X108944295Y-49342856D02*
X109058580Y-49419047D01*
X109058580Y-49419047D02*
X109134771Y-49495237D01*
X109134771Y-49495237D02*
X109172866Y-49571428D01*
X108944295Y-48619046D02*
X108944295Y-48542856D01*
X108944295Y-48542856D02*
X108982390Y-48466665D01*
X108982390Y-48466665D02*
X109020485Y-48428570D01*
X109020485Y-48428570D02*
X109096676Y-48390475D01*
X109096676Y-48390475D02*
X109249057Y-48352380D01*
X109249057Y-48352380D02*
X109439533Y-48352380D01*
X109439533Y-48352380D02*
X109591914Y-48390475D01*
X109591914Y-48390475D02*
X109668104Y-48428570D01*
X109668104Y-48428570D02*
X109706200Y-48466665D01*
X109706200Y-48466665D02*
X109744295Y-48542856D01*
X109744295Y-48542856D02*
X109744295Y-48619046D01*
X109744295Y-48619046D02*
X109706200Y-48695237D01*
X109706200Y-48695237D02*
X109668104Y-48733332D01*
X109668104Y-48733332D02*
X109591914Y-48771427D01*
X109591914Y-48771427D02*
X109439533Y-48809523D01*
X109439533Y-48809523D02*
X109249057Y-48809523D01*
X109249057Y-48809523D02*
X109096676Y-48771427D01*
X109096676Y-48771427D02*
X109020485Y-48733332D01*
X109020485Y-48733332D02*
X108982390Y-48695237D01*
X108982390Y-48695237D02*
X108944295Y-48619046D01*
D12*
%TO.C,J2*%
X93750000Y-126000000D02*
X87750000Y-126000000D01*
X93750000Y-126000000D02*
X93750000Y-130500000D01*
X87750000Y-126000000D02*
X83250000Y-126000000D01*
X83250000Y-126000000D02*
X83250000Y-130500000D01*
X83250000Y-130500000D02*
X83250000Y-135000000D01*
X93750000Y-135000000D02*
X93750000Y-130500000D01*
X83250000Y-135000000D02*
X93750000Y-135000000D01*
X89250000Y-130500000D02*
G75*
G03*
X86250000Y-130500000I-1500000J0D01*
G01*
X86250000Y-130500000D02*
G75*
G03*
X89250000Y-130500000I1500000J0D01*
G01*
%TO.C,J5*%
X110250000Y-135000000D02*
X116250000Y-135000000D01*
X110250000Y-135000000D02*
X110250000Y-130500000D01*
X116250000Y-135000000D02*
X120750000Y-135000000D01*
X120750000Y-135000000D02*
X120750000Y-130500000D01*
X120750000Y-130500000D02*
X120750000Y-126000000D01*
X110250000Y-126000000D02*
X110250000Y-130500000D01*
X120750000Y-126000000D02*
X110250000Y-126000000D01*
X117750000Y-130500000D02*
G75*
G03*
X114750000Y-130500000I-1500000J0D01*
G01*
X114750000Y-130500000D02*
G75*
G03*
X117750000Y-130500000I1500000J0D01*
G01*
%TO.C,J6*%
X110250000Y-146750000D02*
X116250000Y-146750000D01*
X110250000Y-146750000D02*
X110250000Y-142250000D01*
X116250000Y-146750000D02*
X120750000Y-146750000D01*
X120750000Y-146750000D02*
X120750000Y-142250000D01*
X120750000Y-142250000D02*
X120750000Y-137750000D01*
X110250000Y-137750000D02*
X110250000Y-142250000D01*
X120750000Y-137750000D02*
X110250000Y-137750000D01*
X117750000Y-142250000D02*
G75*
G03*
X114750000Y-142250000I-1500000J0D01*
G01*
X114750000Y-142250000D02*
G75*
G03*
X117750000Y-142250000I1500000J0D01*
G01*
%TO.C,RV4*%
X109900000Y-81250000D02*
X109900000Y-84750000D01*
X109900000Y-81250000D02*
X119600000Y-81250000D01*
X109900000Y-88950000D02*
X109900000Y-93750000D01*
X109900000Y-93750000D02*
X111250000Y-93750000D01*
X113250000Y-93750000D02*
X113750000Y-93750000D01*
X115750000Y-93750000D02*
X116250000Y-93750000D01*
X119600000Y-81250000D02*
X119600000Y-84750000D01*
X119600000Y-88950000D02*
X119600000Y-93750000D01*
X119600000Y-93750000D02*
X118250000Y-93750000D01*
X117750000Y-86750000D02*
G75*
G03*
X111750000Y-86750000I-3000000J0D01*
G01*
X111750000Y-86750000D02*
G75*
G03*
X117750000Y-86750000I3000000J0D01*
G01*
%TO.C,RV2*%
X109900000Y-62750000D02*
X109900000Y-66250000D01*
X109900000Y-62750000D02*
X119600000Y-62750000D01*
X109900000Y-70450000D02*
X109900000Y-75250000D01*
X109900000Y-75250000D02*
X111250000Y-75250000D01*
X113250000Y-75250000D02*
X113750000Y-75250000D01*
X115750000Y-75250000D02*
X116250000Y-75250000D01*
X119600000Y-62750000D02*
X119600000Y-66250000D01*
X119600000Y-70450000D02*
X119600000Y-75250000D01*
X119600000Y-75250000D02*
X118250000Y-75250000D01*
X117750000Y-68250000D02*
G75*
G03*
X111750000Y-68250000I-3000000J0D01*
G01*
X111750000Y-68250000D02*
G75*
G03*
X117750000Y-68250000I3000000J0D01*
G01*
%TO.C,RV5*%
X68400000Y-97250000D02*
X68400000Y-100750000D01*
X68400000Y-97250000D02*
X78100000Y-97250000D01*
X68400000Y-104950000D02*
X68400000Y-109750000D01*
X68400000Y-109750000D02*
X69750000Y-109750000D01*
X71750000Y-109750000D02*
X72250000Y-109750000D01*
X74250000Y-109750000D02*
X74750000Y-109750000D01*
X78100000Y-97250000D02*
X78100000Y-100750000D01*
X78100000Y-104950000D02*
X78100000Y-109750000D01*
X78100000Y-109750000D02*
X76750000Y-109750000D01*
X76250000Y-102750000D02*
G75*
G03*
X70250000Y-102750000I-3000000J0D01*
G01*
X70250000Y-102750000D02*
G75*
G03*
X76250000Y-102750000I3000000J0D01*
G01*
%TO.C,RV6*%
X68400000Y-62750000D02*
X68400000Y-66250000D01*
X68400000Y-62750000D02*
X78100000Y-62750000D01*
X68400000Y-70450000D02*
X68400000Y-75250000D01*
X68400000Y-75250000D02*
X69750000Y-75250000D01*
X71750000Y-75250000D02*
X72250000Y-75250000D01*
X74250000Y-75250000D02*
X74750000Y-75250000D01*
X78100000Y-62750000D02*
X78100000Y-66250000D01*
X78100000Y-70450000D02*
X78100000Y-75250000D01*
X78100000Y-75250000D02*
X76750000Y-75250000D01*
X76250000Y-68250000D02*
G75*
G03*
X70250000Y-68250000I-3000000J0D01*
G01*
X70250000Y-68250000D02*
G75*
G03*
X76250000Y-68250000I3000000J0D01*
G01*
%TO.C,RV7*%
X68400000Y-81250000D02*
X68400000Y-84750000D01*
X68400000Y-81250000D02*
X78100000Y-81250000D01*
X68400000Y-88950000D02*
X68400000Y-93750000D01*
X68400000Y-93750000D02*
X69750000Y-93750000D01*
X71750000Y-93750000D02*
X72250000Y-93750000D01*
X74250000Y-93750000D02*
X74750000Y-93750000D01*
X78100000Y-81250000D02*
X78100000Y-84750000D01*
X78100000Y-88950000D02*
X78100000Y-93750000D01*
X78100000Y-93750000D02*
X76750000Y-93750000D01*
X76250000Y-86750000D02*
G75*
G03*
X70250000Y-86750000I-3000000J0D01*
G01*
X70250000Y-86750000D02*
G75*
G03*
X76250000Y-86750000I3000000J0D01*
G01*
%TO.C,RV8*%
X109900000Y-97250000D02*
X109900000Y-100750000D01*
X109900000Y-97250000D02*
X119600000Y-97250000D01*
X109900000Y-104950000D02*
X109900000Y-109750000D01*
X109900000Y-109750000D02*
X111250000Y-109750000D01*
X113250000Y-109750000D02*
X113750000Y-109750000D01*
X115750000Y-109750000D02*
X116250000Y-109750000D01*
X119600000Y-97250000D02*
X119600000Y-100750000D01*
X119600000Y-104950000D02*
X119600000Y-109750000D01*
X119600000Y-109750000D02*
X118250000Y-109750000D01*
X117750000Y-102750000D02*
G75*
G03*
X111750000Y-102750000I-3000000J0D01*
G01*
X111750000Y-102750000D02*
G75*
G03*
X117750000Y-102750000I3000000J0D01*
G01*
%TO.C,SW1*%
X107805000Y-119540000D02*
X116695000Y-119540000D01*
X107805000Y-119540000D02*
X107805000Y-114460000D01*
X116695000Y-119540000D02*
X116695000Y-114460000D01*
X107805000Y-114460000D02*
X116695000Y-114460000D01*
%TO.C,SW2*%
X71305000Y-119540000D02*
X80195000Y-119540000D01*
X71305000Y-119540000D02*
X71305000Y-114460000D01*
X80195000Y-119540000D02*
X80195000Y-114460000D01*
X71305000Y-114460000D02*
X80195000Y-114460000D01*
%TO.C,RV3*%
X89120000Y-88620000D02*
X89120000Y-83900000D01*
X90310000Y-88620000D02*
X89130000Y-88620000D01*
X93210000Y-88620000D02*
X92680000Y-88620000D01*
X95660000Y-88620000D02*
X94830000Y-88620000D01*
X98870000Y-88620000D02*
X97380000Y-88620000D01*
X98870000Y-88620000D02*
X98870000Y-83900000D01*
X89130000Y-80090000D02*
X89130000Y-77030000D01*
X98870000Y-80090000D02*
X98870000Y-77030000D01*
X98870000Y-77030000D02*
X89130000Y-77030000D01*
%TO.C,RV1*%
X68400000Y-44250000D02*
X68400000Y-47750000D01*
X68400000Y-44250000D02*
X78100000Y-44250000D01*
X68400000Y-51950000D02*
X68400000Y-56750000D01*
X68400000Y-56750000D02*
X69750000Y-56750000D01*
X71750000Y-56750000D02*
X72250000Y-56750000D01*
X74250000Y-56750000D02*
X74750000Y-56750000D01*
X78100000Y-44250000D02*
X78100000Y-47750000D01*
X78100000Y-51950000D02*
X78100000Y-56750000D01*
X78100000Y-56750000D02*
X76750000Y-56750000D01*
X76250000Y-49750000D02*
G75*
G03*
X70250000Y-49750000I-3000000J0D01*
G01*
X70250000Y-49750000D02*
G75*
G03*
X76250000Y-49750000I3000000J0D01*
G01*
%TO.C,J7*%
X94250000Y-135500000D02*
X100250000Y-135500000D01*
X94250000Y-135500000D02*
X94250000Y-130500000D01*
X100250000Y-135500000D02*
X104750000Y-135500000D01*
X104750000Y-135500000D02*
X104750000Y-130500000D01*
X104750000Y-130500000D02*
X104750000Y-125500000D01*
X94250000Y-125500000D02*
X94250000Y-130500000D01*
X104750000Y-125500000D02*
X94250000Y-125500000D01*
X101750000Y-130500000D02*
G75*
G03*
X98750000Y-130500000I-1500000J0D01*
G01*
X98750000Y-130500000D02*
G75*
G03*
X101750000Y-130500000I1500000J0D01*
G01*
%TO.C,J9*%
X94250000Y-147250000D02*
X100250000Y-147250000D01*
X94250000Y-147250000D02*
X94250000Y-142250000D01*
X100250000Y-147250000D02*
X104750000Y-147250000D01*
X104750000Y-147250000D02*
X104750000Y-142250000D01*
X104750000Y-142250000D02*
X104750000Y-137250000D01*
X94250000Y-137250000D02*
X94250000Y-142250000D01*
X104750000Y-137250000D02*
X94250000Y-137250000D01*
X101750000Y-142250000D02*
G75*
G03*
X98750000Y-142250000I-1500000J0D01*
G01*
X98750000Y-142250000D02*
G75*
G03*
X101750000Y-142250000I1500000J0D01*
G01*
%TO.C,J8*%
X77750000Y-126000000D02*
X71750000Y-126000000D01*
X77750000Y-126000000D02*
X77750000Y-130500000D01*
X71750000Y-126000000D02*
X67250000Y-126000000D01*
X67250000Y-126000000D02*
X67250000Y-130500000D01*
X67250000Y-130500000D02*
X67250000Y-135000000D01*
X77750000Y-135000000D02*
X77750000Y-130500000D01*
X67250000Y-135000000D02*
X77750000Y-135000000D01*
X73250000Y-130500000D02*
G75*
G03*
X70250000Y-130500000I-1500000J0D01*
G01*
X70250000Y-130500000D02*
G75*
G03*
X73250000Y-130500000I1500000J0D01*
G01*
%TO.C,SW3*%
X99000000Y-68250000D02*
X99000000Y-63250001D01*
X98999999Y-63250000D02*
G75*
G03*
X98999999Y-68250000I-4999999J-2500000D01*
G01*
%TO.C,RV9*%
X89120000Y-53870000D02*
X89120000Y-49150000D01*
X90310000Y-53870000D02*
X89130000Y-53870000D01*
X93210000Y-53870000D02*
X92680000Y-53870000D01*
X95660000Y-53870000D02*
X94830000Y-53870000D01*
X98870000Y-53870000D02*
X97380000Y-53870000D01*
X98870000Y-53870000D02*
X98870000Y-49150000D01*
X89130000Y-45340000D02*
X89130000Y-42280000D01*
X98870000Y-45340000D02*
X98870000Y-42280000D01*
X98870000Y-42280000D02*
X89130000Y-42280000D01*
%TO.C,RV10*%
X89120000Y-116370000D02*
X89120000Y-111650000D01*
X90310000Y-116370000D02*
X89130000Y-116370000D01*
X93210000Y-116370000D02*
X92680000Y-116370000D01*
X95660000Y-116370000D02*
X94830000Y-116370000D01*
X98870000Y-116370000D02*
X97380000Y-116370000D01*
X98870000Y-116370000D02*
X98870000Y-111650000D01*
X89130000Y-107840000D02*
X89130000Y-104780000D01*
X98870000Y-107840000D02*
X98870000Y-104780000D01*
X98870000Y-104780000D02*
X89130000Y-104780000D01*
%TO.C,J4*%
X93750000Y-137750000D02*
X87750000Y-137750000D01*
X93750000Y-137750000D02*
X93750000Y-142250000D01*
X87750000Y-137750000D02*
X83250000Y-137750000D01*
X83250000Y-137750000D02*
X83250000Y-142250000D01*
X83250000Y-142250000D02*
X83250000Y-146750000D01*
X93750000Y-146750000D02*
X93750000Y-142250000D01*
X83250000Y-146750000D02*
X93750000Y-146750000D01*
X89250000Y-142250000D02*
G75*
G03*
X86250000Y-142250000I-1500000J0D01*
G01*
X86250000Y-142250000D02*
G75*
G03*
X89250000Y-142250000I1500000J0D01*
G01*
%TO.C,SW9*%
X105240000Y-63410000D02*
X105240000Y-54590000D01*
X105550000Y-63410000D02*
X105240000Y-63410000D01*
X109760000Y-63410000D02*
X109450000Y-63410000D01*
X104540000Y-61500000D02*
X105040000Y-61000000D01*
X105040000Y-61000000D02*
X104540000Y-60500000D01*
X104540000Y-60500000D02*
X104540000Y-61500000D01*
X105240000Y-54590000D02*
X105550000Y-54590000D01*
X109760000Y-54590000D02*
X109760000Y-63410000D01*
X109760000Y-54590000D02*
X109450000Y-54590000D01*
%TO.C,J16*%
X77750000Y-137750000D02*
X71750000Y-137750000D01*
X77750000Y-137750000D02*
X77750000Y-142250000D01*
X71750000Y-137750000D02*
X67250000Y-137750000D01*
X67250000Y-137750000D02*
X67250000Y-142250000D01*
X67250000Y-142250000D02*
X67250000Y-146750000D01*
X77750000Y-146750000D02*
X77750000Y-142250000D01*
X67250000Y-146750000D02*
X77750000Y-146750000D01*
X73250000Y-142250000D02*
G75*
G03*
X70250000Y-142250000I-1500000J0D01*
G01*
X70250000Y-142250000D02*
G75*
G03*
X73250000Y-142250000I1500000J0D01*
G01*
%TO.C,SW8*%
X79990000Y-81910000D02*
X79990000Y-73090000D01*
X80300000Y-81910000D02*
X79990000Y-81910000D01*
X84510000Y-81910000D02*
X84200000Y-81910000D01*
X79290000Y-80000000D02*
X79790000Y-79500000D01*
X79790000Y-79500000D02*
X79290000Y-79000000D01*
X79290000Y-79000000D02*
X79290000Y-80000000D01*
X79990000Y-73090000D02*
X80300000Y-73090000D01*
X84510000Y-73090000D02*
X84510000Y-81910000D01*
X84510000Y-73090000D02*
X84200000Y-73090000D01*
%TO.C,D3*%
X78460000Y-136264000D02*
X78460000Y-136420000D01*
X78460000Y-138580000D02*
X78460000Y-138736000D01*
X81692334Y-136421392D02*
G75*
G03*
X78460001Y-136264485I-1672334J-1078608D01*
G01*
X81061129Y-136420164D02*
G75*
G03*
X78979040Y-136420001I-1041129J-1079836D01*
G01*
X78979040Y-138579999D02*
G75*
G03*
X81061129Y-138579836I1040960J1079999D01*
G01*
X78460001Y-138735515D02*
G75*
G03*
X81692334Y-138578608I1559999J1235515D01*
G01*
%TO.C,SW6*%
X100990000Y-100410000D02*
X100990000Y-91590000D01*
X101300000Y-100410000D02*
X100990000Y-100410000D01*
X105510000Y-100410000D02*
X105200000Y-100410000D01*
X100290000Y-98500000D02*
X100790000Y-98000000D01*
X100790000Y-98000000D02*
X100290000Y-97500000D01*
X100290000Y-97500000D02*
X100290000Y-98500000D01*
X100990000Y-91590000D02*
X101300000Y-91590000D01*
X105510000Y-91590000D02*
X105510000Y-100410000D01*
X105510000Y-91590000D02*
X105200000Y-91590000D01*
%TO.C,SW7*%
X82490000Y-100410000D02*
X82490000Y-91590000D01*
X82800000Y-100410000D02*
X82490000Y-100410000D01*
X87010000Y-100410000D02*
X86700000Y-100410000D01*
X81790000Y-98500000D02*
X82290000Y-98000000D01*
X82290000Y-98000000D02*
X81790000Y-97500000D01*
X81790000Y-97500000D02*
X81790000Y-98500000D01*
X82490000Y-91590000D02*
X82800000Y-91590000D01*
X87010000Y-91590000D02*
X87010000Y-100410000D01*
X87010000Y-91590000D02*
X86700000Y-91590000D01*
%TO.C,SW10*%
X110305000Y-52290000D02*
X119195000Y-52290000D01*
X110305000Y-52290000D02*
X110305000Y-47210000D01*
X119195000Y-52290000D02*
X119195000Y-47210000D01*
X110305000Y-47210000D02*
X119195000Y-47210000D01*
%TD*%
%LPC*%
D13*
%TO.C,J2*%
X82250000Y-130500000D03*
D14*
X92670000Y-130500000D03*
D15*
X84370000Y-130500000D03*
%TD*%
D13*
%TO.C,J5*%
X121750000Y-130500000D03*
D14*
X111330000Y-130500000D03*
D15*
X119630000Y-130500000D03*
%TD*%
D13*
%TO.C,J6*%
X121750000Y-142250000D03*
D14*
X111330000Y-142250000D03*
D15*
X119630000Y-142250000D03*
%TD*%
D16*
%TO.C,RV4*%
X109950000Y-86750000D03*
D17*
X112250000Y-93750000D03*
D16*
X119550000Y-86750000D03*
D17*
X114750000Y-93750000D03*
X117250000Y-93750000D03*
%TD*%
D16*
%TO.C,RV2*%
X109950000Y-68250000D03*
D17*
X112250000Y-75250000D03*
D16*
X119550000Y-68250000D03*
D17*
X114750000Y-75250000D03*
X117250000Y-75250000D03*
%TD*%
D16*
%TO.C,RV5*%
X68450000Y-102750000D03*
D17*
X70750000Y-109750000D03*
D16*
X78050000Y-102750000D03*
D17*
X73250000Y-109750000D03*
X75750000Y-109750000D03*
%TD*%
D16*
%TO.C,RV6*%
X68450000Y-68250000D03*
D17*
X70750000Y-75250000D03*
D16*
X78050000Y-68250000D03*
D17*
X73250000Y-75250000D03*
X75750000Y-75250000D03*
%TD*%
D16*
%TO.C,RV7*%
X68450000Y-86750000D03*
D17*
X70750000Y-93750000D03*
D16*
X78050000Y-86750000D03*
D17*
X73250000Y-93750000D03*
X75750000Y-93750000D03*
%TD*%
D16*
%TO.C,RV8*%
X109950000Y-102750000D03*
D17*
X112250000Y-109750000D03*
D16*
X119550000Y-102750000D03*
D17*
X114750000Y-109750000D03*
X117250000Y-109750000D03*
%TD*%
D18*
%TO.C,SW1*%
X114790000Y-117000000D03*
X112250000Y-117000000D03*
X109710000Y-117000000D03*
%TD*%
%TO.C,SW2*%
X78290000Y-117000000D03*
X75750000Y-117000000D03*
X73210000Y-117000000D03*
%TD*%
D19*
%TO.C,RV3*%
X91500000Y-89500000D03*
D20*
X89200000Y-82000000D03*
X98800000Y-82000000D03*
D17*
X94000000Y-89500000D03*
X96500000Y-89500000D03*
%TD*%
D16*
%TO.C,RV1*%
X68450000Y-49750000D03*
D17*
X70750000Y-56750000D03*
D16*
X78050000Y-49750000D03*
D17*
X73250000Y-56750000D03*
X75750000Y-56750000D03*
%TD*%
D15*
%TO.C,J7*%
X103630000Y-130500000D03*
D13*
X105750000Y-130500000D03*
D14*
X95330000Y-130500000D03*
%TD*%
D15*
%TO.C,J9*%
X103630000Y-142250000D03*
D13*
X105750000Y-142250000D03*
D14*
X95330000Y-142250000D03*
%TD*%
D13*
%TO.C,J8*%
X66250000Y-130500000D03*
D14*
X76670000Y-130500000D03*
D15*
X68370000Y-130500000D03*
%TD*%
D18*
%TO.C,SW3*%
X96500000Y-68250000D03*
X91500000Y-68250000D03*
X97100000Y-65750000D03*
X90900000Y-65850000D03*
X96500000Y-63250000D03*
X91500000Y-63250000D03*
%TD*%
D19*
%TO.C,RV9*%
X91500000Y-54750000D03*
D20*
X89200000Y-47250000D03*
X98800000Y-47250000D03*
D17*
X94000000Y-54750000D03*
X96500000Y-54750000D03*
%TD*%
D19*
%TO.C,RV10*%
X91500000Y-117250000D03*
D20*
X89200000Y-109750000D03*
X98800000Y-109750000D03*
D17*
X94000000Y-117250000D03*
X96500000Y-117250000D03*
%TD*%
D13*
%TO.C,J4*%
X82250000Y-142250000D03*
D14*
X92670000Y-142250000D03*
D15*
X84370000Y-142250000D03*
%TD*%
D21*
%TO.C,SW9*%
X107500000Y-63100000D03*
X107500000Y-54900000D03*
D22*
X107500000Y-61000000D03*
D23*
X107500000Y-59000000D03*
X107500000Y-57000000D03*
%TD*%
D13*
%TO.C,J16*%
X66250000Y-142250000D03*
D14*
X76670000Y-142250000D03*
D15*
X68370000Y-142250000D03*
%TD*%
D21*
%TO.C,SW8*%
X82250000Y-81600000D03*
X82250000Y-73400000D03*
D22*
X82250000Y-79500000D03*
D23*
X82250000Y-77500000D03*
X82250000Y-75500000D03*
%TD*%
D19*
%TO.C,D3*%
X78750000Y-137500000D03*
D17*
X81290000Y-137500000D03*
%TD*%
D21*
%TO.C,SW6*%
X103250000Y-100100000D03*
X103250000Y-91900000D03*
D22*
X103250000Y-98000000D03*
D23*
X103250000Y-96000000D03*
X103250000Y-94000000D03*
%TD*%
D21*
%TO.C,SW7*%
X84750000Y-100100000D03*
X84750000Y-91900000D03*
D22*
X84750000Y-98000000D03*
D23*
X84750000Y-96000000D03*
X84750000Y-94000000D03*
%TD*%
D18*
%TO.C,SW10*%
X117290000Y-49750000D03*
X114750000Y-49750000D03*
X112210000Y-49750000D03*
%TD*%
D24*
%TO.C,J1*%
X117330000Y-43252500D03*
D25*
X117330000Y-40712500D03*
X114790000Y-43252500D03*
X114790000Y-40712500D03*
X112250000Y-43252500D03*
X112250000Y-40712500D03*
X109710000Y-43252500D03*
X109710000Y-40712500D03*
X107170000Y-43252500D03*
X107170000Y-40712500D03*
%TD*%
%LPD*%
M02*
