  0
SECTION
  2
HEADER
  9
$ACADVER
  1
AC1009
  9
$INSBASE
 10
0.0
 20
0.0
 30
0.0
  9
$EXTMIN
 10
-7.3881215995307459
 20
-19.9901090374948609
 30
0.0
  9
$EXTMAX
 10
53.6375592615678727
 20
108.1898712597949981
 30
0.0
  9
$LIMMIN
 10
0.0
 20
0.0
  9
$LIMMAX
 10
12.0
 20
9.0
  9
$ORTHOMODE
 70
     0
  9
$REGENMODE
 70
     1
  9
$FILLMODE
 70
     0
  9
$QTEXTMODE
 70
     0
  9
$MIRRTEXT
 70
     0
  9
$DRAGMODE
 70
     2
  9
$LTSCALE
 40
1.0
  9
$OSMODE
 70
    37
  9
$ATTMODE
 70
     1
  9
$TEXTSIZE
 40
0.2
  9
$TRACEWID
 40
0.05
  9
$TEXTSTYLE
  7
STANDARD
  9
$CLAYER
  8
0
  9
$CELTYPE
  6
CONTINUOUS
  9
$CECOLOR
 62
   256
  9
$DIMSCALE
 40
1.0
  9
$DIMASZ
 40
0.18
  9
$DIMEXO
 40
0.0625
  9
$DIMDLI
 40
0.38
  9
$DIMRND
 40
0.0
  9
$DIMDLE
 40
0.0
  9
$DIMEXE
 40
0.18
  9
$DIMTP
 40
0.0
  9
$DIMTM
 40
0.0
  9
$DIMTXT
 40
0.18
  9
$DIMCEN
 40
0.09
  9
$DIMTSZ
 40
0.0
  9
$DIMTOL
 70
     0
  9
$DIMLIM
 70
     0
  9
$DIMTIH
 70
     1
  9
$DIMTOH
 70
     1
  9
$DIMSE1
 70
     0
  9
$DIMSE2
 70
     0
  9
$DIMTAD
 70
     0
  9
$DIMZIN
 70
     0
  9
$DIMBLK
  1

  9
$DIMASO
 70
     1
  9
$DIMSHO
 70
     1
  9
$DIMPOST
  1

  9
$DIMAPOST
  1

  9
$DIMALT
 70
     0
  9
$DIMALTD
 70
     2
  9
$DIMALTF
 40
25.3999999999999986
  9
$DIMLFAC
 40
1.0
  9
$DIMTOFL
 70
     0
  9
$DIMTVP
 40
0.0
  9
$DIMTIX
 70
     0
  9
$DIMSOXD
 70
     0
  9
$DIMSAH
 70
     0
  9
$DIMBLK1
  1

  9
$DIMBLK2
  1

  9
$DIMSTYLE
  2
STANDARD
  9
$DIMCLRD
 70
     0
  9
$DIMCLRE
 70
     0
  9
$DIMCLRT
 70
     0
  9
$DIMTFAC
 40
1.0
  9
$DIMGAP
 40
0.09
  9
$LUNITS
 70
     2
  9
$LUPREC
 70
     4
  9
$SKETCHINC
 40
0.1
  9
$FILLETRAD
 40
0.0
  9
$AUNITS
 70
     0
  9
$AUPREC
 70
     0
  9
$MENU
  1
.
  9
$ELEVATION
 40
0.0
  9
$PELEVATION
 40
0.0
  9
$THICKNESS
 40
0.0
  9
$LIMCHECK
 70
     0
  9
$BLIPMODE
 70
     0
  9
$CHAMFERA
 40
0.0
  9
$CHAMFERB
 40
0.0
  9
$SKPOLY
 70
     0
  9
$TDCREATE
 40
2460338.9617245369590819
  9
$TDUPDATE
 40
2460338.9829282411374152
  9
$TDINDWG
 40
0.0212037037
  9
$TDUSRTIMER
 40
0.0212037037
  9
$USRTIMER
 70
     1
  9
$ANGBASE
 50
0.0
  9
$ANGDIR
 70
     0
  9
$PDMODE
 70
     0
  9
$PDSIZE
 40
0.0
  9
$PLINEWID
 40
0.0
  9
$COORDS
 70
     1
  9
$SPLFRAME
 70
     1
  9
$SPLINETYPE
 70
     6
  9
$SPLINESEGS
 70
     8
  9
$ATTDIA
 70
     1
  9
$ATTREQ
 70
     1
  9
$HANDLING
 70
     1
  9
$HANDSEED
  5
65C
  9
$SURFTAB1
 70
     6
  9
$SURFTAB2
 70
     6
  9
$SURFTYPE
 70
     6
  9
$SURFU
 70
     6
  9
$SURFV
 70
     6
  9
$UCSNAME
  2

  9
$UCSORG
 10
0.0
 20
0.0
 30
0.0
  9
$UCSXDIR
 10
1.0
 20
0.0
 30
0.0
  9
$UCSYDIR
 10
0.0
 20
1.0
 30
0.0
  9
$PUCSNAME
  2

  9
$PUCSORG
 10
0.0
 20
0.0
 30
0.0
  9
$PUCSXDIR
 10
1.0
 20
0.0
 30
0.0
  9
$PUCSYDIR
 10
0.0
 20
1.0
 30
0.0
  9
$USERI1
 70
     0
  9
$USERI2
 70
     0
  9
$USERI3
 70
     0
  9
$USERI4
 70
     0
  9
$USERI5
 70
     0
  9
$USERR1
 40
0.0
  9
$USERR2
 40
0.0
  9
$USERR3
 40
0.0
  9
$USERR4
 40
0.0
  9
$USERR5
 40
0.0
  9
$WORLDVIEW
 70
     1
  9
$SHADEDGE
 70
     3
  9
$SHADEDIF
 70
    70
  9
$TILEMODE
 70
     1
  9
$MAXACTVP
 70
    64
  9
$PLIMCHECK
 70
     0
  9
$PEXTMIN
 10
1.0000000000000000E+20
 20
1.0000000000000000E+20
 30
1.0000000000000000E+20
  9
$PEXTMAX
 10
-1.0000000000000000E+20
 20
-1.0000000000000000E+20
 30
-1.0000000000000000E+20
  9
$PLIMMIN
 10
0.0
 20
0.0
  9
$PLIMMAX
 10
12.0
 20
9.0
  9
$UNITMODE
 70
     0
  9
$VISRETAIN
 70
     1
  9
$PLINEGEN
 70
     0
  9
$PSLTSCALE
 70
     1
  0
ENDSEC
  0
SECTION
  2
TABLES
  0
TABLE
  2
VPORT
 70
     1
  0
VPORT
  2
*ACTIVE
 70
     0
 10
0.0
 20
0.0
 11
1.0
 21
1.0
 12
10.9186523836592606
 22
47.6968757876946867
 13
0.0
 23
0.0
 14
1.0
 24
1.0
 15
0.0
 25
0.0
 16
0.0
 26
0.0
 36
1.0
 17
0.0
 27
0.0
 37
0.0
 40
166.6235778930355877
 41
1.9949152542372881
 42
50.0
 43
0.0
 44
0.0
 50
0.0
 51
0.0
 71
     0
 72
   100
 73
     1
 74
     1
 75
     0
 76
     0
 77
     0
 78
     0
  0
ENDTAB
  0
TABLE
  2
LTYPE
 70
     2
  0
LTYPE
  2
CONTINUOUS
 70
     0
  3
Solid line
 72
    65
 73
     0
 40
0.0
  0
ENDTAB
  0
TABLE
  2
LAYER
 70
     1
  0
LAYER
  2
0
 70
     0
 62
     7
  6
CONTINUOUS
  0
ENDTAB
  0
TABLE
  2
STYLE
 70
     2
  0
STYLE
  2
STANDARD
 70
     0
 40
0.0
 41
1.0
 50
0.0
 71
     0
 42
0.2
  3
txt
  4

  0
STYLE
  2
ANNOTATIVE
 70
     0
 40
0.0
 41
1.0
 50
0.0
 71
     0
 42
0.2
  3
txt
  4

  0
ENDTAB
  0
TABLE
  2
VIEW
 70
     0
  0
ENDTAB
  0
TABLE
  2
UCS
 70
     0
  0
ENDTAB
  0
TABLE
  2
APPID
 70
     5
  0
APPID
  2
ACAD
 70
     0
  0
APPID
  2
ACADANNOTATIVE
 70
     0
  0
APPID
  2
ACAD_EXEMPT_FROM_CAD_STANDARDS
 70
     0
  0
APPID
  2
ACAD_NAV_VCDISPLAY
 70
     0
  0
APPID
  2
ACAD_MLEADERVER
 70
     0
  0
ENDTAB
  0
TABLE
  2
DIMSTYLE
 70
     3
  0
DIMSTYLE
  2
STANDARD
 70
     0
  3

  4

  5

  6

  7

 40
1.0
 41
0.18
 42
0.0625
 43
0.38
 44
0.18
 45
0.0
 46
0.0
 47
0.0
 48
0.0
140
0.18
141
0.09
142
0.0
143
25.3999999999999986
144
1.0
145
0.0
146
1.0
147
0.09
 71
     0
 72
     0
 73
     1
 74
     1
 75
     0
 76
     0
 77
     0
 78
     0
170
     0
171
     2
172
     0
173
     0
174
     0
175
     0
176
     0
177
     0
178
     0
  0
DIMSTYLE
  2
ANNOTATIVE
 70
     0
  3

  4

  5

  6

  7

 40
1.0
 41
0.18
 42
0.0625
 43
0.38
 44
0.18
 45
0.0
 46
0.0
 47
0.0
 48
0.0
140
0.18
141
0.09
142
0.0
143
25.3999999999999986
144
1.0
145
0.0
146
1.0
147
0.09
 71
     0
 72
     0
 73
     1
 74
     1
 75
     0
 76
     0
 77
     0
 78
     0
170
     0
171
     2
172
     0
173
     0
174
     0
175
     0
176
     0
177
     0
178
     0
  0
ENDTAB
  0
ENDSEC
  0
SECTION
  2
BLOCKS
  0
BLOCK
  8
0
  2
$MODEL_SPACE
 70
     0
 10
0.0
 20
0.0
 30
0.0
  3
$MODEL_SPACE
  1

  0
ENDBLK
  5
71
  8
0
  0
BLOCK
 67
     1
  8
0
  2
$PAPER_SPACE
 70
     0
 10
0.0
 20
0.0
 30
0.0
  3
$PAPER_SPACE
  1

  0
ENDBLK
  5
6D
 67
     1
  8
0
  0
ENDSEC
  0
SECTION
  2
ENTITIES
  0
POLYLINE
  5
75
  8
0
 62
     1
 66
     1
 10
0.0
 20
0.0
 30
0.0
 70
     1
  0
VERTEX
  5
403
  8
0
 62
     1
 10
13.6624016372388795
 20
42.2868809128459091
 30
0.0
  0
VERTEX
  5
404
  8
0
 62
     1
 10
13.7500096469989401
 20
42.2868809128459091
 30
0.0
  0
VERTEX
  5
405
  8
0
 62
     1
 10
14.0128589090008493
 20
42.1415404358246093
 30
0.0
  0
VERTEX
  5
406
  8
0
 62
     1
 10
14.1593600912205897
 20
41.8786154756575826
 30
0.0
  0
VERTEX
  5
407
  8
0
 62
     1
 10
14.1593600912205897
 20
41.7900486224727317
 30
0.0
  0
VERTEX
  5
408
  8
0
 62
     1
 10
14.1593600912205897
 20
41.7022387509390313
 30
0.0
  0
VERTEX
  5
409
  8
0
 62
     1
 10
14.0128589090008493
 20
41.4395661179890524
 30
0.0
  0
VERTEX
  5
40A
  8
0
 62
     1
 10
13.7500096469989401
 20
41.2944779681847933
 30
0.0
  0
VERTEX
  5
40B
  8
0
 62
     1
 10
13.6624016372388795
 20
41.2944779681847933
 30
0.0
  0
VERTEX
  5
40C
  8
0
 62
     1
 10
13.5734310605067297
 20
41.2944779681847933
 30
0.0
  0
VERTEX
  5
40D
  8
0
 62
     1
 10
13.3105817985048294
 20
41.4395661179890524
 30
0.0
  0
VERTEX
  5
40E
  8
0
 62
     1
 10
13.1654936487005703
 20
41.7022387509390313
 30
0.0
  0
VERTEX
  5
40F
  8
0
 62
     1
 10
13.1654936487005703
 20
41.7900486224727317
 30
0.0
  0
VERTEX
  5
410
  8
0
 62
     1
 10
13.1654936487005703
 20
41.8786154756575826
 30
0.0
  0
VERTEX
  5
411
  8
0
 62
     1
 10
13.3105817985048294
 20
42.1415404358246093
 30
0.0
  0
VERTEX
  5
412
  8
0
 62
     1
 10
13.5734310605067297
 20
42.2868809128459091
 30
0.0
  0
VERTEX
  5
413
  8
0
 62
     1
 10
13.6624016372388795
 20
42.2868809128459091
 30
0.0
  0
SEQEND
  5
414
  8
0
 62
     1
  0
POLYLINE
  5
88
  8
0
 62
     1
 66
     1
 10
0.0
 20
0.0
 30
0.0
 70
     1
  0
VERTEX
  5
415
  8
0
 62
     1
 10
36.7597285698690328
 20
79.2419681404671934
 30
0.0
  0
VERTEX
  5
416
  8
0
 62
     1
 10
36.8472861141856782
 20
79.2419681404671934
 30
0.0
  0
VERTEX
  5
417
  8
0
 62
     1
 10
37.110211074352712
 20
79.0968799906629414
 30
0.0
  0
VERTEX
  5
418
  8
0
 62
     1
 10
37.2565608602422174
 20
78.8339550304958863
 30
0.0
  0
VERTEX
  5
419
  8
0
 62
     1
 10
37.2565608602422174
 20
78.7451358500940017
 30
0.0
  0
VERTEX
  5
41A
  8
0
 62
     1
 10
37.2565608602422174
 20
78.6573259785602801
 30
0.0
  0
VERTEX
  5
41B
  8
0
 62
     1
 10
37.110211074352712
 20
78.3946533456103225
 30
0.0
  0
VERTEX
  5
41C
  8
0
 62
     1
 10
36.8472861141856782
 20
78.2495651958060421
 30
0.0
  0
VERTEX
  5
41D
  8
0
 62
     1
 10
36.7597285698690328
 20
78.2495651958060421
 30
0.0
  0
VERTEX
  5
41E
  8
0
 62
     1
 10
36.6706570622500578
 20
78.2495651958060421
 30
0.0
  0
VERTEX
  5
41F
  8
0
 62
     1
 10
36.4077321020830382
 20
78.3946533456103225
 30
0.0
  0
VERTEX
  5
420
  8
0
 62
     1
 10
36.2626439522788004
 20
78.6573259785602801
 30
0.0
  0
VERTEX
  5
421
  8
0
 62
     1
 10
36.2626439522788004
 20
78.7451358500940017
 30
0.0
  0
VERTEX
  5
422
  8
0
 62
     1
 10
36.2626439522788004
 20
78.8339550304958863
 30
0.0
  0
VERTEX
  5
423
  8
0
 62
     1
 10
36.4077321020830382
 20
79.0968799906629414
 30
0.0
  0
VERTEX
  5
424
  8
0
 62
     1
 10
36.6706570622500578
 20
79.2419681404671934
 30
0.0
  0
VERTEX
  5
425
  8
0
 62
     1
 10
36.7597285698690328
 20
79.2419681404671934
 30
0.0
  0
SEQEND
  5
426
  8
0
 62
     1
  0
POLYLINE
  5
9B
  8
0
 62
     1
 66
     1
 10
0.0
 20
0.0
 30
0.0
 70
     1
  0
VERTEX
  5
427
  8
0
 62
     1
 10
2.1138391018106248
 20
70.0025024337149802
 30
0.0
  0
VERTEX
  5
428
  8
0
 62
     1
 10
2.2014471115706908
 20
70.0025024337149802
 30
0.0
  0
VERTEX
  5
429
  8
0
 62
     1
 10
2.4642963735725969
 20
69.8574142839106997
 30
0.0
  0
VERTEX
  5
42A
  8
0
 62
     1
 10
2.61079755579234
 20
69.5947416509607422
 30
0.0
  0
VERTEX
  5
42B
  8
0
 62
     1
 10
2.61079755579234
 20
69.5069317794270347
 30
0.0
  0
VERTEX
  5
42C
  8
0
 62
     1
 10
2.61079755579234
 20
69.4193742351103822
 30
0.0
  0
VERTEX
  5
42D
  8
0
 62
     1
 10
2.4642963735725969
 20
69.1567016021604246
 30
0.0
  0
VERTEX
  5
42E
  8
0
 62
     1
 10
2.2014471115706908
 20
69.0100994890538715
 30
0.0
  0
VERTEX
  5
42F
  8
0
 62
     1
 10
2.1138391018106248
 20
69.0100994890538715
 30
0.0
  0
VERTEX
  5
430
  8
0
 62
     1
 10
2.024868525078483
 20
69.0100994890538715
 30
0.0
  0
VERTEX
  5
431
  8
0
 62
     1
 10
1.7620192630765781
 20
69.1567016021604246
 30
0.0
  0
VERTEX
  5
432
  8
0
 62
     1
 10
1.6169311132723201
 20
69.4193742351103822
 30
0.0
  0
VERTEX
  5
433
  8
0
 62
     1
 10
1.6169311132723201
 20
69.5069317794270347
 30
0.0
  0
VERTEX
  5
434
  8
0
 62
     1
 10
1.6169311132723201
 20
69.5947416509607422
 30
0.0
  0
VERTEX
  5
435
  8
0
 62
     1
 10
1.7620192630765781
 20
69.8574142839106997
 30
0.0
  0
VERTEX
  5
436
  8
0
 62
     1
 10
2.024868525078483
 20
70.0025024337149802
 30
0.0
  0
VERTEX
  5
437
  8
0
 62
     1
 10
2.1138391018106248
 20
70.0025024337149802
 30
0.0
  0
SEQEND
  5
438
  8
0
 62
     1
  0
POLYLINE
  5
AE
  8
0
 62
     1
 66
     1
 10
0.0
 20
0.0
 30
0.0
 70
     1
  0
VERTEX
  5
439
  8
0
 62
     1
 10
22.9016654822174317
 20
72.3135674146840159
 30
0.0
  0
VERTEX
  5
43A
  8
0
 62
     1
 10
22.9892230265340984
 20
72.3135674146840159
 30
0.0
  0
VERTEX
  5
43B
  8
0
 62
     1
 10
23.2518956594840702
 20
72.1684792648797782
 30
0.0
  0
VERTEX
  5
43C
  8
0
 62
     1
 10
23.3984977725906305
 20
71.9055543047127514
 30
0.0
  0
VERTEX
  5
43D
  8
0
 62
     1
 10
23.3984977725906305
 20
71.8164827970937694
 30
0.0
  0
VERTEX
  5
43E
  8
0
 62
     1
 10
23.3984977725906305
 20
71.7289252527771453
 30
0.0
  0
VERTEX
  5
43F
  8
0
 62
     1
 10
23.2518956594840702
 20
71.4660002926100759
 30
0.0
  0
VERTEX
  5
440
  8
0
 62
     1
 10
22.9892230265340984
 20
71.3196505067205919
 30
0.0
  0
VERTEX
  5
441
  8
0
 62
     1
 10
22.9016654822174317
 20
71.3196505067205919
 30
0.0
  0
VERTEX
  5
442
  8
0
 62
     1
 10
22.8125939745984816
 20
71.3196505067205919
 30
0.0
  0
VERTEX
  5
443
  8
0
 62
     1
 10
22.5496690144314513
 20
71.4660002926100759
 30
0.0
  0
VERTEX
  5
444
  8
0
 62
     1
 10
22.4045808646271993
 20
71.7289252527771453
 30
0.0
  0
VERTEX
  5
445
  8
0
 62
     1
 10
22.4045808646271993
 20
71.8164827970937694
 30
0.0
  0
VERTEX
  5
446
  8
0
 62
     1
 10
22.4045808646271993
 20
71.9055543047127514
 30
0.0
  0
VERTEX
  5
447
  8
0
 62
     1
 10
22.5496690144314513
 20
72.1684792648797782
 30
0.0
  0
VERTEX
  5
448
  8
0
 62
     1
 10
22.8125939745984816
 20
72.3135674146840159
 30
0.0
  0
VERTEX
  5
449
  8
0
 62
     1
 10
22.9016654822174317
 20
72.3135674146840159
 30
0.0
  0
SEQEND
  5
44A
  8
0
 62
     1
  0
POLYLINE
  5
C1
  8
0
 62
     1
 66
     1
 10
0.0
 20
0.0
 30
0.0
 70
     1
  0
VERTEX
  5
44B
  8
0
 62
     1
 10
43.6878769684351269
 20
70.0025024337149802
 30
0.0
  0
VERTEX
  5
44C
  8
0
 62
     1
 10
43.7754345127517865
 20
70.0025024337149802
 30
0.0
  0
VERTEX
  5
44D
  8
0
 62
     1
 10
44.0383594729188133
 20
69.8574142839106997
 30
0.0
  0
VERTEX
  5
44E
  8
0
 62
     1
 10
44.1847092588083328
 20
69.5947416509607422
 30
0.0
  0
VERTEX
  5
44F
  8
0
 62
     1
 10
44.1847092588083328
 20
69.5069317794270347
 30
0.0
  0
VERTEX
  5
450
  8
0
 62
     1
 10
44.1847092588083328
 20
69.4193742351103822
 30
0.0
  0
VERTEX
  5
451
  8
0
 62
     1
 10
44.0383594729188133
 20
69.1567016021604246
 30
0.0
  0
VERTEX
  5
452
  8
0
 62
     1
 10
43.7754345127517865
 20
69.0100994890538715
 30
0.0
  0
VERTEX
  5
453
  8
0
 62
     1
 10
43.6878769684351269
 20
69.0100994890538715
 30
0.0
  0
VERTEX
  5
454
  8
0
 62
     1
 10
43.5988054608161733
 20
69.0100994890538715
 30
0.0
  0
VERTEX
  5
455
  8
0
 62
     1
 10
43.3358805006491394
 20
69.1567016021604246
 30
0.0
  0
VERTEX
  5
456
  8
0
 62
     1
 10
43.1907923508448874
 20
69.4193742351103822
 30
0.0
  0
VERTEX
  5
457
  8
0
 62
     1
 10
43.1907923508448874
 20
69.5069317794270347
 30
0.0
  0
VERTEX
  5
458
  8
0
 62
     1
 10
43.1907923508448874
 20
69.5947416509607422
 30
0.0
  0
VERTEX
  5
459
  8
0
 62
     1
 10
43.3358805006491394
 20
69.8574142839106997
 30
0.0
  0
VERTEX
  5
45A
  8
0
 62
     1
 10
43.5988054608161733
 20
70.0025024337149802
 30
0.0
  0
VERTEX
  5
45B
  8
0
 62
     1
 10
43.6878769684351269
 20
70.0025024337149802
 30
0.0
  0
SEQEND
  5
45C
  8
0
 62
     1
  0
POLYLINE
  5
D4
  8
0
 62
     1
 66
     1
 10
0.0
 20
0.0
 30
0.0
 70
     1
  0
VERTEX
  5
45D
  8
0
 62
     1
 10
32.1406265345355493
 20
42.2868809128459091
 30
0.0
  0
VERTEX
  5
45E
  8
0
 62
     1
 10
32.2284364060692496
 20
42.2868809128459091
 30
0.0
  0
VERTEX
  5
45F
  8
0
 62
     1
 10
32.4911090390192214
 20
42.1415404358246093
 30
0.0
  0
VERTEX
  5
460
  8
0
 62
     1
 10
32.6361971888234805
 20
41.8786154756575826
 30
0.0
  0
VERTEX
  5
461
  8
0
 62
     1
 10
32.6361971888234805
 20
41.7900486224727317
 30
0.0
  0
VERTEX
  5
462
  8
0
 62
     1
 10
32.6361971888234805
 20
41.7022387509390313
 30
0.0
  0
VERTEX
  5
463
  8
0
 62
     1
 10
32.4911090390192214
 20
41.4395661179890524
 30
0.0
  0
VERTEX
  5
464
  8
0
 62
     1
 10
32.2284364060692496
 20
41.2944779681847933
 30
0.0
  0
VERTEX
  5
465
  8
0
 62
     1
 10
32.1406265345355493
 20
41.2944779681847933
 30
0.0
  0
VERTEX
  5
466
  8
0
 62
     1
 10
32.0518073541336435
 20
41.2944779681847933
 30
0.0
  0
VERTEX
  5
467
  8
0
 62
     1
 10
31.7888823939666096
 20
41.4395661179890524
 30
0.0
  0
VERTEX
  5
468
  8
0
 62
     1
 10
31.6437942441623612
 20
41.7022387509390313
 30
0.0
  0
VERTEX
  5
469
  8
0
 62
     1
 10
31.6437942441623612
 20
41.7900486224727317
 30
0.0
  0
VERTEX
  5
46A
  8
0
 62
     1
 10
31.6437942441623612
 20
41.8786154756575826
 30
0.0
  0
VERTEX
  5
46B
  8
0
 62
     1
 10
31.7888823939666096
 20
42.1415404358246093
 30
0.0
  0
VERTEX
  5
46C
  8
0
 62
     1
 10
32.0518073541336435
 20
42.2868809128459091
 30
0.0
  0
VERTEX
  5
46D
  8
0
 62
     1
 10
32.1406265345355493
 20
42.2868809128459091
 30
0.0
  0
SEQEND
  5
46E
  8
0
 62
     1
  0
POLYLINE
  5
E7
  8
0
 62
     1
 66
     1
 10
0.0
 20
0.0
 30
0.0
 70
     1
  0
VERTEX
  5
46F
  8
0
 62
     1
 10
11.3529767831806598
 20
60.7650553446991779
 30
0.0
  0
VERTEX
  5
470
  8
0
 62
     1
 10
11.4405847929407294
 20
60.7650553446991779
 30
0.0
  0
VERTEX
  5
471
  8
0
 62
     1
 10
11.7034340549426297
 20
60.6199671948949188
 30
0.0
  0
VERTEX
  5
472
  8
0
 62
     1
 10
11.8499100044406696
 20
60.3570422347278992
 30
0.0
  0
VERTEX
  5
473
  8
0
 62
     1
 10
11.8499100044406696
 20
60.2679707271089313
 30
0.0
  0
VERTEX
  5
474
  8
0
 62
     1
 10
11.8499100044406696
 20
60.1804131827922788
 30
0.0
  0
VERTEX
  5
475
  8
0
 62
     1
 10
11.7034340549426297
 20
59.9174882226252592
 30
0.0
  0
VERTEX
  5
476
  8
0
 62
     1
 10
11.4405847929407294
 20
59.7711384367357468
 30
0.0
  0
VERTEX
  5
477
  8
0
 62
     1
 10
11.3529767831806598
 20
59.7711384367357468
 30
0.0
  0
VERTEX
  5
478
  8
0
 62
     1
 10
11.2640062064485207
 20
59.7711384367357468
 30
0.0
  0
VERTEX
  5
479
  8
0
 62
     1
 10
11.0011569444466097
 20
59.9174882226252592
 30
0.0
  0
VERTEX
  5
47A
  8
0
 62
     1
 10
10.8560435619206501
 20
60.1804131827922788
 30
0.0
  0
VERTEX
  5
47B
  8
0
 62
     1
 10
10.8560435619206501
 20
60.2679707271089313
 30
0.0
  0
VERTEX
  5
47C
  8
0
 62
     1
 10
10.8560435619206501
 20
60.3570422347278992
 30
0.0
  0
VERTEX
  5
47D
  8
0
 62
     1
 10
11.0011569444466097
 20
60.6199671948949188
 30
0.0
  0
VERTEX
  5
47E
  8
0
 62
     1
 10
11.2640062064485207
 20
60.7650553446991779
 30
0.0
  0
VERTEX
  5
47F
  8
0
 62
     1
 10
11.3529767831806598
 20
60.7650553446991779
 30
0.0
  0
SEQEND
  5
480
  8
0
 62
     1
  0
POLYLINE
  5
FA
  8
0
 62
     1
 66
     1
 10
0.0
 20
0.0
 30
0.0
 70
     1
  0
VERTEX
  5
481
  8
0
 62
     1
 10
22.9016654822174317
 20
56.1449440004975031
 30
0.0
  0
VERTEX
  5
482
  8
0
 62
     1
 10
22.9892230265340984
 20
56.1449440004975031
 30
0.0
  0
VERTEX
  5
483
  8
0
 62
     1
 10
23.2518956594840702
 20
55.999603523476182
 30
0.0
  0
VERTEX
  5
484
  8
0
 62
     1
 10
23.3984977725906305
 20
55.7366785633091695
 30
0.0
  0
VERTEX
  5
485
  8
0
 62
     1
 10
23.3984977725906305
 20
55.649121018992517
 30
0.0
  0
VERTEX
  5
486
  8
0
 62
     1
 10
23.3984977725906305
 20
55.5613111474588024
 30
0.0
  0
VERTEX
  5
487
  8
0
 62
     1
 10
23.2518956594840702
 20
55.2986385145088306
 30
0.0
  0
VERTEX
  5
488
  8
0
 62
     1
 10
22.9892230265340984
 20
55.1520364014022633
 30
0.0
  0
VERTEX
  5
489
  8
0
 62
     1
 10
22.9016654822174317
 20
55.1520364014022633
 30
0.0
  0
VERTEX
  5
48A
  8
0
 62
     1
 10
22.8125939745984816
 20
55.1520364014022633
 30
0.0
  0
VERTEX
  5
48B
  8
0
 62
     1
 10
22.5496690144314513
 20
55.2986385145088306
 30
0.0
  0
VERTEX
  5
48C
  8
0
 62
     1
 10
22.4045808646271993
 20
55.5613111474588024
 30
0.0
  0
VERTEX
  5
48D
  8
0
 62
     1
 10
22.4045808646271993
 20
55.649121018992517
 30
0.0
  0
VERTEX
  5
48E
  8
0
 62
     1
 10
22.4045808646271993
 20
55.7366785633091695
 30
0.0
  0
VERTEX
  5
48F
  8
0
 62
     1
 10
22.5496690144314513
 20
55.999603523476182
 30
0.0
  0
VERTEX
  5
490
  8
0
 62
     1
 10
22.8125939745984816
 20
56.1449440004975031
 30
0.0
  0
VERTEX
  5
491
  8
0
 62
     1
 10
22.9016654822174317
 20
56.1449440004975031
 30
0.0
  0
SEQEND
  5
492
  8
0
 62
     1
  0
POLYLINE
  5
10D
  8
0
 62
     1
 66
     1
 10
0.0
 20
0.0
 30
0.0
 70
     1
  0
VERTEX
  5
493
  8
0
 62
     1
 10
2.1138391018106248
 20
51.5258419651640196
 30
0.0
  0
VERTEX
  5
494
  8
0
 62
     1
 10
2.2014471115706908
 20
51.5258419651640196
 30
0.0
  0
VERTEX
  5
495
  8
0
 62
     1
 10
2.4642963735725969
 20
51.3807538153597676
 30
0.0
  0
VERTEX
  5
496
  8
0
 62
     1
 10
2.61079755579234
 20
51.1180811824098029
 30
0.0
  0
VERTEX
  5
497
  8
0
 62
     1
 10
2.61079755579234
 20
51.0290096747908279
 30
0.0
  0
VERTEX
  5
498
  8
0
 62
     1
 10
2.61079755579234
 20
50.9414521304741825
 30
0.0
  0
VERTEX
  5
499
  8
0
 62
     1
 10
2.4642963735725969
 20
50.6785271703071487
 30
0.0
  0
VERTEX
  5
49A
  8
0
 62
     1
 10
2.2014471115706908
 20
50.5319250572005814
 30
0.0
  0
VERTEX
  5
49B
  8
0
 62
     1
 10
2.1138391018106248
 20
50.5319250572005814
 30
0.0
  0
VERTEX
  5
49C
  8
0
 62
     1
 10
2.024868525078483
 20
50.5319250572005814
 30
0.0
  0
VERTEX
  5
49D
  8
0
 62
     1
 10
1.7620192630765781
 20
50.6785271703071487
 30
0.0
  0
VERTEX
  5
49E
  8
0
 62
     1
 10
1.6169311132723201
 20
50.9414521304741825
 30
0.0
  0
VERTEX
  5
49F
  8
0
 62
     1
 10
1.6169311132723201
 20
51.0290096747908279
 30
0.0
  0
VERTEX
  5
4A0
  8
0
 62
     1
 10
1.6169311132723201
 20
51.1180811824098029
 30
0.0
  0
VERTEX
  5
4A1
  8
0
 62
     1
 10
1.7620192630765781
 20
51.3807538153597676
 30
0.0
  0
VERTEX
  5
4A2
  8
0
 62
     1
 10
2.024868525078483
 20
51.5258419651640196
 30
0.0
  0
VERTEX
  5
4A3
  8
0
 62
     1
 10
2.1138391018106248
 20
51.5258419651640196
 30
0.0
  0
SEQEND
  5
4A4
  8
0
 62
     1
  0
POLYLINE
  5
120
  8
0
 62
     1
 66
     1
 10
0.0
 20
0.0
 30
0.0
 70
     1
  0
VERTEX
  5
4A5
  8
0
 62
     1
 10
2.1138391018106248
 20
35.358480187062753
 30
0.0
  0
VERTEX
  5
4A6
  8
0
 62
     1
 10
2.2014471115706908
 20
35.358480187062753
 30
0.0
  0
VERTEX
  5
4A7
  8
0
 62
     1
 10
2.4642963735725969
 20
35.213392037258501
 30
0.0
  0
VERTEX
  5
4A8
  8
0
 62
     1
 10
2.61079755579234
 20
34.9504670770914814
 30
0.0
  0
VERTEX
  5
4A9
  8
0
 62
     1
 10
2.61079755579234
 20
34.8613955694725206
 30
0.0
  0
VERTEX
  5
4AA
  8
0
 62
     1
 10
2.61079755579234
 20
34.773838025155861
 30
0.0
  0
VERTEX
  5
4AB
  8
0
 62
     1
 10
2.4642963735725969
 20
34.5109130649888414
 30
0.0
  0
VERTEX
  5
4AC
  8
0
 62
     1
 10
2.2014471115706908
 20
34.3645632790993432
 30
0.0
  0
VERTEX
  5
4AD
  8
0
 62
     1
 10
2.1138391018106248
 20
34.3645632790993432
 30
0.0
  0
VERTEX
  5
4AE
  8
0
 62
     1
 10
2.024868525078483
 20
34.3645632790993432
 30
0.0
  0
VERTEX
  5
4AF
  8
0
 62
     1
 10
1.7620192630765781
 20
34.5109130649888414
 30
0.0
  0
VERTEX
  5
4B0
  8
0
 62
     1
 10
1.6169311132723201
 20
34.773838025155861
 30
0.0
  0
VERTEX
  5
4B1
  8
0
 62
     1
 10
1.6169311132723201
 20
34.8613955694725206
 30
0.0
  0
VERTEX
  5
4B2
  8
0
 62
     1
 10
1.6169311132723201
 20
34.9504670770914814
 30
0.0
  0
VERTEX
  5
4B3
  8
0
 62
     1
 10
1.7620192630765781
 20
35.213392037258501
 30
0.0
  0
VERTEX
  5
4B4
  8
0
 62
     1
 10
2.024868525078483
 20
35.358480187062753
 30
0.0
  0
VERTEX
  5
4B5
  8
0
 62
     1
 10
2.1138391018106248
 20
35.358480187062753
 30
0.0
  0
SEQEND
  5
4B6
  8
0
 62
     1
  0
POLYLINE
  5
133
  8
0
 62
     1
 66
     1
 10
0.0
 20
0.0
 30
0.0
 70
     1
  0
VERTEX
  5
4B7
  8
0
 62
     1
 10
43.6878769684351269
 20
35.358480187062753
 30
0.0
  0
VERTEX
  5
4B8
  8
0
 62
     1
 10
43.7754345127517865
 20
35.358480187062753
 30
0.0
  0
VERTEX
  5
4B9
  8
0
 62
     1
 10
44.0383594729188133
 20
35.213392037258501
 30
0.0
  0
VERTEX
  5
4BA
  8
0
 62
     1
 10
44.1847092588083328
 20
34.9504670770914814
 30
0.0
  0
VERTEX
  5
4BB
  8
0
 62
     1
 10
44.1847092588083328
 20
34.8613955694725206
 30
0.0
  0
VERTEX
  5
4BC
  8
0
 62
     1
 10
44.1847092588083328
 20
34.773838025155861
 30
0.0
  0
VERTEX
  5
4BD
  8
0
 62
     1
 10
44.0383594729188133
 20
34.5109130649888414
 30
0.0
  0
VERTEX
  5
4BE
  8
0
 62
     1
 10
43.7754345127517865
 20
34.3645632790993432
 30
0.0
  0
VERTEX
  5
4BF
  8
0
 62
     1
 10
43.6878769684351269
 20
34.3645632790993432
 30
0.0
  0
VERTEX
  5
4C0
  8
0
 62
     1
 10
43.5988054608161733
 20
34.3645632790993432
 30
0.0
  0
VERTEX
  5
4C1
  8
0
 62
     1
 10
43.3358805006491394
 20
34.5109130649888414
 30
0.0
  0
VERTEX
  5
4C2
  8
0
 62
     1
 10
43.1907923508448874
 20
34.773838025155861
 30
0.0
  0
VERTEX
  5
4C3
  8
0
 62
     1
 10
43.1907923508448874
 20
34.8613955694725206
 30
0.0
  0
VERTEX
  5
4C4
  8
0
 62
     1
 10
43.1907923508448874
 20
34.9504670770914814
 30
0.0
  0
VERTEX
  5
4C5
  8
0
 62
     1
 10
43.3358805006491394
 20
35.213392037258501
 30
0.0
  0
VERTEX
  5
4C6
  8
0
 62
     1
 10
43.5988054608161733
 20
35.358480187062753
 30
0.0
  0
VERTEX
  5
4C7
  8
0
 62
     1
 10
43.6878769684351269
 20
35.358480187062753
 30
0.0
  0
SEQEND
  5
4C8
  8
0
 62
     1
  0
POLYLINE
  5
146
  8
0
 62
     1
 66
     1
 10
0.0
 20
0.0
 30
0.0
 70
     1
  0
VERTEX
  5
4C9
  8
0
 62
     1
 10
4.4233144213122477
 20
21.5483592706508489
 30
0.0
  0
VERTEX
  5
4CA
  8
0
 62
     1
 10
4.5109224310723137
 20
21.5483592706508489
 30
0.0
  0
VERTEX
  5
4CB
  8
0
 62
     1
 10
4.7737464603525144
 20
21.4032711208465898
 30
0.0
  0
VERTEX
  5
4CC
  8
0
 62
     1
 10
4.9202224098505543
 20
21.1405984878966215
 30
0.0
  0
VERTEX
  5
4CD
  8
0
 62
     1
 10
4.9202224098505543
 20
21.0527886163629105
 30
0.0
  0
VERTEX
  5
4CE
  8
0
 62
     1
 10
4.9202224098505543
 20
20.9652310720462509
 30
0.0
  0
VERTEX
  5
4CF
  8
0
 62
     1
 10
4.7737464603525144
 20
20.7023061118792384
 30
0.0
  0
VERTEX
  5
4D0
  8
0
 62
     1
 10
4.5109224310723137
 20
20.5559563259897189
 30
0.0
  0
VERTEX
  5
4D1
  8
0
 62
     1
 10
4.4233144213122477
 20
20.5559563259897189
 30
0.0
  0
VERTEX
  5
4D2
  8
0
 62
     1
 10
4.3343186118584001
 20
20.5559563259897189
 30
0.0
  0
VERTEX
  5
4D3
  8
0
 62
     1
 10
4.0714693498564953
 20
20.7023061118792384
 30
0.0
  0
VERTEX
  5
4D4
  8
0
 62
     1
 10
3.9263559673305339
 20
20.9652310720462509
 30
0.0
  0
VERTEX
  5
4D5
  8
0
 62
     1
 10
3.9263559673305339
 20
21.0527886163629105
 30
0.0
  0
VERTEX
  5
4D6
  8
0
 62
     1
 10
3.9263559673305339
 20
21.1405984878966215
 30
0.0
  0
VERTEX
  5
4D7
  8
0
 62
     1
 10
4.0714693498564953
 20
21.4032711208465898
 30
0.0
  0
VERTEX
  5
4D8
  8
0
 62
     1
 10
4.3343186118584001
 20
21.5483592706508489
 30
0.0
  0
VERTEX
  5
4D9
  8
0
 62
     1
 10
4.4233144213122477
 20
21.5483592706508489
 30
0.0
  0
SEQEND
  5
4DA
  8
0
 62
     1
  0
POLYLINE
  5
159
  8
0
 62
     1
 66
     1
 10
0.0
 20
0.0
 30
0.0
 70
     1
  0
VERTEX
  5
4DB
  8
0
 62
     1
 10
41.3783259507683923
 20
21.5483592706508489
 30
0.0
  0
VERTEX
  5
4DC
  8
0
 62
     1
 10
41.4658834950850519
 20
21.5483592706508489
 30
0.0
  0
VERTEX
  5
4DD
  8
0
 62
     1
 10
41.7288084552520715
 20
21.4032711208465898
 30
0.0
  0
VERTEX
  5
4DE
  8
0
 62
     1
 10
41.8754105683586317
 20
21.1405984878966215
 30
0.0
  0
VERTEX
  5
4DF
  8
0
 62
     1
 10
41.8754105683586317
 20
21.0527886163629105
 30
0.0
  0
VERTEX
  5
4E0
  8
0
 62
     1
 10
41.8754105683586317
 20
20.9652310720462509
 30
0.0
  0
VERTEX
  5
4E1
  8
0
 62
     1
 10
41.7288084552520715
 20
20.7023061118792384
 30
0.0
  0
VERTEX
  5
4E2
  8
0
 62
     1
 10
41.4658834950850519
 20
20.5559563259897189
 30
0.0
  0
VERTEX
  5
4E3
  8
0
 62
     1
 10
41.3783259507683923
 20
20.5559563259897189
 30
0.0
  0
VERTEX
  5
4E4
  8
0
 62
     1
 10
41.2892544431494315
 20
20.5559563259897189
 30
0.0
  0
VERTEX
  5
4E5
  8
0
 62
     1
 10
41.0265818101994668
 20
20.7023061118792384
 30
0.0
  0
VERTEX
  5
4E6
  8
0
 62
     1
 10
40.8814936603952006
 20
20.9652310720462509
 30
0.0
  0
VERTEX
  5
4E7
  8
0
 62
     1
 10
40.8814936603952006
 20
21.0527886163629105
 30
0.0
  0
VERTEX
  5
4E8
  8
0
 62
     1
 10
40.8814936603952006
 20
21.1405984878966215
 30
0.0
  0
VERTEX
  5
4E9
  8
0
 62
     1
 10
41.0265818101994668
 20
21.4032711208465898
 30
0.0
  0
VERTEX
  5
4EA
  8
0
 62
     1
 10
41.2892544431494315
 20
21.5483592706508489
 30
0.0
  0
VERTEX
  5
4EB
  8
0
 62
     1
 10
41.3783259507683923
 20
21.5483592706508489
 30
0.0
  0
SEQEND
  5
4EC
  8
0
 62
     1
  0
POLYLINE
  5
16C
  8
0
 62
     1
 66
     1
 10
0.0
 20
0.0
 30
0.0
 70
     1
  0
VERTEX
  5
4ED
  8
0
 62
     1
 10
9.0435519291224526
 20
0.7127168826128935
 30
0.0
  0
VERTEX
  5
4EE
  8
0
 62
     1
 10
9.1311599388825186
 20
0.7127168826128935
 30
0.0
  0
VERTEX
  5
4EF
  8
0
 62
     1
 10
9.3940092008844243
 20
0.5676287328086344
 30
0.0
  0
VERTEX
  5
4F0
  8
0
 62
     1
 10
9.5404599176607583
 20
0.3047794708067277
 30
0.0
  0
VERTEX
  5
4F1
  8
0
 62
     1
 10
9.5404599176607583
 20
0.2157836613528783
 30
0.0
  0
VERTEX
  5
4F2
  8
0
 62
     1
 10
9.5404599176607583
 20
0.1281756515928105
 30
0.0
  0
VERTEX
  5
4F3
  8
0
 62
     1
 10
9.3940092008844243
 20
-0.1346483776873892
 30
0.0
  0
VERTEX
  5
4F4
  8
0
 62
     1
 10
9.1311599388825186
 20
-0.2811495599071287
 30
0.0
  0
VERTEX
  5
4F5
  8
0
 62
     1
 10
9.0435519291224526
 20
-0.2811495599071287
 30
0.0
  0
VERTEX
  5
4F6
  8
0
 62
     1
 10
8.9545813523903082
 20
-0.2811495599071287
 30
0.0
  0
VERTEX
  5
4F7
  8
0
 62
     1
 10
8.6917320903884061
 20
-0.1346483776873892
 30
0.0
  0
VERTEX
  5
4F8
  8
0
 62
     1
 10
8.5466187078624412
 20
0.1281756515928105
 30
0.0
  0
VERTEX
  5
4F9
  8
0
 62
     1
 10
8.5466187078624412
 20
0.2157836613528783
 30
0.0
  0
VERTEX
  5
4FA
  8
0
 62
     1
 10
8.5466187078624412
 20
0.3047794708067277
 30
0.0
  0
VERTEX
  5
4FB
  8
0
 62
     1
 10
8.6917320903884061
 20
0.5676287328086344
 30
0.0
  0
VERTEX
  5
4FC
  8
0
 62
     1
 10
8.9545813523903082
 20
0.7127168826128935
 30
0.0
  0
VERTEX
  5
4FD
  8
0
 62
     1
 10
9.0435519291224526
 20
0.7127168826128935
 30
0.0
  0
SEQEND
  5
4FE
  8
0
 62
     1
  0
POLYLINE
  5
17F
  8
0
 62
     1
 66
     1
 10
0.0
 20
0.0
 30
0.0
 70
     1
  0
VERTEX
  5
4FF
  8
0
 62
     1
 10
0.6586428083564745
 20
7.6423540117595987
 30
0.0
  0
VERTEX
  5
500
  8
0
 62
     1
 10
0.7462508181165405
 20
7.6423540117595987
 30
0.0
  0
VERTEX
  5
501
  8
0
 62
     1
 10
1.0091000801184451
 20
7.4972658619553441
 30
0.0
  0
VERTEX
  5
502
  8
0
 62
     1
 10
1.15555079689478
 20
7.2343409017883218
 30
0.0
  0
VERTEX
  5
503
  8
0
 62
     1
 10
1.15555079689478
 20
7.1455217213864088
 30
0.0
  0
VERTEX
  5
504
  8
0
 62
     1
 10
1.15555079689478
 20
7.057964177069751
 30
0.0
  0
VERTEX
  5
505
  8
0
 62
     1
 10
1.0091000801184451
 20
6.795039216902734
 30
0.0
  0
VERTEX
  5
506
  8
0
 62
     1
 10
0.7462508181165405
 20
6.6484371037961729
 30
0.0
  0
VERTEX
  5
507
  8
0
 62
     1
 10
0.6586428083564745
 20
6.6484371037961729
 30
0.0
  0
VERTEX
  5
508
  8
0
 62
     1
 10
0.5696722316243321
 20
6.6484371037961729
 30
0.0
  0
VERTEX
  5
509
  8
0
 62
     1
 10
0.3068229696224259
 20
6.795039216902734
 30
0.0
  0
VERTEX
  5
50A
  8
0
 62
     1
 10
0.1617095870964644
 20
7.057964177069751
 30
0.0
  0
VERTEX
  5
50B
  8
0
 62
     1
 10
0.1617095870964644
 20
7.1455217213864088
 30
0.0
  0
VERTEX
  5
50C
  8
0
 62
     1
 10
0.1617095870964644
 20
7.2343409017883218
 30
0.0
  0
VERTEX
  5
50D
  8
0
 62
     1
 10
0.3068229696224259
 20
7.4972658619553441
 30
0.0
  0
VERTEX
  5
50E
  8
0
 62
     1
 10
0.5696722316243321
 20
7.6423540117595987
 30
0.0
  0
VERTEX
  5
50F
  8
0
 62
     1
 10
0.6586428083564745
 20
7.6423540117595987
 30
0.0
  0
SEQEND
  5
510
  8
0
 62
     1
  0
POLYLINE
  5
192
  8
0
 62
     1
 66
     1
 10
0.0
 20
0.0
 30
0.0
 70
     1
  0
VERTEX
  5
511
  8
0
 62
     1
 10
45.1427957019505328
 20
7.6423540117595987
 30
0.0
  0
VERTEX
  5
512
  8
0
 62
     1
 10
45.2306055734842474
 20
7.6423540117595987
 30
0.0
  0
VERTEX
  5
513
  8
0
 62
     1
 10
45.4932782064341978
 20
7.4972658619553441
 30
0.0
  0
VERTEX
  5
514
  8
0
 62
     1
 10
45.6398803195407581
 20
7.2343409017883218
 30
0.0
  0
VERTEX
  5
515
  8
0
 62
     1
 10
45.6398803195407581
 20
7.1455217213864088
 30
0.0
  0
VERTEX
  5
516
  8
0
 62
     1
 10
45.6398803195407581
 20
7.057964177069751
 30
0.0
  0
VERTEX
  5
517
  8
0
 62
     1
 10
45.4932782064341978
 20
6.795039216902734
 30
0.0
  0
VERTEX
  5
518
  8
0
 62
     1
 10
45.2306055734842474
 20
6.6484371037961729
 30
0.0
  0
VERTEX
  5
519
  8
0
 62
     1
 10
45.1427957019505328
 20
6.6484371037961729
 30
0.0
  0
VERTEX
  5
51A
  8
0
 62
     1
 10
45.0552381576338732
 20
6.6484371037961729
 30
0.0
  0
VERTEX
  5
51B
  8
0
 62
     1
 10
44.7925655246839085
 20
6.795039216902734
 30
0.0
  0
VERTEX
  5
51C
  8
0
 62
     1
 10
44.6474773748796423
 20
7.057964177069751
 30
0.0
  0
VERTEX
  5
51D
  8
0
 62
     1
 10
44.6474773748796423
 20
7.1455217213864088
 30
0.0
  0
VERTEX
  5
51E
  8
0
 62
     1
 10
44.6474773748796423
 20
7.2343409017883218
 30
0.0
  0
VERTEX
  5
51F
  8
0
 62
     1
 10
44.7925655246839085
 20
7.4972658619553441
 30
0.0
  0
VERTEX
  5
520
  8
0
 62
     1
 10
45.0552381576338732
 20
7.6423540117595987
 30
0.0
  0
VERTEX
  5
521
  8
0
 62
     1
 10
45.1427957019505328
 20
7.6423540117595987
 30
0.0
  0
SEQEND
  5
522
  8
0
 62
     1
  0
POLYLINE
  5
1A5
  8
0
 62
     1
 66
     1
 10
0.0
 20
0.0
 30
0.0
 70
     1
  0
VERTEX
  5
523
  8
0
 62
     1
 10
16.9657181665388102
 20
7.6423540117595987
 30
0.0
  0
VERTEX
  5
524
  8
0
 62
     1
 10
17.0533261762988815
 20
7.6423540117595987
 30
0.0
  0
VERTEX
  5
525
  8
0
 62
     1
 10
17.3161754383007818
 20
7.4972658619553441
 30
0.0
  0
VERTEX
  5
526
  8
0
 62
     1
 10
17.4626513877988216
 20
7.2343409017883218
 30
0.0
  0
VERTEX
  5
527
  8
0
 62
     1
 10
17.4626513877988216
 20
7.1455217213864088
 30
0.0
  0
VERTEX
  5
528
  8
0
 62
     1
 10
17.4626513877988216
 20
7.057964177069751
 30
0.0
  0
VERTEX
  5
529
  8
0
 62
     1
 10
17.3161754383007818
 20
6.795039216902734
 30
0.0
  0
VERTEX
  5
52A
  8
0
 62
     1
 10
17.0533261762988815
 20
6.6484371037961729
 30
0.0
  0
VERTEX
  5
52B
  8
0
 62
     1
 10
16.9657181665388102
 20
6.6484371037961729
 30
0.0
  0
VERTEX
  5
52C
  8
0
 62
     1
 10
16.8767475898066692
 20
6.6484371037961729
 30
0.0
  0
VERTEX
  5
52D
  8
0
 62
     1
 10
16.6138983278047689
 20
6.795039216902734
 30
0.0
  0
VERTEX
  5
52E
  8
0
 62
     1
 10
16.4688101780004992
 20
7.057964177069751
 30
0.0
  0
VERTEX
  5
52F
  8
0
 62
     1
 10
16.4688101780004992
 20
7.1455217213864088
 30
0.0
  0
VERTEX
  5
530
  8
0
 62
     1
 10
16.4688101780004992
 20
7.2343409017883218
 30
0.0
  0
VERTEX
  5
531
  8
0
 62
     1
 10
16.6138983278047689
 20
7.4972658619553441
 30
0.0
  0
VERTEX
  5
532
  8
0
 62
     1
 10
16.8767475898066692
 20
7.6423540117595987
 30
0.0
  0
VERTEX
  5
533
  8
0
 62
     1
 10
16.9657181665388102
 20
7.6423540117595987
 30
0.0
  0
SEQEND
  5
534
  8
0
 62
     1
  0
POLYLINE
  5
1B8
  8
0
 62
     1
 66
     1
 10
0.0
 20
0.0
 30
0.0
 70
     1
  0
VERTEX
  5
535
  8
0
 62
     1
 10
28.9756862510663105
 20
7.6423540117595987
 30
0.0
  0
VERTEX
  5
536
  8
0
 62
     1
 10
29.0634961226000215
 20
7.6423540117595987
 30
0.0
  0
VERTEX
  5
537
  8
0
 62
     1
 10
29.3261687555499897
 20
7.4972658619553441
 30
0.0
  0
VERTEX
  5
538
  8
0
 62
     1
 10
29.4727708686565499
 20
7.2343409017883218
 30
0.0
  0
VERTEX
  5
539
  8
0
 62
     1
 10
29.4727708686565499
 20
7.1455217213864088
 30
0.0
  0
VERTEX
  5
53A
  8
0
 62
     1
 10
29.4727708686565499
 20
7.057964177069751
 30
0.0
  0
VERTEX
  5
53B
  8
0
 62
     1
 10
29.3261687555499897
 20
6.795039216902734
 30
0.0
  0
VERTEX
  5
53C
  8
0
 62
     1
 10
29.0634961226000215
 20
6.6484371037961729
 30
0.0
  0
VERTEX
  5
53D
  8
0
 62
     1
 10
28.9756862510663105
 20
6.6484371037961729
 30
0.0
  0
VERTEX
  5
53E
  8
0
 62
     1
 10
28.8868670706644011
 20
6.6484371037961729
 30
0.0
  0
VERTEX
  5
53F
  8
0
 62
     1
 10
28.6239421104973815
 20
6.795039216902734
 30
0.0
  0
VERTEX
  5
540
  8
0
 62
     1
 10
28.4788539606931295
 20
7.057964177069751
 30
0.0
  0
VERTEX
  5
541
  8
0
 62
     1
 10
28.4788539606931295
 20
7.1455217213864088
 30
0.0
  0
VERTEX
  5
542
  8
0
 62
     1
 10
28.4788539606931295
 20
7.2343409017883218
 30
0.0
  0
VERTEX
  5
543
  8
0
 62
     1
 10
28.6239421104973815
 20
7.4972658619553441
 30
0.0
  0
VERTEX
  5
544
  8
0
 62
     1
 10
28.8868670706644011
 20
7.6423540117595987
 30
0.0
  0
VERTEX
  5
545
  8
0
 62
     1
 10
28.9756862510663105
 20
7.6423540117595987
 30
0.0
  0
SEQEND
  5
546
  8
0
 62
     1
  0
POLYLINE
  5
1CB
  8
0
 62
     1
 66
     1
 10
0.0
 20
0.0
 30
0.0
 70
     1
  0
VERTEX
  5
547
  8
0
 62
     1
 10
28.9756862510663105
 20
-3.9061832909469461
 30
0.0
  0
VERTEX
  5
548
  8
0
 62
     1
 10
29.0634961226000215
 20
-3.9061832909469461
 30
0.0
  0
VERTEX
  5
549
  8
0
 62
     1
 10
29.3261687555499897
 20
-4.0512714407512016
 30
0.0
  0
VERTEX
  5
54A
  8
0
 62
     1
 10
29.4727708686565499
 20
-4.3140954700314031
 30
0.0
  0
VERTEX
  5
54B
  8
0
 62
     1
 10
29.4727708686565499
 20
-4.4030912794852499
 30
0.0
  0
VERTEX
  5
54C
  8
0
 62
     1
 10
29.4727708686565499
 20
-4.490699289245315
 30
0.0
  0
VERTEX
  5
54D
  8
0
 62
     1
 10
29.3261687555499897
 20
-4.7535485512472189
 30
0.0
  0
VERTEX
  5
54E
  8
0
 62
     1
 10
29.0634961226000215
 20
-4.9000245007452587
 30
0.0
  0
VERTEX
  5
54F
  8
0
 62
     1
 10
28.9756862510663105
 20
-4.9000245007452587
 30
0.0
  0
VERTEX
  5
550
  8
0
 62
     1
 10
28.8868670706644011
 20
-4.9000245007452587
 30
0.0
  0
VERTEX
  5
551
  8
0
 62
     1
 10
28.6239421104973815
 20
-4.7535485512472189
 30
0.0
  0
VERTEX
  5
552
  8
0
 62
     1
 10
28.4788539606931295
 20
-4.490699289245315
 30
0.0
  0
VERTEX
  5
553
  8
0
 62
     1
 10
28.4788539606931295
 20
-4.4030912794852499
 30
0.0
  0
VERTEX
  5
554
  8
0
 62
     1
 10
28.4788539606931295
 20
-4.3140954700314031
 30
0.0
  0
VERTEX
  5
555
  8
0
 62
     1
 10
28.6239421104973815
 20
-4.0512714407512016
 30
0.0
  0
VERTEX
  5
556
  8
0
 62
     1
 10
28.8868670706644011
 20
-3.9061832909469461
 30
0.0
  0
VERTEX
  5
557
  8
0
 62
     1
 10
28.9756862510663105
 20
-3.9061832909469461
 30
0.0
  0
SEQEND
  5
558
  8
0
 62
     1
  0
POLYLINE
  5
1DE
  8
0
 62
     1
 66
     1
 10
0.0
 20
0.0
 30
0.0
 70
     1
  0
VERTEX
  5
559
  8
0
 62
     1
 10
16.9657181665388102
 20
-3.9061832909469461
 30
0.0
  0
VERTEX
  5
55A
  8
0
 62
     1
 10
17.0533261762988815
 20
-3.9061832909469461
 30
0.0
  0
VERTEX
  5
55B
  8
0
 62
     1
 10
17.3161754383007818
 20
-4.0512714407512016
 30
0.0
  0
VERTEX
  5
55C
  8
0
 62
     1
 10
17.4626513877988216
 20
-4.3140954700314031
 30
0.0
  0
VERTEX
  5
55D
  8
0
 62
     1
 10
17.4626513877988216
 20
-4.4030912794852499
 30
0.0
  0
VERTEX
  5
55E
  8
0
 62
     1
 10
17.4626513877988216
 20
-4.490699289245315
 30
0.0
  0
VERTEX
  5
55F
  8
0
 62
     1
 10
17.3161754383007818
 20
-4.7535485512472189
 30
0.0
  0
VERTEX
  5
560
  8
0
 62
     1
 10
17.0533261762988815
 20
-4.9000245007452587
 30
0.0
  0
VERTEX
  5
561
  8
0
 62
     1
 10
16.9657181665388102
 20
-4.9000245007452587
 30
0.0
  0
VERTEX
  5
562
  8
0
 62
     1
 10
16.8767475898066692
 20
-4.9000245007452587
 30
0.0
  0
VERTEX
  5
563
  8
0
 62
     1
 10
16.6138983278047689
 20
-4.7535485512472189
 30
0.0
  0
VERTEX
  5
564
  8
0
 62
     1
 10
16.4688101780004992
 20
-4.490699289245315
 30
0.0
  0
VERTEX
  5
565
  8
0
 62
     1
 10
16.4688101780004992
 20
-4.4030912794852499
 30
0.0
  0
VERTEX
  5
566
  8
0
 62
     1
 10
16.4688101780004992
 20
-4.3140954700314031
 30
0.0
  0
VERTEX
  5
567
  8
0
 62
     1
 10
16.6138983278047689
 20
-4.0512714407512016
 30
0.0
  0
VERTEX
  5
568
  8
0
 62
     1
 10
16.8767475898066692
 20
-3.9061832909469461
 30
0.0
  0
VERTEX
  5
569
  8
0
 62
     1
 10
16.9657181665388102
 20
-3.9061832909469461
 30
0.0
  0
SEQEND
  5
56A
  8
0
 62
     1
  0
POLYLINE
  5
1F1
  8
0
 62
     1
 66
     1
 10
0.0
 20
0.0
 30
0.0
 70
     1
  0
VERTEX
  5
56B
  8
0
 62
     1
 10
0.6586428083564745
 20
-3.9061832909469461
 30
0.0
  0
VERTEX
  5
56C
  8
0
 62
     1
 10
0.7462508181165405
 20
-3.9061832909469461
 30
0.0
  0
VERTEX
  5
56D
  8
0
 62
     1
 10
1.0091000801184451
 20
-4.0512714407512016
 30
0.0
  0
VERTEX
  5
56E
  8
0
 62
     1
 10
1.15555079689478
 20
-4.3140954700314031
 30
0.0
  0
VERTEX
  5
56F
  8
0
 62
     1
 10
1.15555079689478
 20
-4.4030912794852499
 30
0.0
  0
VERTEX
  5
570
  8
0
 62
     1
 10
1.15555079689478
 20
-4.490699289245315
 30
0.0
  0
VERTEX
  5
571
  8
0
 62
     1
 10
1.0091000801184451
 20
-4.7535485512472189
 30
0.0
  0
VERTEX
  5
572
  8
0
 62
     1
 10
0.7462508181165405
 20
-4.9000245007452587
 30
0.0
  0
VERTEX
  5
573
  8
0
 62
     1
 10
0.6586428083564745
 20
-4.9000245007452587
 30
0.0
  0
VERTEX
  5
574
  8
0
 62
     1
 10
0.5696722316243321
 20
-4.9000245007452587
 30
0.0
  0
VERTEX
  5
575
  8
0
 62
     1
 10
0.3068229696224259
 20
-4.7535485512472189
 30
0.0
  0
VERTEX
  5
576
  8
0
 62
     1
 10
0.1617095870964644
 20
-4.490699289245315
 30
0.0
  0
VERTEX
  5
577
  8
0
 62
     1
 10
0.1617095870964644
 20
-4.4030912794852499
 30
0.0
  0
VERTEX
  5
578
  8
0
 62
     1
 10
0.1617095870964644
 20
-4.3140954700314031
 30
0.0
  0
VERTEX
  5
579
  8
0
 62
     1
 10
0.3068229696224259
 20
-4.0512714407512016
 30
0.0
  0
VERTEX
  5
57A
  8
0
 62
     1
 10
0.5696722316243321
 20
-3.9061832909469461
 30
0.0
  0
VERTEX
  5
57B
  8
0
 62
     1
 10
0.6586428083564745
 20
-3.9061832909469461
 30
0.0
  0
SEQEND
  5
57C
  8
0
 62
     1
  0
POLYLINE
  5
204
  8
0
 62
     1
 66
     1
 10
0.0
 20
0.0
 30
0.0
 70
     1
  0
VERTEX
  5
57D
  8
0
 62
     1
 10
45.1427957019505328
 20
-3.9061832909469461
 30
0.0
  0
VERTEX
  5
57E
  8
0
 62
     1
 10
45.2306055734842474
 20
-3.9061832909469461
 30
0.0
  0
VERTEX
  5
57F
  8
0
 62
     1
 10
45.4932782064341978
 20
-4.0512714407512016
 30
0.0
  0
VERTEX
  5
580
  8
0
 62
     1
 10
45.6398803195407581
 20
-4.3140954700314031
 30
0.0
  0
VERTEX
  5
581
  8
0
 62
     1
 10
45.6398803195407581
 20
-4.4030912794852499
 30
0.0
  0
VERTEX
  5
582
  8
0
 62
     1
 10
45.6398803195407581
 20
-4.490699289245315
 30
0.0
  0
VERTEX
  5
583
  8
0
 62
     1
 10
45.4932782064341978
 20
-4.7535485512472189
 30
0.0
  0
VERTEX
  5
584
  8
0
 62
     1
 10
45.2306055734842474
 20
-4.9000245007452587
 30
0.0
  0
VERTEX
  5
585
  8
0
 62
     1
 10
45.1427957019505328
 20
-4.9000245007452587
 30
0.0
  0
VERTEX
  5
586
  8
0
 62
     1
 10
45.0552381576338732
 20
-4.9000245007452587
 30
0.0
  0
VERTEX
  5
587
  8
0
 62
     1
 10
44.7925655246839085
 20
-4.7535485512472189
 30
0.0
  0
VERTEX
  5
588
  8
0
 62
     1
 10
44.6474773748796423
 20
-4.490699289245315
 30
0.0
  0
VERTEX
  5
589
  8
0
 62
     1
 10
44.6474773748796423
 20
-4.4030912794852499
 30
0.0
  0
VERTEX
  5
58A
  8
0
 62
     1
 10
44.6474773748796423
 20
-4.3140954700314031
 30
0.0
  0
VERTEX
  5
58B
  8
0
 62
     1
 10
44.7925655246839085
 20
-4.0512714407512016
 30
0.0
  0
VERTEX
  5
58C
  8
0
 62
     1
 10
45.0552381576338732
 20
-3.9061832909469461
 30
0.0
  0
VERTEX
  5
58D
  8
0
 62
     1
 10
45.1427957019505328
 20
-3.9061832909469461
 30
0.0
  0
SEQEND
  5
58E
  8
0
 62
     1
  0
POLYLINE
  5
217
  8
0
 62
     1
 66
     1
 10
0.0
 20
0.0
 30
0.0
 70
     1
  0
VERTEX
  5
58F
  8
0
 62
     1
 10
22.9016654822174317
 20
28.4288178251943506
 30
0.0
  0
VERTEX
  5
590
  8
0
 62
     1
 10
22.9892230265340984
 20
28.4288178251943506
 30
0.0
  0
VERTEX
  5
591
  8
0
 62
     1
 10
23.2518956594840702
 20
28.2837296753900986
 30
0.0
  0
VERTEX
  5
592
  8
0
 62
     1
 10
23.3984977725906305
 20
28.0210570424401304
 30
0.0
  0
VERTEX
  5
593
  8
0
 62
     1
 10
23.3984977725906305
 20
27.9319855348211483
 30
0.0
  0
VERTEX
  5
594
  8
0
 62
     1
 10
23.3984977725906305
 20
27.84442799050451
 30
0.0
  0
VERTEX
  5
595
  8
0
 62
     1
 10
23.2518956594840702
 20
27.5815030303374797
 30
0.0
  0
VERTEX
  5
596
  8
0
 62
     1
 10
22.9892230265340984
 20
27.4364148805332206
 30
0.0
  0
VERTEX
  5
597
  8
0
 62
     1
 10
22.9016654822174317
 20
27.4364148805332206
 30
0.0
  0
VERTEX
  5
598
  8
0
 62
     1
 10
22.8125939745984816
 20
27.4364148805332206
 30
0.0
  0
VERTEX
  5
599
  8
0
 62
     1
 10
22.5496690144314513
 20
27.5815030303374797
 30
0.0
  0
VERTEX
  5
59A
  8
0
 62
     1
 10
22.4045808646271993
 20
27.84442799050451
 30
0.0
  0
VERTEX
  5
59B
  8
0
 62
     1
 10
22.4045808646271993
 20
27.9319855348211483
 30
0.0
  0
VERTEX
  5
59C
  8
0
 62
     1
 10
22.4045808646271993
 20
28.0210570424401304
 30
0.0
  0
VERTEX
  5
59D
  8
0
 62
     1
 10
22.5496690144314513
 20
28.2837296753900986
 30
0.0
  0
VERTEX
  5
59E
  8
0
 62
     1
 10
22.8125939745984816
 20
28.4288178251943506
 30
0.0
  0
VERTEX
  5
59F
  8
0
 62
     1
 10
22.9016654822174317
 20
28.4288178251943506
 30
0.0
  0
SEQEND
  5
5A0
  8
0
 62
     1
  0
POLYLINE
  5
22A
  8
0
 62
     1
 66
     1
 10
0.0
 20
0.0
 30
0.0
 70
     1
  0
VERTEX
  5
5A1
  8
0
 62
     1
 10
43.6878769684351269
 20
51.5258419651640196
 30
0.0
  0
VERTEX
  5
5A2
  8
0
 62
     1
 10
43.7754345127517865
 20
51.5258419651640196
 30
0.0
  0
VERTEX
  5
5A3
  8
0
 62
     1
 10
44.0383594729188133
 20
51.3807538153597676
 30
0.0
  0
VERTEX
  5
5A4
  8
0
 62
     1
 10
44.1847092588083328
 20
51.1180811824098029
 30
0.0
  0
VERTEX
  5
5A5
  8
0
 62
     1
 10
44.1847092588083328
 20
51.0290096747908279
 30
0.0
  0
VERTEX
  5
5A6
  8
0
 62
     1
 10
44.1847092588083328
 20
50.9414521304741825
 30
0.0
  0
VERTEX
  5
5A7
  8
0
 62
     1
 10
44.0383594729188133
 20
50.6785271703071487
 30
0.0
  0
VERTEX
  5
5A8
  8
0
 62
     1
 10
43.7754345127517865
 20
50.5319250572005814
 30
0.0
  0
VERTEX
  5
5A9
  8
0
 62
     1
 10
43.6878769684351269
 20
50.5319250572005814
 30
0.0
  0
VERTEX
  5
5AA
  8
0
 62
     1
 10
43.5988054608161733
 20
50.5319250572005814
 30
0.0
  0
VERTEX
  5
5AB
  8
0
 62
     1
 10
43.3358805006491394
 20
50.6785271703071487
 30
0.0
  0
VERTEX
  5
5AC
  8
0
 62
     1
 10
43.1907923508448874
 20
50.9414521304741825
 30
0.0
  0
VERTEX
  5
5AD
  8
0
 62
     1
 10
43.1907923508448874
 20
51.0290096747908279
 30
0.0
  0
VERTEX
  5
5AE
  8
0
 62
     1
 10
43.1907923508448874
 20
51.1180811824098029
 30
0.0
  0
VERTEX
  5
5AF
  8
0
 62
     1
 10
43.3358805006491394
 20
51.3807538153597676
 30
0.0
  0
VERTEX
  5
5B0
  8
0
 62
     1
 10
43.5988054608161733
 20
51.5258419651640196
 30
0.0
  0
VERTEX
  5
5B1
  8
0
 62
     1
 10
43.6878769684351269
 20
51.5258419651640196
 30
0.0
  0
SEQEND
  5
5B2
  8
0
 62
     1
  0
POLYLINE
  5
23D
  8
0
 62
     1
 66
     1
 10
0.0
 20
0.0
 30
0.0
 70
     1
  0
VERTEX
  5
5B3
  8
0
 62
     1
 10
43.6878769684351269
 20
88.4809291927852968
 30
0.0
  0
VERTEX
  5
5B4
  8
0
 62
     1
 10
43.7754345127517865
 20
88.4809291927852968
 30
0.0
  0
VERTEX
  5
5B5
  8
0
 62
     1
 10
44.0383594729188133
 20
88.335841042981059
 30
0.0
  0
VERTEX
  5
5B6
  8
0
 62
     1
 10
44.1847092588083328
 20
88.0731684100310304
 30
0.0
  0
VERTEX
  5
5B7
  8
0
 62
     1
 10
44.1847092588083328
 20
87.9840969024120767
 30
0.0
  0
VERTEX
  5
5B8
  8
0
 62
     1
 10
44.1847092588083328
 20
87.8965393580954242
 30
0.0
  0
VERTEX
  5
5B9
  8
0
 62
     1
 10
44.0383594729188133
 20
87.6336143979284117
 30
0.0
  0
VERTEX
  5
5BA
  8
0
 62
     1
 10
43.7754345127517865
 20
87.4870122848218585
 30
0.0
  0
VERTEX
  5
5BB
  8
0
 62
     1
 10
43.6878769684351269
 20
87.4870122848218585
 30
0.0
  0
VERTEX
  5
5BC
  8
0
 62
     1
 10
43.5988054608161733
 20
87.4870122848218585
 30
0.0
  0
VERTEX
  5
5BD
  8
0
 62
     1
 10
43.3358805006491394
 20
87.6336143979284117
 30
0.0
  0
VERTEX
  5
5BE
  8
0
 62
     1
 10
43.1907923508448874
 20
87.8965393580954242
 30
0.0
  0
VERTEX
  5
5BF
  8
0
 62
     1
 10
43.1907923508448874
 20
87.9840969024120767
 30
0.0
  0
VERTEX
  5
5C0
  8
0
 62
     1
 10
43.1907923508448874
 20
88.0731684100310304
 30
0.0
  0
VERTEX
  5
5C1
  8
0
 62
     1
 10
43.3358805006491394
 20
88.335841042981059
 30
0.0
  0
VERTEX
  5
5C2
  8
0
 62
     1
 10
43.5988054608161733
 20
88.4809291927852968
 30
0.0
  0
VERTEX
  5
5C3
  8
0
 62
     1
 10
43.6878769684351269
 20
88.4809291927852968
 30
0.0
  0
SEQEND
  5
5C4
  8
0
 62
     1
  0
POLYLINE
  5
250
  8
0
 62
     1
 66
     1
 10
0.0
 20
0.0
 30
0.0
 70
     1
  0
VERTEX
  5
5C5
  8
0
 62
     1
 10
2.1138391018106248
 20
88.4809291927852968
 30
0.0
  0
VERTEX
  5
5C6
  8
0
 62
     1
 10
2.2014471115706908
 20
88.4809291927852968
 30
0.0
  0
VERTEX
  5
5C7
  8
0
 62
     1
 10
2.4642963735725969
 20
88.335841042981059
 30
0.0
  0
VERTEX
  5
5C8
  8
0
 62
     1
 10
2.61079755579234
 20
88.0731684100310304
 30
0.0
  0
VERTEX
  5
5C9
  8
0
 62
     1
 10
2.61079755579234
 20
87.9840969024120767
 30
0.0
  0
VERTEX
  5
5CA
  8
0
 62
     1
 10
2.61079755579234
 20
87.8965393580954242
 30
0.0
  0
VERTEX
  5
5CB
  8
0
 62
     1
 10
2.4642963735725969
 20
87.6336143979284117
 30
0.0
  0
VERTEX
  5
5CC
  8
0
 62
     1
 10
2.2014471115706908
 20
87.4870122848218585
 30
0.0
  0
VERTEX
  5
5CD
  8
0
 62
     1
 10
2.1138391018106248
 20
87.4870122848218585
 30
0.0
  0
VERTEX
  5
5CE
  8
0
 62
     1
 10
2.024868525078483
 20
87.4870122848218585
 30
0.0
  0
VERTEX
  5
5CF
  8
0
 62
     1
 10
1.7620192630765781
 20
87.6336143979284117
 30
0.0
  0
VERTEX
  5
5D0
  8
0
 62
     1
 10
1.6169311132723201
 20
87.8965393580954242
 30
0.0
  0
VERTEX
  5
5D1
  8
0
 62
     1
 10
1.6169311132723201
 20
87.9840969024120767
 30
0.0
  0
VERTEX
  5
5D2
  8
0
 62
     1
 10
1.6169311132723201
 20
88.0731684100310304
 30
0.0
  0
VERTEX
  5
5D3
  8
0
 62
     1
 10
1.7620192630765781
 20
88.335841042981059
 30
0.0
  0
VERTEX
  5
5D4
  8
0
 62
     1
 10
2.024868525078483
 20
88.4809291927852968
 30
0.0
  0
VERTEX
  5
5D5
  8
0
 62
     1
 10
2.1138391018106248
 20
88.4809291927852968
 30
0.0
  0
SEQEND
  5
5D6
  8
0
 62
     1
  0
POLYLINE
  5
263
  8
0
 62
     1
 66
     1
 10
0.0
 20
0.0
 30
0.0
 70
     1
  0
VERTEX
  5
5D7
  8
0
 62
     1
 10
22.9016654822174317
 20
90.7904802104520314
 30
0.0
  0
VERTEX
  5
5D8
  8
0
 62
     1
 10
22.9892230265340984
 20
90.7904802104520314
 30
0.0
  0
VERTEX
  5
5D9
  8
0
 62
     1
 10
23.2518956594840702
 20
90.6453920606477652
 30
0.0
  0
VERTEX
  5
5DA
  8
0
 62
     1
 10
23.3984977725906305
 20
90.3824671004807669
 30
0.0
  0
VERTEX
  5
5DB
  8
0
 62
     1
 10
23.3984977725906305
 20
90.2936479200787971
 30
0.0
  0
VERTEX
  5
5DC
  8
0
 62
     1
 10
23.3984977725906305
 20
90.2058380485451181
 30
0.0
  0
VERTEX
  5
5DD
  8
0
 62
     1
 10
23.2518956594840702
 20
89.9431654155951605
 30
0.0
  0
VERTEX
  5
5DE
  8
0
 62
     1
 10
22.9892230265340984
 20
89.7980772657909228
 30
0.0
  0
VERTEX
  5
5DF
  8
0
 62
     1
 10
22.9016654822174317
 20
89.7980772657909228
 30
0.0
  0
VERTEX
  5
5E0
  8
0
 62
     1
 10
22.8125939745984816
 20
89.7980772657909228
 30
0.0
  0
VERTEX
  5
5E1
  8
0
 62
     1
 10
22.5496690144314513
 20
89.9431654155951605
 30
0.0
  0
VERTEX
  5
5E2
  8
0
 62
     1
 10
22.4045808646271993
 20
90.2058380485451181
 30
0.0
  0
VERTEX
  5
5E3
  8
0
 62
     1
 10
22.4045808646271993
 20
90.2936479200787971
 30
0.0
  0
VERTEX
  5
5E4
  8
0
 62
     1
 10
22.4045808646271993
 20
90.3824671004807669
 30
0.0
  0
VERTEX
  5
5E5
  8
0
 62
     1
 10
22.5496690144314513
 20
90.6453920606477652
 30
0.0
  0
VERTEX
  5
5E6
  8
0
 62
     1
 10
22.8125939745984816
 20
90.7904802104520314
 30
0.0
  0
VERTEX
  5
5E7
  8
0
 62
     1
 10
22.9016654822174317
 20
90.7904802104520314
 30
0.0
  0
SEQEND
  5
5E8
  8
0
 62
     1
  0
POLYLINE
  5
27D
  8
0
 62
     1
 66
     1
 10
0.0
 20
0.0
 30
0.0
 70
     1
 40
0.3504547484898018
 41
0.3504547484898018
  0
VERTEX
  5
5E9
  8
0
 62
     1
 10
1.1309236605106141
 20
-16.7456771015292212
 30
0.0
  0
VERTEX
  5
5EA
  8
0
 62
     1
 10
1.1309236605106141
 20
-16.5786617165632393
 30
0.0
  0
VERTEX
  5
5EB
  8
0
 62
     1
 10
0.9953987122325841
 20
-16.0775903289436002
 30
0.0
  0
VERTEX
  5
5EC
  8
0
 62
     1
 10
0.627152371668525
 20
-15.5313776021935492
 30
0.0
  0
VERTEX
  5
5ED
  8
0
 62
     1
 10
0.0809144121967721
 20
-15.1631564943511901
 30
0.0
  0
VERTEX
  5
5EE
  8
0
 62
     1
 10
-0.420081277257758
 20
-15.0289688803235304
 30
0.0
  0
VERTEX
  5
5EF
  8
0
 62
     1
 10
-0.5871218949454438
 20
-15.0289688803235304
 30
0.0
  0
VERTEX
  5
5F0
  8
0
 62
     1
 10
-4.19981682507147
 20
-15.0289688803235304
 30
0.0
  0
VERTEX
  5
5F1
  8
0
 62
     1
 10
-4.3668322100374493
 20
-15.0289688803235304
 30
0.0
  0
VERTEX
  5
5F2
  8
0
 62
     1
 10
-4.8678632253023659
 20
-15.1631564943511901
 30
0.0
  0
VERTEX
  5
5F3
  8
0
 62
     1
 10
-5.4140784753245841
 20
-15.5313776021935492
 30
0.0
  0
VERTEX
  5
5F4
  8
0
 62
     1
 10
-5.7823273391608137
 20
-16.0775903289436002
 30
0.0
  0
VERTEX
  5
5F5
  8
0
 62
     1
 10
-5.9164846739224277
 20
-16.5786617165632393
 30
0.0
  0
VERTEX
  5
5F6
  8
0
 62
     1
 10
-5.9164846739224277
 20
-16.7456771015292212
 30
0.0
  0
VERTEX
  5
5F7
  8
0
 62
     1
 10
-5.9164846739224277
 20
-16.9113046868014187
 30
0.0
  0
VERTEX
  5
5F8
  8
0
 62
     1
 10
-5.7823273391608137
 20
-17.4123508416993609
 30
0.0
  0
VERTEX
  5
5F9
  8
0
 62
     1
 10
-5.4140784753245841
 20
-17.9585686149937516
 30
0.0
  0
VERTEX
  5
5FA
  8
0
 62
     1
 10
-4.8678632253023659
 20
-18.3268200021021492
 30
0.0
  0
VERTEX
  5
5FB
  8
0
 62
     1
 10
-4.3668322100374493
 20
-18.4623474736523505
 30
0.0
  0
VERTEX
  5
5FC
  8
0
 62
     1
 10
-4.19981682507147
 20
-18.4623474736523505
 30
0.0
  0
VERTEX
  5
5FD
  8
0
 62
     1
 10
-0.5871218949454438
 20
-18.4623474736523505
 30
0.0
  0
VERTEX
  5
5FE
  8
0
 62
     1
 10
-0.420081277257758
 20
-18.4623474736523505
 30
0.0
  0
VERTEX
  5
5FF
  8
0
 62
     1
 10
0.0809144121967721
 20
-18.3268200021021492
 30
0.0
  0
VERTEX
  5
600
  8
0
 62
     1
 10
0.627152371668525
 20
-17.9585686149937516
 30
0.0
  0
VERTEX
  5
601
  8
0
 62
     1
 10
0.9953987122325841
 20
-17.4123508416993609
 30
0.0
  0
VERTEX
  5
602
  8
0
 62
     1
 10
1.1309236605106141
 20
-16.9113046868014187
 30
0.0
  0
VERTEX
  5
603
  8
0
 62
     1
 10
1.1309236605106141
 20
-16.7456771015292212
 30
0.0
  0
SEQEND
  5
604
  8
0
 62
     1
  0
POLYLINE
  5
29A
  8
0
 62
     1
 66
     1
 10
0.0
 20
0.0
 30
0.0
 70
     1
 40
0.3504547484898018
 41
0.3504547484898018
  0
VERTEX
  5
605
  8
0
 62
     1
 10
51.5965689324609826
 20
-16.7456771015292212
 30
0.0
  0
VERTEX
  5
606
  8
0
 62
     1
 10
51.5965689324609826
 20
-16.5786617165632393
 30
0.0
  0
VERTEX
  5
607
  8
0
 62
     1
 10
51.4608168896876066
 20
-16.0775903289436002
 30
0.0
  0
VERTEX
  5
608
  8
0
 62
     1
 10
51.0926714800103809
 20
-15.5313776021935492
 30
0.0
  0
VERTEX
  5
609
  8
0
 62
     1
 10
50.5461307278781575
 20
-15.1631564943511901
 30
0.0
  0
VERTEX
  5
60A
  8
0
 62
     1
 10
50.0455135292491988
 20
-15.0289688803235304
 30
0.0
  0
VERTEX
  5
60B
  8
0
 62
     1
 10
49.8782205843444686
 20
-15.0289688803235304
 30
0.0
  0
VERTEX
  5
60C
  8
0
 62
     1
 10
46.2659041450440114
 20
-15.0289688803235304
 30
0.0
  0
VERTEX
  5
60D
  8
0
 62
     1
 10
46.0986112001392669
 20
-15.0289688803235304
 30
0.0
  0
VERTEX
  5
60E
  8
0
 62
     1
 10
45.5974893470762197
 20
-15.1631564943511901
 30
0.0
  0
VERTEX
  5
60F
  8
0
 62
     1
 10
45.051453249378099
 20
-15.5313776021935492
 30
0.0
  0
VERTEX
  5
610
  8
0
 62
     1
 10
44.6830555124838185
 20
-16.0775903289436002
 30
0.0
  0
VERTEX
  5
611
  8
0
 62
     1
 10
44.5488174330127435
 20
-16.5786617165632393
 30
0.0
  0
VERTEX
  5
612
  8
0
 62
     1
 10
44.5488174330127435
 20
-16.7456771015292212
 30
0.0
  0
VERTEX
  5
613
  8
0
 62
     1
 10
44.5488174330127435
 20
-16.9113046868014187
 30
0.0
  0
VERTEX
  5
614
  8
0
 62
     1
 10
44.6830555124838185
 20
-17.4123508416993609
 30
0.0
  0
VERTEX
  5
615
  8
0
 62
     1
 10
45.051453249378099
 20
-17.9585686149937516
 30
0.0
  0
VERTEX
  5
616
  8
0
 62
     1
 10
45.5974893470762197
 20
-18.3268200021021492
 30
0.0
  0
VERTEX
  5
617
  8
0
 62
     1
 10
46.0986112001392669
 20
-18.4623474736523505
 30
0.0
  0
VERTEX
  5
618
  8
0
 62
     1
 10
46.2659041450440114
 20
-18.4623474736523505
 30
0.0
  0
VERTEX
  5
619
  8
0
 62
     1
 10
49.8782205843444686
 20
-18.4623474736523505
 30
0.0
  0
VERTEX
  5
61A
  8
0
 62
     1
 10
50.0455135292491988
 20
-18.4623474736523505
 30
0.0
  0
VERTEX
  5
61B
  8
0
 62
     1
 10
50.5461307278781575
 20
-18.3268200021021492
 30
0.0
  0
VERTEX
  5
61C
  8
0
 62
     1
 10
51.0926714800103809
 20
-17.9585686149937516
 30
0.0
  0
VERTEX
  5
61D
  8
0
 62
     1
 10
51.4608168896876066
 20
-17.4123508416993609
 30
0.0
  0
VERTEX
  5
61E
  8
0
 62
     1
 10
51.5965689324609826
 20
-16.9113046868014187
 30
0.0
  0
VERTEX
  5
61F
  8
0
 62
     1
 10
51.5965689324609826
 20
-16.7456771015292212
 30
0.0
  0
SEQEND
  5
620
  8
0
 62
     1
  0
POLYLINE
  5
2B7
  8
0
 62
     1
 66
     1
 10
0.0
 20
0.0
 30
0.0
 70
     1
 40
0.3504547484898018
 41
0.3504547484898018
  0
VERTEX
  5
621
  8
0
 62
     1
 10
51.5965689324609826
 20
104.9495696680452994
 30
0.0
  0
VERTEX
  5
622
  8
0
 62
     1
 10
51.5965689324609826
 20
105.1181242490353043
 30
0.0
  0
VERTEX
  5
623
  8
0
 62
     1
 10
51.4608168896876066
 20
105.6189937748813037
 30
0.0
  0
VERTEX
  5
624
  8
0
 62
     1
 10
51.0926714800103809
 20
106.1640205637112047
 30
0.0
  0
VERTEX
  5
625
  8
0
 62
     1
 10
50.5461307278781575
 20
106.533679936690703
 30
0.0
  0
VERTEX
  5
626
  8
0
 62
     1
 10
50.0455135292491988
 20
106.6679180161618063
 30
0.0
  0
VERTEX
  5
627
  8
0
 62
     1
 10
49.8782205843444686
 20
106.6679180161618063
 30
0.0
  0
VERTEX
  5
628
  8
0
 62
     1
 10
46.2659041450440114
 20
106.6679180161618063
 30
0.0
  0
VERTEX
  5
629
  8
0
 62
     1
 10
46.0986112001392669
 20
106.6679180161618063
 30
0.0
  0
VERTEX
  5
62A
  8
0
 62
     1
 10
45.5974893470762197
 20
106.533679936690703
 30
0.0
  0
VERTEX
  5
62B
  8
0
 62
     1
 10
45.051453249378099
 20
106.1640205637112047
 30
0.0
  0
VERTEX
  5
62C
  8
0
 62
     1
 10
44.6830555124838185
 20
105.6189937748813037
 30
0.0
  0
VERTEX
  5
62D
  8
0
 62
     1
 10
44.5488174330127435
 20
105.1181242490353043
 30
0.0
  0
VERTEX
  5
62E
  8
0
 62
     1
 10
44.5488174330127435
 20
104.9495696680452994
 30
0.0
  0
VERTEX
  5
62F
  8
0
 62
     1
 10
44.5488174330127435
 20
104.7840430136598968
 30
0.0
  0
VERTEX
  5
630
  8
0
 62
     1
 10
44.6830555124838185
 20
104.2829211605967998
 30
0.0
  0
VERTEX
  5
631
  8
0
 62
     1
 10
45.051453249378099
 20
103.7366327356816953
 30
0.0
  0
VERTEX
  5
632
  8
0
 62
     1
 10
45.5974893470762197
 20
103.3687396532214962
 30
0.0
  0
VERTEX
  5
633
  8
0
 62
     1
 10
46.0986112001392669
 20
103.2329876104481059
 30
0.0
  0
VERTEX
  5
634
  8
0
 62
     1
 10
46.2659041450440114
 20
103.2329876104481059
 30
0.0
  0
VERTEX
  5
635
  8
0
 62
     1
 10
49.8782205843444686
 20
103.2329876104481059
 30
0.0
  0
VERTEX
  5
636
  8
0
 62
     1
 10
50.0455135292491988
 20
103.2329876104481059
 30
0.0
  0
VERTEX
  5
637
  8
0
 62
     1
 10
50.5461307278781575
 20
103.3687396532214962
 30
0.0
  0
VERTEX
  5
638
  8
0
 62
     1
 10
51.0926714800103809
 20
103.7366327356816953
 30
0.0
  0
VERTEX
  5
639
  8
0
 62
     1
 10
51.4608168896876066
 20
104.2829211605967998
 30
0.0
  0
VERTEX
  5
63A
  8
0
 62
     1
 10
51.5965689324609826
 20
104.7840430136598968
 30
0.0
  0
VERTEX
  5
63B
  8
0
 62
     1
 10
51.5965689324609826
 20
104.9495696680452994
 30
0.0
  0
SEQEND
  5
63C
  8
0
 62
     1
  0
POLYLINE
  5
2D4
  8
0
 62
     1
 66
     1
 10
0.0
 20
0.0
 30
0.0
 70
     1
 40
0.3504547484898018
 41
0.3504547484898018
  0
VERTEX
  5
63D
  8
0
 62
     1
 10
1.1309236605106141
 20
104.9495696680452994
 30
0.0
  0
VERTEX
  5
63E
  8
0
 62
     1
 10
1.1309236605106141
 20
105.1181242490353043
 30
0.0
  0
VERTEX
  5
63F
  8
0
 62
     1
 10
0.9953987122325841
 20
105.6189937748813037
 30
0.0
  0
VERTEX
  5
640
  8
0
 62
     1
 10
0.627152371668525
 20
106.1640205637112047
 30
0.0
  0
VERTEX
  5
641
  8
0
 62
     1
 10
0.0809144121967721
 20
106.533679936690703
 30
0.0
  0
VERTEX
  5
642
  8
0
 62
     1
 10
-0.420081277257758
 20
106.6679180161618063
 30
0.0
  0
VERTEX
  5
643
  8
0
 62
     1
 10
-0.5871218949454438
 20
106.6679180161618063
 30
0.0
  0
VERTEX
  5
644
  8
0
 62
     1
 10
-4.19981682507147
 20
106.6679180161618063
 30
0.0
  0
VERTEX
  5
645
  8
0
 62
     1
 10
-4.3668322100374493
 20
106.6679180161618063
 30
0.0
  0
VERTEX
  5
646
  8
0
 62
     1
 10
-4.8678632253023659
 20
106.533679936690703
 30
0.0
  0
VERTEX
  5
647
  8
0
 62
     1
 10
-5.4140784753245841
 20
106.1640205637112047
 30
0.0
  0
VERTEX
  5
648
  8
0
 62
     1
 10
-5.7823273391608137
 20
105.6189937748813037
 30
0.0
  0
VERTEX
  5
649
  8
0
 62
     1
 10
-5.9164846739224277
 20
105.1181242490353043
 30
0.0
  0
VERTEX
  5
64A
  8
0
 62
     1
 10
-5.9164846739224277
 20
104.9495696680452994
 30
0.0
  0
VERTEX
  5
64B
  8
0
 62
     1
 10
-5.9164846739224277
 20
104.7840430136598968
 30
0.0
  0
VERTEX
  5
64C
  8
0
 62
     1
 10
-5.7823273391608137
 20
104.2829211605967998
 30
0.0
  0
VERTEX
  5
64D
  8
0
 62
     1
 10
-5.4140784753245841
 20
103.7366327356816953
 30
0.0
  0
VERTEX
  5
64E
  8
0
 62
     1
 10
-4.8678632253023659
 20
103.3687396532214962
 30
0.0
  0
VERTEX
  5
64F
  8
0
 62
     1
 10
-4.3668322100374493
 20
103.2329876104481059
 30
0.0
  0
VERTEX
  5
650
  8
0
 62
     1
 10
-4.19981682507147
 20
103.2329876104481059
 30
0.0
  0
VERTEX
  5
651
  8
0
 62
     1
 10
-0.5871218949454438
 20
103.2329876104481059
 30
0.0
  0
VERTEX
  5
652
  8
0
 62
     1
 10
-0.420081277257758
 20
103.2329876104481059
 30
0.0
  0
VERTEX
  5
653
  8
0
 62
     1
 10
0.0809144121967721
 20
103.3687396532214962
 30
0.0
  0
VERTEX
  5
654
  8
0
 62
     1
 10
0.627152371668525
 20
103.7366327356816953
 30
0.0
  0
VERTEX
  5
655
  8
0
 62
     1
 10
0.9953987122325841
 20
104.2829211605967998
 30
0.0
  0
VERTEX
  5
656
  8
0
 62
     1
 10
1.1309236605106141
 20
104.7840430136598968
 30
0.0
  0
VERTEX
  5
657
  8
0
 62
     1
 10
1.1309236605106141
 20
104.9495696680452994
 30
0.0
  0
SEQEND
  5
658
  8
0
 62
     1
  0
LINE
  5
2FA
  8
0
  6
CONTINUOUS
 10
0.1617095870964644
 20
-4.3140954700314031
 30
0.0
 11
1.15555079689478
 21
-4.490699289245315
 31
0.0
  0
LINE
  5
2FB
  8
0
  6
CONTINUOUS
 10
0.1617095870964644
 20
-4.490699289245315
 30
0.0
 11
1.15555079689478
 21
-4.3140954700314031
 31
0.0
  0
LINE
  5
2FC
  8
0
  6
CONTINUOUS
 10
44.7925655246839085
 20
-4.0512714407512016
 30
0.0
 11
45.4932782064341978
 21
-4.7535485512472189
 31
0.0
  0
LINE
  5
2FD
  8
0
  6
CONTINUOUS
 10
44.7925655246839085
 20
-4.7535485512472189
 30
0.0
 11
45.4932782064341978
 21
-4.0512714407512016
 31
0.0
  0
LINE
  5
37C
  8
0
  6
CONTINUOUS
 10
8.5466187078624412
 20
0.3047794708067277
 30
0.0
 11
9.5404599176607583
 21
0.1281756515928158
 31
0.0
  0
LINE
  5
37D
  8
0
  6
CONTINUOUS
 10
8.5466187078624412
 20
0.1281756515928158
 30
0.0
 11
9.5404599176607583
 21
0.3047794708067277
 31
0.0
  0
LINE
  5
37E
  8
0
  6
CONTINUOUS
 10
16.4688101780004992
 20
-4.3140954700314031
 30
0.0
 11
17.4626513877988216
 21
-4.490699289245315
 31
0.0
  0
LINE
  5
37F
  8
0
  6
CONTINUOUS
 10
16.4688101780004992
 20
-4.490699289245315
 30
0.0
 11
17.4626513877988216
 21
-4.3140954700314031
 31
0.0
  0
LINE
  5
380
  8
0
  6
CONTINUOUS
 10
28.4788539606931295
 20
-4.3140954700314031
 30
0.0
 11
29.4726951704914413
 21
-4.490699289245315
 31
0.0
  0
LINE
  5
381
  8
0
  6
CONTINUOUS
 10
28.4788539606931295
 20
-4.490699289245315
 30
0.0
 11
29.4726951704914413
 21
-4.3140954700314031
 31
0.0
  0
LINE
  5
382
  8
0
  6
CONTINUOUS
 10
28.4788539606931295
 20
7.2343409017883218
 30
0.0
 11
29.4726951704914413
 21
7.0577370825744099
 31
0.0
  0
LINE
  5
383
  8
0
  6
CONTINUOUS
 10
28.4788539606931295
 20
7.0577370825744099
 30
0.0
 11
29.4726951704914413
 21
7.2343409017883218
 31
0.0
  0
LINE
  5
384
  8
0
  6
CONTINUOUS
 10
44.6474773748796423
 20
7.2343409017883218
 30
0.0
 11
45.6413185846779612
 21
7.0577370825744099
 31
0.0
  0
LINE
  5
385
  8
0
  6
CONTINUOUS
 10
44.6474773748796423
 20
7.0577370825744099
 30
0.0
 11
45.6413185846779612
 21
7.2343409017883218
 31
0.0
  0
LINE
  5
386
  8
0
  6
CONTINUOUS
 10
16.4688101780004992
 20
7.2343409017883218
 30
0.0
 11
17.4626513877988216
 21
7.0577370825744099
 31
0.0
  0
LINE
  5
387
  8
0
  6
CONTINUOUS
 10
16.4688101780004992
 20
7.0577370825744099
 30
0.0
 11
17.4626513877988216
 21
7.2343409017883218
 31
0.0
  0
LINE
  5
388
  8
0
  6
CONTINUOUS
 10
0.1617095870964644
 20
7.2343409017883218
 30
0.0
 11
1.15555079689478
 21
7.0577370825744099
 31
0.0
  0
LINE
  5
389
  8
0
  6
CONTINUOUS
 10
0.1617095870964644
 20
7.0577370825744099
 30
0.0
 11
1.15555079689478
 21
7.2343409017883218
 31
0.0
  0
LINE
  5
38A
  8
0
  6
CONTINUOUS
 10
3.9263559673305339
 20
21.1405984878966215
 30
0.0
 11
4.9201971771288502
 21
20.9639946686827088
 31
0.0
  0
LINE
  5
38B
  8
0
  6
CONTINUOUS
 10
3.9263559673305339
 20
20.9639946686827088
 30
0.0
 11
4.9201971771288502
 21
21.1405984878966215
 31
0.0
  0
LINE
  5
38C
  8
0
  6
CONTINUOUS
 10
22.4045808646271993
 20
28.0210570424401197
 30
0.0
 11
23.3984220744255182
 21
27.8444532232262105
 31
0.0
  0
LINE
  5
38D
  8
0
  6
CONTINUOUS
 10
22.4045808646271993
 20
27.8444532232262105
 30
0.0
 11
23.3984220744255182
 21
28.0210570424401197
 31
0.0
  0
LINE
  5
38E
  8
0
  6
CONTINUOUS
 10
40.8814936603952006
 20
21.1405984878966215
 30
0.0
 11
41.8753348701935195
 21
20.9639946686827088
 31
0.0
  0
LINE
  5
38F
  8
0
  6
CONTINUOUS
 10
40.8814936603952006
 20
20.9639946686827088
 30
0.0
 11
41.8753348701935195
 21
21.1405984878966215
 31
0.0
  0
LINE
  5
390
  8
0
  6
CONTINUOUS
 10
43.1907923508448874
 20
34.9504670770914814
 30
0.0
 11
44.1846335606432135
 21
34.7738632578775722
 31
0.0
  0
LINE
  5
391
  8
0
  6
CONTINUOUS
 10
43.1907923508448874
 20
34.7738632578775722
 30
0.0
 11
44.1846335606432135
 21
34.9504670770914814
 31
0.0
  0
LINE
  5
392
  8
0
  6
CONTINUOUS
 10
1.6169311132723201
 20
34.9504670770914814
 30
0.0
 11
2.610772323070635
 21
34.7738632578775722
 31
0.0
  0
LINE
  5
393
  8
0
  6
CONTINUOUS
 10
1.6169311132723201
 20
34.7738632578775722
 30
0.0
 11
2.610772323070635
 21
34.9504670770914814
 31
0.0
  0
LINE
  5
394
  8
0
  6
CONTINUOUS
 10
13.1654936487005703
 20
41.8786154756575826
 30
0.0
 11
14.1593348584988892
 21
41.7020116564436734
 31
0.0
  0
LINE
  5
395
  8
0
  6
CONTINUOUS
 10
13.1654936487005703
 20
41.7020116564436734
 30
0.0
 11
14.1593348584988892
 21
41.8786154756575826
 31
0.0
  0
LINE
  5
396
  8
0
  6
CONTINUOUS
 10
31.6437942441623612
 20
41.8786154756575826
 30
0.0
 11
32.6376354539606766
 21
41.7020116564436734
 31
0.0
  0
LINE
  5
397
  8
0
  6
CONTINUOUS
 10
31.6437942441623612
 20
41.7020116564436734
 30
0.0
 11
32.6376354539606766
 21
41.8786154756575826
 31
0.0
  0
LINE
  5
398
  8
0
  6
CONTINUOUS
 10
43.1907923508448874
 20
51.1180811824098029
 30
0.0
 11
44.1846335606432135
 21
50.9414773631958866
 31
0.0
  0
LINE
  5
399
  8
0
  6
CONTINUOUS
 10
43.1907923508448874
 20
50.9414773631958866
 30
0.0
 11
44.1846335606432135
 21
51.1180811824098029
 31
0.0
  0
LINE
  5
39A
  8
0
  6
CONTINUOUS
 10
22.4045808646271993
 20
55.7366785633091695
 30
0.0
 11
23.3984220744255182
 21
55.5600747440952603
 31
0.0
  0
LINE
  5
39B
  8
0
  6
CONTINUOUS
 10
22.4045808646271993
 20
55.5600747440952603
 30
0.0
 11
23.3984220744255182
 21
55.7366785633091695
 31
0.0
  0
LINE
  5
39C
  8
0
  6
CONTINUOUS
 10
1.6169311132723201
 20
51.1180811824098029
 30
0.0
 11
2.610772323070635
 21
50.9414773631958866
 31
0.0
  0
LINE
  5
39D
  8
0
  6
CONTINUOUS
 10
1.6169311132723201
 20
50.9414773631958866
 30
0.0
 11
2.610772323070635
 21
51.1180811824098029
 31
0.0
  0
LINE
  5
39E
  8
0
  6
CONTINUOUS
 10
10.8560435619206501
 20
60.3570422347278992
 30
0.0
 11
11.8498847717189708
 21
60.18043841551399
 31
0.0
  0
LINE
  5
39F
  8
0
  6
CONTINUOUS
 10
10.8560435619206501
 20
60.18043841551399
 30
0.0
 11
11.8498847717189708
 21
60.3570422347278992
 31
0.0
  0
LINE
  5
3A0
  8
0
  6
CONTINUOUS
 10
1.6169311132723201
 20
69.5947416509607422
 30
0.0
 11
2.610772323070635
 21
69.4181378317468329
 31
0.0
  0
LINE
  5
3A1
  8
0
  6
CONTINUOUS
 10
1.6169311132723201
 20
69.4181378317468329
 30
0.0
 11
2.610772323070635
 21
69.5947416509607422
 31
0.0
  0
LINE
  5
3A2
  8
0
  6
CONTINUOUS
 10
22.4045808646271993
 20
71.9055543047127514
 30
0.0
 11
23.3984220744255182
 21
71.7289504854988422
 31
0.0
  0
LINE
  5
3A3
  8
0
  6
CONTINUOUS
 10
22.4045808646271993
 20
71.7289504854988422
 30
0.0
 11
23.3984220744255182
 21
71.9055543047127514
 31
0.0
  0
LINE
  5
3A4
  8
0
  6
CONTINUOUS
 10
43.1907923508448874
 20
69.5947416509607422
 30
0.0
 11
44.1846335606432135
 21
69.4181378317468329
 31
0.0
  0
LINE
  5
3A5
  8
0
  6
CONTINUOUS
 10
43.1907923508448874
 20
69.4181378317468329
 30
0.0
 11
44.1846335606432135
 21
69.5947416509607422
 31
0.0
  0
LINE
  5
3A6
  8
0
  6
CONTINUOUS
 10
36.2626439522788004
 20
78.8339550304958863
 30
0.0
 11
37.2564851620771122
 21
78.657351211281977
 31
0.0
  0
LINE
  5
3A7
  8
0
  6
CONTINUOUS
 10
36.2626439522788004
 20
78.657351211281977
 30
0.0
 11
37.2564851620771122
 21
78.8339550304958863
 31
0.0
  0
LINE
  5
3A8
  8
0
  6
CONTINUOUS
 10
1.6169311132723201
 20
88.0731684100310304
 30
0.0
 11
2.610772323070635
 21
87.8965645908171211
 31
0.0
  0
LINE
  5
3A9
  8
0
  6
CONTINUOUS
 10
1.6169311132723201
 20
87.8965645908171211
 30
0.0
 11
2.610772323070635
 21
88.0731684100310304
 31
0.0
  0
LINE
  5
3AA
  8
0
  6
CONTINUOUS
 10
22.4045808646271993
 20
90.3824671004807669
 30
0.0
 11
23.3984220744255182
 21
90.2058632812668577
 31
0.0
  0
LINE
  5
3AB
  8
0
  6
CONTINUOUS
 10
22.4045808646271993
 20
90.2058632812668577
 30
0.0
 11
23.3984220744255182
 21
90.3824671004807669
 31
0.0
  0
LINE
  5
3AC
  8
0
  6
CONTINUOUS
 10
43.1907923508448874
 20
88.0731684100310304
 30
0.0
 11
44.1846335606432135
 21
87.8965645908171211
 31
0.0
  0
LINE
  5
3AD
  8
0
  6
CONTINUOUS
 10
43.1907923508448874
 20
87.8965645908171211
 30
0.0
 11
44.1846335606432135
 21
88.0731684100310304
 31
0.0
  0
LINE
  5
3AE
  8
0
  6
CONTINUOUS
 10
-7.125281168981437
 20
107.9270308292456946
 30
0.0
 11
53.3747188310185479
 21
107.9270308292456946
 31
0.0
  0
LINE
  5
3AF
  8
0
  6
CONTINUOUS
 10
53.3747188310185479
 20
107.9270308292456946
 30
0.0
 11
53.3747188310185479
 21
-19.7272686069455503
 31
0.0
  0
LINE
  5
3B0
  8
0
  6
CONTINUOUS
 10
53.3747188310185479
 20
-19.7272686069455503
 30
0.0
 11
-7.125281168981437
 21
-19.7272686069455609
 31
0.0
  0
LINE
  5
3B1
  8
0
  6
CONTINUOUS
 10
-7.125281168981437
 20
-19.7272686069455609
 30
0.0
 11
-7.1252811689814299
 21
107.9270308292456946
 31
0.0
  0
ENDSEC
  0
EOF
